<svg xmlns="http://www.w3.org/2000/svg" xmlns:xlink="http://www.w3.org/1999/xlink" width="600" height="800" version="1.0"><defs><linearGradient id="w"><stop offset="0" style="stop-color:#cd2828;stop-opacity:1"/><stop offset="1" style="stop-color:#fff;stop-opacity:1"/></linearGradient><linearGradient id="v"><stop offset="0" style="stop-color:#e7ad1d;stop-opacity:1"/><stop offset="1" style="stop-color:#fff;stop-opacity:1"/></linearGradient><linearGradient id="u"><stop offset="0" style="stop-color:#164ebc;stop-opacity:1"/><stop offset="1" style="stop-color:#fff;stop-opacity:1"/></linearGradient><linearGradient id="t"><stop offset="0" style="stop-color:#716666;stop-opacity:1"/><stop offset="1" style="stop-color:#716666;stop-opacity:0"/></linearGradient><linearGradient id="s"><stop offset="0" style="stop-color:#fff;stop-opacity:1"/><stop offset="1" style="stop-color:#5b5b5b;stop-opacity:1"/></linearGradient><linearGradient id="r"><stop offset="0" style="stop-color:#737373;stop-opacity:1"/><stop offset=".5" style="stop-color:#fff;stop-opacity:1"/><stop offset="1" style="stop-color:#737373;stop-opacity:1"/></linearGradient><linearGradient id="q"><stop offset="0" style="stop-color:#999;stop-opacity:1"/><stop offset="1" style="stop-color:#fff;stop-opacity:1"/></linearGradient><linearGradient id="p"><stop offset="0" style="stop-color:#999;stop-opacity:1"/><stop offset="1" style="stop-color:#fff;stop-opacity:1"/></linearGradient><linearGradient id="o"><stop offset="0" style="stop-color:#000;stop-opacity:1"/><stop offset="1" style="stop-color:#000;stop-opacity:0"/></linearGradient><linearGradient id="m"><stop offset="0" style="stop-color:#fff;stop-opacity:1"/><stop offset="1" style="stop-color:#fff;stop-opacity:0"/></linearGradient><linearGradient id="f"><stop offset="0" style="stop-color:#fff;stop-opacity:1"/><stop offset="1" style="stop-color:#fff;stop-opacity:0"/></linearGradient><linearGradient id="e"><stop offset="0" style="stop-color:#fff;stop-opacity:.789474"/><stop offset="1" style="stop-color:#000;stop-opacity:.0842105"/></linearGradient><linearGradient id="l"><stop offset="0" style="stop-color:#000;stop-opacity:1"/><stop offset="1" style="stop-color:#000;stop-opacity:0"/></linearGradient><linearGradient id="k"><stop offset="0" style="stop-color:#fff;stop-opacity:1"/><stop offset="1" style="stop-color:#fff;stop-opacity:0"/></linearGradient><linearGradient id="g"><stop offset="0" style="stop-color:#000;stop-opacity:1"/><stop offset=".801" style="stop-color:#000;stop-opacity:.498039"/><stop offset="1" style="stop-color:#000;stop-opacity:0"/></linearGradient><linearGradient id="d"><stop offset="0" style="stop-color:#fff;stop-opacity:0"/><stop offset="1" style="stop-color:#ffda55;stop-opacity:1"/></linearGradient><linearGradient id="j"><stop offset="0" style="stop-color:#f09f38;stop-opacity:1"/><stop offset="1" style="stop-color:#f09f38;stop-opacity:0"/></linearGradient><linearGradient id="a"><stop offset="0" style="stop-color:#fff;stop-opacity:0"/><stop offset="1" style="stop-color:#feff9c;stop-opacity:1"/></linearGradient><linearGradient id="c"><stop offset="0" style="stop-color:#f95;stop-opacity:1"/><stop offset="1" style="stop-color:#ff7f2a;stop-opacity:0"/></linearGradient><linearGradient id="i"><stop offset="0" style="stop-color:#49432c;stop-opacity:1"/><stop offset="1" style="stop-color:#d8d4b3;stop-opacity:1"/></linearGradient><linearGradient id="h"><stop offset="0" style="stop-color:#000;stop-opacity:1"/><stop offset=".335" style="stop-color:#000;stop-opacity:0"/><stop offset=".626" style="stop-color:#000;stop-opacity:0"/><stop offset="1" style="stop-color:#000;stop-opacity:1"/></linearGradient><linearGradient xlink:href="#m" id="n" x1="83.387" x2="80.197" y1="136.4" y2="337.623" gradientTransform="translate(-415.076 -814.239)" gradientUnits="userSpaceOnUse"/><linearGradient xlink:href="#r" id="A" x1="124.756" x2="145.021" y1="442.654" y2="442.654" gradientTransform="translate(-4)" gradientUnits="userSpaceOnUse"/><linearGradient xlink:href="#t" id="E" x1="-185.189" x2="354.908" y1="51.921" y2="51.921" gradientUnits="userSpaceOnUse"/><radialGradient xlink:href="#c" id="b" cx="-20.938" cy="-241.072" r="30.191" fx="-20.938" fy="-241.072" gradientTransform="matrix(.22122 6.3137 -1.25537 .04399 -301.856 -98.015)" gradientUnits="userSpaceOnUse"/><radialGradient xlink:href="#q" id="x" cx="130.725" cy="627.013" r="44.196" fx="130.725" fy="627.013" gradientTransform="matrix(0 -.3884 1.24385 0 -653.887 560.121)" gradientUnits="userSpaceOnUse"/><radialGradient xlink:href="#q" id="y" cx="130.725" cy="627.013" r="44.196" fx="130.725" fy="627.013" gradientTransform="matrix(0 -1.07815 1.24385 0 -653.887 650.29)" gradientUnits="userSpaceOnUse"/><radialGradient xlink:href="#q" id="z" cx="130.725" cy="627.013" r="44.196" fx="130.725" fy="627.013" gradientTransform="matrix(0 -.3884 1.24385 0 -653.887 560.121)" gradientUnits="userSpaceOnUse"/><radialGradient xlink:href="#s" id="B" cx="132.844" cy="358.61" r="29.628" fx="132.844" fy="358.61" gradientTransform="matrix(1.57697 -.11622 .0864 1.64562 -107.433 -216.11)" gradientUnits="userSpaceOnUse"/><radialGradient xlink:href="#s" id="C" cx="92.121" cy="403.133" r="22.516" fx="92.121" fy="403.133" gradientTransform="matrix(1.8719 0 0 3.08488 -80.321 -840.486)" gradientUnits="userSpaceOnUse"/><radialGradient xlink:href="#s" id="D" cx="151.869" cy="410.148" r="24.432" fx="151.869" fy="410.148" gradientTransform="matrix(2.81443 0 0 2.24226 -272.29 -509.513)" gradientUnits="userSpaceOnUse"/><radialGradient xlink:href="#s" id="F" cx="116.679" cy="388.825" r="19.061" fx="116.679" fy="388.825" gradientTransform="matrix(1.20423 -.20844 .36484 1.96338 -165.688 -350.266)" gradientUnits="userSpaceOnUse"/><radialGradient xlink:href="#u" id="G" cx="130.725" cy="627.013" r="44.196" fx="130.725" fy="627.013" gradientTransform="matrix(0 -.3884 1.24385 0 -653.887 560.121)" gradientUnits="userSpaceOnUse"/><radialGradient xlink:href="#v" id="H" cx="130.725" cy="627.013" r="44.196" fx="130.725" fy="627.013" gradientTransform="matrix(0 -.3884 1.24385 0 -653.887 560.121)" gradientUnits="userSpaceOnUse"/><radialGradient xlink:href="#w" id="I" cx="130.725" cy="627.013" r="44.196" fx="130.725" fy="627.013" gradientTransform="matrix(0 -.3884 1.24385 0 -653.887 560.121)" gradientUnits="userSpaceOnUse"/></defs><path d="M189.35 388.192a56.995 63.961 0 1 1-113.99 0 56.995 63.961 0 1 1 113.99 0z" style="fill:none;fill-rule:evenodd;stroke:#717171;stroke-width:.26488149px;stroke-linecap:butt;stroke-linejoin:miter;stroke-opacity:1" transform="matrix(3.9771 0 0 3.5837 -229.092 -1113.035)"/><path d="M169.719 503.449a43.696 13.299 0 1 1-87.393 0 43.696 13.299 0 1 1 87.393 0z" style="fill:#999;fill-rule:evenodd;stroke:none;stroke-width:1px;stroke-linecap:butt;stroke-linejoin:miter;stroke-opacity:1;display:inline" transform="matrix(3.83019 0 0 3.83019 -181.637 -1209.936)"/><path d="M169.719 503.449a43.696 13.299 0 1 1-87.393 0 43.696 13.299 0 1 1 87.393 0z" style="fill:url(#x);fill-opacity:1;fill-rule:evenodd;stroke:none;stroke-width:1px;stroke-linecap:butt;stroke-linejoin:miter;stroke-opacity:1;display:inline" transform="matrix(3.83019 0 0 3.83019 -181.637 -1225.257)"/><path d="M169.719 503.449a43.696 13.299 0 1 1-87.393 0 43.696 13.299 0 1 1 87.393 0z" style="fill:url(#y);fill-opacity:1;fill-rule:evenodd;stroke:#696969;stroke-width:.12767243;stroke-linecap:butt;stroke-linejoin:miter;stroke-miterlimit:4;stroke-dasharray:none;stroke-opacity:1;display:inline" transform="matrix(2.57414 0 0 5.95818 -36.384 -2721.088)"/><path d="M169.719 503.449a43.696 13.299 0 1 1-87.393 0 43.696 13.299 0 1 1 87.393 0z" style="fill:#b3b3b3;fill-rule:evenodd;stroke:none;stroke-width:1px;stroke-linecap:butt;stroke-linejoin:miter;stroke-opacity:1;display:inline" transform="matrix(1.76556 -.02412 -.26556 2.82048 224.58 -716.016)"/><path d="M169.719 503.449a43.696 13.299 0 1 1-87.393 0 43.696 13.299 0 1 1 87.393 0z" style="fill:url(#z);fill-opacity:1;fill-rule:evenodd;stroke:none;stroke-width:1px;stroke-linecap:butt;stroke-linejoin:miter;stroke-opacity:1;display:inline" transform="matrix(1.76556 -.02412 -.26556 2.82048 225.642 -727.297)"/><path d="M124.556 391.358h13.932l2.216 89.2c.33 4.179.883 8.357 2.332 13.206-4.068 3.787-17.022 3.582-24.071.41 1.732-6.92 2.121-9.138 2.286-13.594l3.305-89.222z" style="opacity:1;fill:url(#A);fill-opacity:1;fill-rule:nonzero;stroke:none;stroke-width:.5;stroke-miterlimit:4;stroke-dasharray:none;stroke-dashoffset:0;stroke-opacity:1" transform="matrix(3.83019 0 0 3.83019 -181.637 -1209.936)"/><path d="M154.421 359.853c0 7.87-11.057 8.524-20.354 16.998-4.316 3.933-2.822 5.642-9.311 5.642-16.08 0-29.131-10.71-29.131-23.907 0-13.196 13.05-23.906 29.13-23.906 8.187 0 14.964 4.705 20.614 8.508 6.4 4.307 9.052 10.187 9.052 16.665z" style="opacity:1;fill:url(#B);fill-opacity:1;fill-rule:evenodd;stroke:none;stroke-width:.45935735;stroke-linecap:butt;stroke-linejoin:miter;stroke-miterlimit:4;stroke-opacity:1" transform="matrix(4.53794 0 0 3.83019 -262.656 -1230.553)"/><path d="M83.099 372.834c6.753-2.181 10.944 8.881 21.267 15.987 4.792 3.298 5.767 1.305 7.898 7.904 5.279 16.352.374 32.591-10.949 36.25-11.323 3.657-24.797-6.645-30.076-22.997-2.688-8.324-.875-16.52.533-23.32 1.594-7.7 5.768-12.028 11.327-13.824z" style="opacity:1;fill:url(#C);fill-opacity:1;fill-rule:evenodd;stroke:none;stroke-width:.49999997;stroke-linecap:butt;stroke-linejoin:miter;stroke-miterlimit:4;stroke-opacity:1" transform="matrix(3.83019 0 0 3.83019 -181.637 -1209.936)"/><path d="M131.387 439.88c-6.794-3.56-1.432-15.164-3.763-28.505-1.082-6.194-3.358-5.438.12-12.075 8.618-16.445 24.856-24.947 36.246-18.977 11.39 5.97 13.64 24.16 5.023 40.606-4.387 8.372-12.08 13.174-18.391 17.232-7.147 4.596-13.643 4.65-19.235 1.72z" style="opacity:1;fill:url(#D);fill-opacity:1;fill-rule:evenodd;stroke:none;stroke-width:.49999994;stroke-linecap:butt;stroke-linejoin:miter;stroke-miterlimit:4;stroke-opacity:1" transform="matrix(3.83019 0 0 3.83019 -181.637 -1209.936)"/><path d="M189.35 388.192a56.995 63.961 0 1 1-113.99 0 56.995 63.961 0 1 1 113.99 0z" style="fill:none;fill-rule:evenodd;stroke:#696969;stroke-width:.23495945px;stroke-linecap:butt;stroke-linejoin:miter;stroke-opacity:1" transform="matrix(4.36216 0 0 4.15253 -282.366 -1333.854)"/><path d="M189.35 388.192a56.995 63.961 0 1 1-113.99 0 56.995 63.961 0 1 1 113.99 0z" style="fill:none;fill-rule:evenodd;stroke:#717171;stroke-width:.27226517px;stroke-linecap:butt;stroke-linejoin:miter;stroke-opacity:1" transform="matrix(3.76431 0 0 3.5837 -217.907 -1115.46)"/><path d="M316.64 189.343 113.454 69.903 309.13 201.286 112.475 71.375l188.53 141.442L111.419 72.794l180.87 151.115L110.29 74.156l172.713 160.373L109.092 75.456 273.174 244.65 107.827 76.692 262.83 254.241 106.499 77.86l145.498 185.417-146.885-184.32 135.594 192.777L103.67 79.98l125.32 199.61L102.175 80.926l114.7 205.896-116.242-205.03L204.4 293.41 99.048 82.577l92.55 216.757L97.425 83.278l81.08 221.304-82.738-220.69 69.386 225.244L94.078 84.42l57.503 228.567L92.364 84.857l45.462 231.263L90.63 85.205l33.297 233.325L88.88 85.461l21.04 234.748-22.8-234.583 8.724 235.527L85.352 85.698 81.74 321.359l1.845-235.682-15.942 235.15L81.819 85.564 53.592 319.557l26.47-234.198-40.434 232.195L78.319 85.062l-52.531 229.76L76.594 84.676 12.109 311.37 74.891 84.197l-76.26 223.01L73.215 83.632l-87.827 218.714L71.572 82.978l-99.154 213.818L69.964 82.24-40.243 290.576 68.398 81.419l-120.96 202.282L66.877 80.517-64.504 276.191 65.405 79.537l-141.442 188.53L63.986 78.481-87.129 259.35 62.625 77.351-97.75 250.065 61.324 76.154l-169.193 164.082L60.088 74.89-117.46 229.89 58.92 73.561l-185.417 145.498L57.823 72.174l-192.778 135.594L56.8 70.731l-199.61 125.32L55.854 69.237l-205.895 114.7L54.988 67.696l-211.616 103.768L54.203 66.11l-216.757 92.55L53.503 64.487l-221.304 81.08 220.69-82.738-225.245 69.386L52.361 61.14l-228.566 57.503L51.923 59.426l-231.263 45.462L51.576 57.692-181.75 90.99 51.32 55.942l-234.749 21.04 234.584-22.8-235.528 8.724L51.083 52.414l-235.662-3.613 235.682 1.845-235.15-15.942L51.217 48.88l-233.993-28.227 234.198 26.47L-180.773 6.69 51.718 45.38-178.042-7.15 52.106 43.656-174.59-20.83 52.583 41.953l-223.01-76.26L53.149 40.277-165.564-47.55 53.802 38.634-160.015-60.52 54.54 37.026-153.795-73.18 55.361 35.46-146.92-85.5 56.263 33.939-139.41-97.442 57.244 32.467l-188.53-141.442L58.3 31.048l-180.87-151.115L59.428 29.687l-172.712-160.374L60.626 28.386l-164.082-169.193L61.892 27.15-93.111-150.398 63.22 25.982-82.277-159.435 64.607 24.885-70.988-167.893 66.05 23.862l-125.32-199.61L67.544 22.916-47.157-182.979 69.086 22.05-34.683-189.566 70.671 21.265-21.88-195.492 72.294 20.565-8.786-200.74 73.954 19.95 4.566-205.295 75.641 19.423 18.138-209.144l59.216 228.13-45.462-231.264L79.088 18.638 45.792-214.688l35.046 233.07-21.04-234.749L82.6 18.217l-8.725-235.528L84.366 18.145l3.614-235.662-1.845 235.682 15.942-235.15L87.899 18.279l28.228-233.993-26.47 234.198L130.09-213.71 91.399 18.78l52.532-229.76L93.125 19.168l64.484-226.696L94.828 19.645l76.26-223.01L96.503 20.21l87.827-218.714L98.147 20.864 197.3-192.953 99.754 21.602l110.208-208.335L101.321 22.423l120.96-202.282L102.84 23.325l131.382-195.674-129.91 196.655 141.442-188.53L105.733 25.361l151.115-180.87L107.094 26.49l160.373-172.712-159.073 173.91 169.193-164.082L109.63 28.954 287.18-126.05l-176.38 156.33 185.417-145.498L111.896 31.67l192.777-135.595L112.918 33.112l199.61-125.32L113.865 34.606 319.76-80.095 114.73 36.148 326.348-67.621 115.515 37.733l216.757-92.551-216.056 94.174 221.304-81.08-220.69 82.739 225.244-69.387-224.717 71.075L345.924-14.8 117.795 44.416 349.058-1.046 118.143 46.15l233.325-33.296L118.4 47.9l234.748-21.04-234.583 22.801 235.527-8.725-235.455 10.492 235.661 3.614-235.682-1.846 235.15 15.943L118.502 54.96 352.495 83.19 118.297 56.718l232.195 40.435L118 58.46l229.76 52.532-230.147-50.806 226.696 64.484L117.135 61.89l223.01 76.26L116.57 63.565l218.714 87.827L115.916 65.21l213.818 99.153-214.556-97.546 208.336 110.208L114.357 68.382l202.282 120.96z" style="opacity:1;fill:#b3b3b3;fill-opacity:1;fill-rule:nonzero;stroke:url(#E);stroke-width:.31877306;stroke-miterlimit:4;stroke-dasharray:none;stroke-dashoffset:0;stroke-opacity:1" transform="matrix(.92328 0 0 .95929 215.655 224.45)"/><path d="M135.522 388.825a18.84 19.632 0 1 1-37.68 0 18.84 19.632 0 1 1 37.68 0z" style="opacity:1;fill:url(#F);fill-opacity:1;fill-rule:evenodd;stroke:none;stroke-width:.44132766;stroke-linecap:butt;stroke-linejoin:miter;stroke-miterlimit:4;stroke-dasharray:none;stroke-opacity:1" transform="matrix(4.26308 0 0 4.41707 -234.907 -1444.801)"/><path d="M169.719 503.449a43.696 13.299 0 1 1-87.393 0 43.696 13.299 0 1 1 87.393 0z" style="fill:#b3b3b3;fill-rule:evenodd;stroke:none;stroke-width:1px;stroke-linecap:butt;stroke-linejoin:miter;stroke-opacity:1;display:inline" transform="matrix(.22354 -.0056 -.03362 .65427 258.339 370.12)"/><path d="M169.719 503.449a43.696 13.299 0 1 1-87.393 0 43.696 13.299 0 1 1 87.393 0z" style="fill:url(#G);fill-opacity:1;fill-rule:evenodd;stroke:none;stroke-width:1px;stroke-linecap:butt;stroke-linejoin:miter;stroke-opacity:1;display:inline" transform="matrix(.22354 -.0056 -.03362 .65427 258.473 367.502)"/><path d="M169.719 503.449a43.696 13.299 0 1 1-87.393 0 43.696 13.299 0 1 1 87.393 0z" style="fill:#b3b3b3;fill-rule:evenodd;stroke:none;stroke-width:1px;stroke-linecap:butt;stroke-linejoin:miter;stroke-opacity:1;display:inline" transform="matrix(.22354 -.0056 -.03362 .65427 303.818 379.821)"/><path d="M169.719 503.449a43.696 13.299 0 1 1-87.393 0 43.696 13.299 0 1 1 87.393 0z" style="fill:url(#H);fill-opacity:1;fill-rule:evenodd;stroke:none;stroke-width:1px;stroke-linecap:butt;stroke-linejoin:miter;stroke-opacity:1;display:inline" transform="matrix(.22354 -.0056 -.03362 .65427 303.953 377.204)"/><path d="M169.719 503.449a43.696 13.299 0 1 1-87.393 0 43.696 13.299 0 1 1 87.393 0z" style="fill:#b3b3b3;fill-rule:evenodd;stroke:none;stroke-width:1px;stroke-linecap:butt;stroke-linejoin:miter;stroke-opacity:1;display:inline" transform="matrix(.22354 -.0056 -.03362 .65427 354.149 370.119)"/><path d="M169.719 503.449a43.696 13.299 0 1 1-87.393 0 43.696 13.299 0 1 1 87.393 0z" style="fill:url(#I);fill-opacity:1;fill-rule:evenodd;stroke:none;stroke-width:1px;stroke-linecap:butt;stroke-linejoin:miter;stroke-opacity:1;display:inline" transform="matrix(.22354 -.0056 -.03362 .65427 354.283 367.502)"/></svg>