<?xml version="1.0" encoding="UTF-8" standalone="no"?>
<!-- Created with Inkscape (http://www.inkscape.org/) -->

<svg
   xmlns:dc="http://purl.org/dc/elements/1.1/"
   xmlns:cc="http://creativecommons.org/ns#"
   xmlns:rdf="http://www.w3.org/1999/02/22-rdf-syntax-ns#"
   xmlns:svg="http://www.w3.org/2000/svg"
   xmlns="http://www.w3.org/2000/svg"
   xmlns:sodipodi="http://sodipodi.sourceforge.net/DTD/sodipodi-0.dtd"
   xmlns:inkscape="http://www.inkscape.org/namespaces/inkscape"
   width="462.59131"
   height="631.30914"
   id="svg11248"
   version="1.1"
   inkscape:version="0.48.5 r10040"
   sodipodi:docname="New document 4">
  <defs
     id="defs11250" />
  <sodipodi:namedview
     id="base"
     pagecolor="#ffffff"
     bordercolor="#666666"
     borderopacity="1.0"
     inkscape:pageopacity="0.0"
     inkscape:pageshadow="2"
     inkscape:zoom="0.7"
     inkscape:cx="294.46369"
     inkscape:cy="335.91842"
     inkscape:document-units="px"
     inkscape:current-layer="layer1"
     showgrid="false"
     fit-margin-top="0"
     fit-margin-left="0"
     fit-margin-right="0"
     fit-margin-bottom="0"
     inkscape:window-width="1362"
     inkscape:window-height="729"
     inkscape:window-x="0"
     inkscape:window-y="18"
     inkscape:window-maximized="0" />
  <metadata
     id="metadata11253">
    <rdf:RDF>
      <cc:Work
         rdf:about="">
        <dc:format>image/svg+xml</dc:format>
        <dc:type
           rdf:resource="http://purl.org/dc/dcmitype/StillImage" />
        <dc:title></dc:title>
      </cc:Work>
    </rdf:RDF>
  </metadata>
  <g
     inkscape:label="Layer 1"
     inkscape:groupmode="layer"
     id="layer1"
     transform="translate(-260.1329,-79.564724)">
    <rect
       style="fill:#414d5b;fill-opacity:1;fill-rule:nonzero;stroke:none"
       id="rect11036"
       width="462.5799"
       height="631.18384"
       x="260.13293"
       y="79.689705"
       ry="10"
       rx="10" />
    <path
       style="fill:#333c45;fill-opacity:1;stroke:none"
       d="m 336.50948,472.01841 0,35.6662 -39.2688,33.8649 0,65.9284 35.8463,35.8464 0,26.8397 285.5098,0 60.3443,-60.3444 0,-66.4688 -36.8371,-36.8372 0,-34.4952 z"
       id="path11038"
       inkscape:connector-curvature="0"
       sodipodi:nodetypes="cccccccccccc" />
    <path
       style="fill:#eaeaea;fill-opacity:1;stroke:none"
       d="m 518.83658,541.83781 0,27.7658 -28.5315,0 0,83.5567 112.3426,0 37.8298,-37.8299 0,-48.0193 17.7686,-17.7686 -23.8824,-23.8824 -16.9405,16.1777 z"
       id="path11042"
       inkscape:connector-curvature="0"
       sodipodi:nodetypes="ccccccccccc" />
    <path
       style="fill:#eaeaea;fill-opacity:1;stroke:none"
       d="m 311.29088,535.78531 0,67.3695 56.0212,56.0211 68.2702,0 0,-40.1696 -64.8476,0 -19.8146,-19.8144 0,-63.4066 z"
       id="path11045"
       inkscape:connector-curvature="0"
       sodipodi:nodetypes="ccccccccc" />
    <path
       sodipodi:type="arc"
       style="fill:#eaeaea;fill-opacity:1;fill-rule:nonzero;stroke:#333c45;stroke-width:4.70598698;stroke-miterlimit:4;stroke-opacity:1;stroke-dasharray:none"
       id="path11047"
       sodipodi:cx="-5889.75"
       sodipodi:cy="-4606.25"
       sodipodi:rx="67.25"
       sodipodi:ry="67.25"
       d="m -5822.5,-4606.25 c 0,37.1411 -30.1089,67.25 -67.25,67.25 -37.1411,0 -67.25,-30.1089 -67.25,-67.25 0,-37.1411 30.1089,-67.25 67.25,-67.25 37.1411,0 67.25,30.1089 67.25,67.25 z"
       transform="matrix(3.187429,0,0,3.187429,19262.69,14995.327)" />
    <path
       sodipodi:type="arc"
       style="fill:#eaeaea;fill-opacity:1;fill-rule:nonzero;stroke:#333c45;stroke-width:12.22727299;stroke-miterlimit:4;stroke-opacity:1;stroke-dasharray:none"
       id="path11049"
       sodipodi:cx="-5889.75"
       sodipodi:cy="-4606.25"
       sodipodi:rx="67.25"
       sodipodi:ry="67.25"
       d="m -5822.5,-4606.25 c 0,37.1411 -30.1089,67.25 -67.25,67.25 -37.1411,0 -67.25,-30.1089 -67.25,-67.25 0,-37.1411 30.1089,-67.25 67.25,-67.25 37.1411,0 67.25,30.1089 67.25,67.25 z"
       transform="matrix(0.81784386,0,0,0.81784386,5306.4261,4080.4251)" />
    <path
       sodipodi:type="arc"
       style="fill:#f9794c;fill-opacity:1;fill-rule:nonzero;stroke:none"
       id="path11051"
       sodipodi:cx="-5960"
       sodipodi:cy="-4506.6875"
       sodipodi:rx="7.5625"
       sodipodi:ry="7.5625"
       d="m -5952.4375,-4506.6875 c 0,4.1767 -3.3858,7.5625 -7.5625,7.5625 -4.1767,0 -7.5625,-3.3858 -7.5625,-7.5625 0,-4.1767 3.3858,-7.5625 7.5625,-7.5625 4.1767,0 7.5625,3.3858 7.5625,7.5625 z"
       transform="matrix(4.8829271,0,0,4.8829271,29486.67,22593.13)" />
    <path
       style="fill:#f9794c;fill-opacity:1;stroke:none"
       d="m 554.46978,419.78001 -144.6591,194.3395 -52.2033,-52.2035 z"
       id="path11053"
       inkscape:connector-curvature="0"
       inkscape:transform-center-x="-67.882251"
       inkscape:transform-center-y="-69.296465" />
    <path
       sodipodi:type="arc"
       style="fill:#eaeaea;fill-opacity:1;fill-rule:nonzero;stroke:#333c45;stroke-width:1.15911508;stroke-miterlimit:4;stroke-opacity:1;stroke-dasharray:none"
       id="path11055"
       sodipodi:cx="-5960"
       sodipodi:cy="-4506.6875"
       sodipodi:rx="7.5625"
       sodipodi:ry="7.5625"
       d="m -5952.4375,-4506.6875 c 0,4.1767 -3.3858,7.5625 -7.5625,7.5625 -4.1767,0 -7.5625,-3.3858 -7.5625,-7.5625 0,-4.1767 3.3858,-7.5625 7.5625,-7.5625 4.1767,0 7.5625,3.3858 7.5625,7.5625 z"
       transform="matrix(3.4509084,0,0,3.4509084,20951.838,16139.469)" />
    <path
       style="fill:#f9cd54;fill-opacity:1;stroke:none"
       d="m 552.20808,548.71451 0,44.3257 -52.9869,0 0,51.7136 99.0959,0 33.3717,-33.3719 0,-18.851 -25.9841,0 0,-43.8164 z"
       id="path11057"
       inkscape:connector-curvature="0"
       sodipodi:nodetypes="cccccccccc" />
    <rect
       style="fill:#3e3e40;fill-opacity:1;fill-rule:nonzero;stroke:none"
       id="rect11059"
       width="29.361576"
       height="29.901972"
       x="564.27551"
       y="555.67114" />
    <path
       transform="matrix(2.8821179,0,0,2.8821179,17559.96,13576.481)"
       sodipodi:type="arc"
       style="fill:#76a8d4;fill-opacity:1;fill-rule:nonzero;stroke:none"
       id="path11062"
       sodipodi:cx="-5917.644"
       sodipodi:cy="-4508.8921"
       sodipodi:rx="2.1655145"
       sodipodi:ry="2.1655145"
       d="m -5915.4785,-4508.8921 c 0,1.196 -0.9696,2.1655 -2.1655,2.1655 -1.196,0 -2.1656,-0.9695 -2.1656,-2.1655 0,-1.196 0.9696,-2.1655 2.1656,-2.1655 1.1959,0 2.1655,0.9695 2.1655,2.1655 z" />
    <path
       d="m -5915.4785,-4508.8921 c 0,1.196 -0.9696,2.1655 -2.1655,2.1655 -1.196,0 -2.1656,-0.9695 -2.1656,-2.1655 0,-1.196 0.9696,-2.1655 2.1656,-2.1655 1.1959,0 2.1655,0.9695 2.1655,2.1655 z"
       sodipodi:ry="2.1655145"
       sodipodi:rx="2.1655145"
       sodipodi:cy="-4508.8921"
       sodipodi:cx="-5917.644"
       id="path11065"
       style="fill:#76a8d4;fill-opacity:1;fill-rule:nonzero;stroke:none"
       sodipodi:type="arc"
       transform="matrix(2.8821179,0,0,2.8821179,17691.848,13542.296)" />
    <g
       transform="matrix(-1,0,0,1,-4012.4724,6304.2598)"
       id="g11089">
      <g
         style="fill:#eaeaea;fill-opacity:1"
         id="g11091"
         transform="matrix(2.8821179,0,0,2.8821179,12565.448,7645.2124)">
        <path
           inkscape:connector-curvature="0"
           style="fill:#eaeaea;fill-opacity:1;fill-rule:nonzero;stroke:none"
           d="m -4302.875,-6966.4375 c -8.7807,0 -15.9063,7.1255 -15.9062,15.9063 0,8.7807 7.1255,15.9062 15.9062,15.9062 l 30.2812,0 0,-31.8125 -30.2812,0 z"
           transform="matrix(-0.34696707,0,0,0.34696707,-7485.2033,-2258.3505)"
           id="rect11093" />
      </g>
      <path
         transform="matrix(3.9132938,0,0,3.9132938,18734.2,12451.798)"
         d="m -5987.671,-4667.6646 c 0,1.2645 -1.025,2.2895 -2.2894,2.2895 -1.2645,0 -2.2895,-1.025 -2.2895,-2.2895 0,-1.2644 1.025,-2.2894 2.2895,-2.2894 1.2644,0 2.2894,1.025 2.2894,2.2894 z"
         sodipodi:ry="2.2894223"
         sodipodi:rx="2.2894223"
         sodipodi:cy="-4667.6646"
         sodipodi:cx="-5989.9604"
         id="path11097"
         style="fill:#353c46;fill-opacity:1;fill-rule:nonzero;stroke:none"
         sodipodi:type="arc" />
    </g>
    <path
       style="fill:none;stroke:#fab82e;stroke-width:4.84193087;stroke-linecap:round;stroke-linejoin:round;stroke-miterlimit:4;stroke-opacity:1;stroke-dasharray:none"
       d="m 534.91288,592.01131 c 0,0 -52.2205,-83.9328 -114.2875,11.3002"
       id="path11102"
       inkscape:connector-curvature="0"
       sodipodi:nodetypes="cc" />
    <path
       transform="matrix(2.8821179,0,0,2.8821179,17544.878,13273.391)"
       sodipodi:type="arc"
       style="fill:#cccccc;fill-opacity:1;fill-rule:nonzero;stroke:none"
       id="path11105"
       sodipodi:cx="-5917.644"
       sodipodi:cy="-4508.8921"
       sodipodi:rx="2.1655145"
       sodipodi:ry="2.1655145"
       d="m -5915.4785,-4508.8921 c 0,1.196 -0.9696,2.1655 -2.1655,2.1655 -1.196,0 -2.1656,-0.9695 -2.1656,-2.1655 0,-1.196 0.9696,-2.1655 2.1656,-2.1655 1.1959,0 2.1655,0.9695 2.1655,2.1655 z" />
    <path
       d="m -5915.4785,-4508.8921 c 0,1.196 -0.9696,2.1655 -2.1655,2.1655 -1.196,0 -2.1656,-0.9695 -2.1656,-2.1655 0,-1.196 0.9696,-2.1655 2.1656,-2.1655 1.1959,0 2.1655,0.9695 2.1655,2.1655 z"
       sodipodi:ry="2.1655145"
       sodipodi:rx="2.1655145"
       sodipodi:cy="-4508.8921"
       sodipodi:cx="-5917.644"
       id="path11107"
       style="fill:#76a8d4;fill-opacity:1;fill-rule:nonzero;stroke:none"
       sodipodi:type="arc"
       transform="matrix(2.8821179,0,0,2.8821179,17543.166,13343.54)" />
    <path
       inkscape:transform-center-x="-34.999423"
       inkscape:transform-center-y="-0.00011176152"
       d="m -5915.4785,-4508.8921 c 0,1.196 -0.9696,2.1655 -2.1655,2.1655 -1.196,0 -2.1656,-0.9695 -2.1656,-2.1655 0,-1.196 0.9696,-2.1655 2.1656,-2.1655 1.1959,0 2.1655,0.9695 2.1655,2.1655 z"
       sodipodi:ry="2.1655145"
       sodipodi:rx="2.1655145"
       sodipodi:cy="-4508.8921"
       sodipodi:cx="-5917.644"
       id="path11110"
       style="fill:#76a8d4;fill-opacity:1;fill-rule:nonzero;stroke:none"
       sodipodi:type="arc"
       transform="matrix(0,2.8821179,-2.8821179,0,-12470.629,17368.58)" />
    <path
       inkscape:transform-center-x="34.99928"
       inkscape:transform-center-y="-0.00046723847"
       d="m -5915.4785,-4508.8921 c 0,1.196 -0.9696,2.1655 -2.1655,2.1655 -1.196,0 -2.1656,-0.9695 -2.1656,-2.1655 0,-1.196 0.9696,-2.1655 2.1656,-2.1655 1.1959,0 2.1655,0.9695 2.1655,2.1655 z"
       sodipodi:ry="2.1655145"
       sodipodi:rx="2.1655145"
       sodipodi:cy="-4508.8921"
       sodipodi:cx="-5917.644"
       id="path11114"
       style="fill:#76a8d4;fill-opacity:1;fill-rule:nonzero;stroke:none"
       sodipodi:type="arc"
       transform="matrix(0,-2.8821179,2.8821179,0,13449.69,-16742.117)" />
    <path
       d="m -5915.4785,-4508.8921 c 0,1.196 -0.9696,2.1655 -2.1655,2.1655 -1.196,0 -2.1656,-0.9695 -2.1656,-2.1655 0,-1.196 0.9696,-2.1655 2.1656,-2.1655 1.1959,0 2.1655,0.9695 2.1655,2.1655 z"
       sodipodi:ry="2.1655145"
       sodipodi:rx="2.1655145"
       sodipodi:cy="-4508.8921"
       sodipodi:cx="-5917.644"
       id="path11118"
       style="fill:#76a8d4;fill-opacity:1;fill-rule:nonzero;stroke:none"
       sodipodi:type="arc"
       transform="matrix(2.8821179,0,0,2.8821179,17544.878,13273.391)" />
    <g
       id="g11120"
       transform="matrix(0,1,1,0,6516.7671,4810.6757)">
      <g
         transform="matrix(2.0379651,-2.0379651,2.0379651,2.0379651,17022.519,-8513.1716)"
         id="g11123"
         style="fill:#eaeaea;fill-opacity:1">
        <path
           style="fill:#eaeaea;fill-opacity:1;fill-rule:nonzero;stroke:none"
           d="m -4298.6562,-7356.7812 c -8.7807,0 -15.9063,7.1255 -15.9063,15.9062 0,8.7704 7.1085,15.8895 15.875,15.9062 6.164,0 12.3339,0 18.5,0 l 8.8125,-8.8124 c 1.9587,-1.9587 2.9688,-4.5377 2.9688,-7.0938 0,-2.5562 -1.0101,-5.1038 -2.9688,-7.0625 l -8.8125,-8.8125 z"
           transform="matrix(-0.34696707,0,0,0.34696707,-7483.7515,-2122.9129)"
           id="path11126"
           inkscape:connector-curvature="0"
           sodipodi:nodetypes="csccssscc" />
      </g>
      <path
         sodipodi:type="arc"
         style="fill:#353c46;fill-opacity:1;fill-rule:nonzero;stroke:none"
         id="path11134"
         sodipodi:cx="-5989.9604"
         sodipodi:cy="-4667.6646"
         sodipodi:rx="2.2894223"
         sodipodi:ry="2.2894223"
         d="m -5987.671,-4667.6646 c 0,1.2645 -1.025,2.2895 -2.2894,2.2895 -1.2645,0 -2.2895,-1.025 -2.2895,-2.2895 0,-1.2644 1.025,-2.2894 2.2895,-2.2894 1.2644,0 2.2894,1.025 2.2894,2.2894 z"
         transform="matrix(2.7671166,-2.7671166,2.7671166,2.7671166,24783.255,-9476.3687)" />
    </g>
    <g
       id="g11160"
       transform="translate(4995.3295,6304.2598)">
      <g
         transform="matrix(2.8821179,0,0,2.8821179,12565.448,7645.2124)"
         id="g11163"
         style="fill:#eaeaea;fill-opacity:1">
        <path
           id="path11165"
           transform="matrix(-0.34696707,0,0,0.34696707,-7485.2033,-2258.3505)"
           d="m -4302.875,-6966.4375 c -8.7807,0 -15.9063,7.1255 -15.9062,15.9063 0,8.7807 7.1255,15.9062 15.9062,15.9062 l 30.2812,0 0,-31.8125 -30.2812,0 z"
           style="fill:#eaeaea;fill-opacity:1;fill-rule:nonzero;stroke:none"
           inkscape:connector-curvature="0" />
      </g>
      <path
         sodipodi:type="arc"
         style="fill:#353c46;fill-opacity:1;fill-rule:nonzero;stroke:none"
         id="path11167"
         sodipodi:cx="-5989.9604"
         sodipodi:cy="-4667.6646"
         sodipodi:rx="2.2894223"
         sodipodi:ry="2.2894223"
         d="m -5987.671,-4667.6646 c 0,1.2645 -1.025,2.2895 -2.2894,2.2895 -1.2645,0 -2.2895,-1.025 -2.2895,-2.2895 0,-1.2644 1.025,-2.2894 2.2895,-2.2894 1.2644,0 2.2894,1.025 2.2894,2.2894 z"
         transform="matrix(3.9132938,0,0,3.9132938,18734.2,12451.798)" />
    </g>
    <g
       transform="matrix(0,1,-1,0,-5533.921,4810.5507)"
       id="g11171">
      <g
         style="fill:#eaeaea;fill-opacity:1"
         id="g11173"
         transform="matrix(2.0379651,-2.0379651,2.0379651,2.0379651,17022.519,-8513.1716)">
        <path
           sodipodi:nodetypes="csccssscc"
           inkscape:connector-curvature="0"
           id="path11175"
           transform="matrix(-0.34696707,0,0,0.34696707,-7483.7515,-2122.9129)"
           d="m -4298.6562,-7356.7812 c -8.7807,0 -15.9063,7.1255 -15.9063,15.9062 0,8.7704 7.1085,15.8895 15.875,15.9062 6.164,0 12.3339,0 18.5,0 l 8.8125,-8.8124 c 1.9587,-1.9587 2.9688,-4.5377 2.9688,-7.0938 0,-2.5562 -1.0101,-5.1038 -2.9688,-7.0625 l -8.8125,-8.8125 z"
           style="fill:#eaeaea;fill-opacity:1;fill-rule:nonzero;stroke:none" />
      </g>
      <path
         transform="matrix(2.7671166,-2.7671166,2.7671166,2.7671166,24783.255,-9476.3687)"
         d="m -5987.671,-4667.6646 c 0,1.2645 -1.025,2.2895 -2.2894,2.2895 -1.2645,0 -2.2895,-1.025 -2.2895,-2.2895 0,-1.2644 1.025,-2.2894 2.2895,-2.2894 1.2644,0 2.2894,1.025 2.2894,2.2894 z"
         sodipodi:ry="2.2894223"
         sodipodi:rx="2.2894223"
         sodipodi:cy="-4667.6646"
         sodipodi:cx="-5989.9604"
         id="path11177"
         style="fill:#353c46;fill-opacity:1;fill-rule:nonzero;stroke:none"
         sodipodi:type="arc" />
    </g>
    <g
       transform="matrix(0,-1,1,0,6516.7671,-4020.1121)"
       id="g11179">
      <g
         style="fill:#eaeaea;fill-opacity:1"
         id="g11181"
         transform="matrix(2.0379651,-2.0379651,2.0379651,2.0379651,17022.519,-8513.1716)">
        <path
           sodipodi:nodetypes="csccssscc"
           inkscape:connector-curvature="0"
           id="path11183"
           transform="matrix(-0.34696707,0,0,0.34696707,-7483.7515,-2122.9129)"
           d="m -4298.6562,-7356.7812 c -8.7807,0 -15.9063,7.1255 -15.9063,15.9062 0,8.7704 7.1085,15.8895 15.875,15.9062 6.164,0 12.3339,0 18.5,0 l 8.8125,-8.8124 c 1.9587,-1.9587 2.9688,-4.5377 2.9688,-7.0938 0,-2.5562 -1.0101,-5.1038 -2.9688,-7.0625 l -8.8125,-8.8125 z"
           style="fill:#eaeaea;fill-opacity:1;fill-rule:nonzero;stroke:none" />
      </g>
      <path
         transform="matrix(2.7671166,-2.7671166,2.7671166,2.7671166,24783.255,-9476.3687)"
         d="m -5987.671,-4667.6646 c 0,1.2645 -1.025,2.2895 -2.2894,2.2895 -1.2645,0 -2.2895,-1.025 -2.2895,-2.2895 0,-1.2644 1.025,-2.2894 2.2895,-2.2894 1.2644,0 2.2894,1.025 2.2894,2.2894 z"
         sodipodi:ry="2.2894223"
         sodipodi:rx="2.2894223"
         sodipodi:cy="-4667.6646"
         sodipodi:cx="-5989.9604"
         id="path11185"
         style="fill:#353c46;fill-opacity:1;fill-rule:nonzero;stroke:none"
         sodipodi:type="arc" />
    </g>
    <g
       id="g11187"
       transform="matrix(0,-1,-1,0,-5533.921,-4020.1121)">
      <g
         transform="matrix(2.0379651,-2.0379651,2.0379651,2.0379651,17022.519,-8513.1716)"
         id="g11189"
         style="fill:#eaeaea;fill-opacity:1">
        <path
           style="fill:#eaeaea;fill-opacity:1;fill-rule:nonzero;stroke:none"
           d="m -4298.6562,-7356.7812 c -8.7807,0 -15.9063,7.1255 -15.9063,15.9062 0,8.7704 7.1085,15.8895 15.875,15.9062 6.164,0 12.3339,0 18.5,0 l 8.8125,-8.8124 c 1.9587,-1.9587 2.9688,-4.5377 2.9688,-7.0938 0,-2.5562 -1.0101,-5.1038 -2.9688,-7.0625 l -8.8125,-8.8125 z"
           transform="matrix(-0.34696707,0,0,0.34696707,-7483.7515,-2122.9129)"
           id="path11191"
           inkscape:connector-curvature="0"
           sodipodi:nodetypes="csccssscc" />
      </g>
      <path
         sodipodi:type="arc"
         style="fill:#353c46;fill-opacity:1;fill-rule:nonzero;stroke:none"
         id="path11193"
         sodipodi:cx="-5989.9604"
         sodipodi:cy="-4667.6646"
         sodipodi:rx="2.2894223"
         sodipodi:ry="2.2894223"
         d="m -5987.671,-4667.6646 c 0,1.2645 -1.025,2.2895 -2.2894,2.2895 -1.2645,0 -2.2895,-1.025 -2.2895,-2.2895 0,-1.2644 1.025,-2.2894 2.2895,-2.2894 1.2644,0 2.2894,1.025 2.2894,2.2894 z"
         transform="matrix(2.7671166,-2.7671166,2.7671166,2.7671166,24783.255,-9476.3687)" />
    </g>
  </g>
</svg>
