<svg xmlns="http://www.w3.org/2000/svg" width="462.591" height="631.309"><g transform="translate(-260.133 -79.565)"><rect width="462.58" height="631.184" x="260.133" y="79.69" rx="10" ry="10" style="fill:#414d5b;fill-opacity:1;fill-rule:nonzero;stroke:none"/><path d="M336.51 472.018v35.667l-39.27 33.865v65.928l35.847 35.846v26.84h285.51l60.344-60.344v-66.47l-36.837-36.836v-34.496z" style="fill:#333c45;fill-opacity:1;stroke:none"/><path d="M518.837 541.838v27.766h-28.532v83.556h112.343l37.83-37.83v-48.019l17.768-17.768-23.882-23.883-16.94 16.178zM311.29 535.785v67.37l56.022 56.02h68.27v-40.169h-64.847l-19.815-19.814v-63.407z" style="fill:#eaeaea;fill-opacity:1;stroke:none"/><path d="M-5822.5-4606.25c0 37.141-30.109 67.25-67.25 67.25s-67.25-30.109-67.25-67.25 30.109-67.25 67.25-67.25 67.25 30.109 67.25 67.25z" style="fill:#eaeaea;fill-opacity:1;fill-rule:nonzero;stroke:#333c45;stroke-width:4.70598698;stroke-miterlimit:4;stroke-opacity:1;stroke-dasharray:none" transform="matrix(3.18743 0 0 3.18743 19262.69 14995.327)"/><path d="M-5822.5-4606.25c0 37.141-30.109 67.25-67.25 67.25s-67.25-30.109-67.25-67.25 30.109-67.25 67.25-67.25 67.25 30.109 67.25 67.25z" style="fill:#eaeaea;fill-opacity:1;fill-rule:nonzero;stroke:#333c45;stroke-width:12.22727299;stroke-miterlimit:4;stroke-opacity:1;stroke-dasharray:none" transform="matrix(.81784 0 0 .81784 5306.426 4080.425)"/><path d="M-5952.438-4506.688a7.562 7.562 0 1 1-15.124 0 7.562 7.562 0 0 1 15.124 0z" style="fill:#f9794c;fill-opacity:1;fill-rule:nonzero;stroke:none" transform="matrix(4.88293 0 0 4.88293 29486.67 22593.13)"/><path d="M554.47 419.78 409.81 614.12l-52.203-52.204z" style="fill:#f9794c;fill-opacity:1;stroke:none"/><path d="M-5952.438-4506.688a7.562 7.562 0 1 1-15.124 0 7.562 7.562 0 0 1 15.124 0z" style="fill:#eaeaea;fill-opacity:1;fill-rule:nonzero;stroke:#333c45;stroke-width:1.15911508;stroke-miterlimit:4;stroke-opacity:1;stroke-dasharray:none" transform="matrix(3.4509 0 0 3.4509 20951.838 16139.469)"/><path d="M552.208 548.715v44.325h-52.987v51.714h99.096l33.372-33.372V592.53h-25.984v-43.816z" style="fill:#f9cd54;fill-opacity:1;stroke:none"/><path d="M564.276 555.671h29.362v29.902h-29.362z" style="fill:#3e3e40;fill-opacity:1;fill-rule:nonzero;stroke:none"/><path d="M-5915.479-4508.892a2.166 2.166 0 1 1-4.33 0 2.166 2.166 0 0 1 4.33 0z" style="fill:#76a8d4;fill-opacity:1;fill-rule:nonzero;stroke:none" transform="matrix(2.88212 0 0 2.88212 17559.96 13576.481)"/><path d="M-5915.479-4508.892a2.166 2.166 0 1 1-4.33 0 2.166 2.166 0 0 1 4.33 0z" style="fill:#76a8d4;fill-opacity:1;fill-rule:nonzero;stroke:none" transform="matrix(2.88212 0 0 2.88212 17691.848 13542.296)"/><g style="fill:#eaeaea;fill-opacity:1"><path d="M-4302.875-6966.438c-8.78 0-15.906 7.126-15.906 15.907 0 8.78 7.125 15.906 15.906 15.906h30.281v-31.813h-30.281z" style="fill:#eaeaea;fill-opacity:1;fill-rule:nonzero;stroke:none" transform="translate(4995.318 7440.64)"/></g><path d="M-5987.671-4667.665a2.29 2.29 0 1 1-4.579 0 2.29 2.29 0 0 1 4.579 0z" style="fill:#353c46;fill-opacity:1;fill-rule:nonzero;stroke:none" transform="matrix(-3.9133 0 0 3.9133 -22746.672 18756.058)"/><path d="M534.913 592.011s-52.22-83.932-114.288 11.3" style="fill:none;stroke:#fab82e;stroke-width:4.84193087;stroke-linecap:round;stroke-linejoin:round;stroke-miterlimit:4;stroke-opacity:1;stroke-dasharray:none"/><path d="M-5915.479-4508.892a2.166 2.166 0 1 1-4.33 0 2.166 2.166 0 0 1 4.33 0z" style="fill:#ccc;fill-opacity:1;fill-rule:nonzero;stroke:none" transform="matrix(2.88212 0 0 2.88212 17544.878 13273.391)"/><path d="M-5915.479-4508.892a2.166 2.166 0 1 1-4.33 0 2.166 2.166 0 0 1 4.33 0z" style="fill:#76a8d4;fill-opacity:1;fill-rule:nonzero;stroke:none" transform="matrix(2.88212 0 0 2.88212 17543.166 13343.54)"/><path d="M-5915.479-4508.892a2.166 2.166 0 1 1-4.33 0 2.166 2.166 0 0 1 4.33 0z" style="fill:#76a8d4;fill-opacity:1;fill-rule:nonzero;stroke:none" transform="rotate(90 -14919.609 2448.982) scale(2.88212)"/><path d="M-5915.479-4508.892a2.166 2.166 0 1 1-4.33 0 2.166 2.166 0 0 1 4.33 0z" style="fill:#76a8d4;fill-opacity:1;fill-rule:nonzero;stroke:none" transform="rotate(-90 -1646.209 -15095.91) scale(2.88212)"/><path d="M-5915.479-4508.892a2.166 2.166 0 1 1-4.33 0 2.166 2.166 0 0 1 4.33 0z" style="fill:#76a8d4;fill-opacity:1;fill-rule:nonzero;stroke:none" transform="matrix(2.88212 0 0 2.88212 17544.878 13273.391)"/><g style="fill:#eaeaea;fill-opacity:1"><path d="M-4298.656-7356.781c-8.78 0-15.907 7.125-15.907 15.906 0 8.77 7.109 15.89 15.876 15.906h18.5l8.812-8.812a10.053 10.053 0 0 0 2.969-7.094c0-2.556-1.01-5.104-2.969-7.062l-8.813-8.813z" style="fill:#eaeaea;fill-opacity:1;fill-rule:nonzero;stroke:none" transform="rotate(-45 7186.603 -9650.438)"/></g><path d="M-5987.671-4667.665a2.29 2.29 0 1 1-4.579 0 2.29 2.29 0 0 1 4.579 0z" style="fill:#353c46;fill-opacity:1;fill-rule:nonzero;stroke:none" transform="scale(-3.9133 3.9133) rotate(45 -8750.489 4694.133)"/><g style="fill:#eaeaea;fill-opacity:1"><path d="M-4302.875-6966.438c-8.78 0-15.906 7.126-15.906 15.907 0 8.78 7.125 15.906 15.906 15.906h30.281v-31.813h-30.281z" style="fill:#eaeaea;fill-opacity:1;fill-rule:nonzero;stroke:none" transform="matrix(-1 0 0 1 -4012.46 7440.64)"/></g><path d="M-5987.671-4667.665a2.29 2.29 0 1 1-4.579 0 2.29 2.29 0 0 1 4.579 0z" style="fill:#353c46;fill-opacity:1;fill-rule:nonzero;stroke:none" transform="matrix(3.9133 0 0 3.9133 23729.53 18756.058)"/><g style="fill:#eaeaea;fill-opacity:1"><path d="M-4298.656-7356.781c-8.78 0-15.907 7.125-15.907 15.906 0 8.77 7.109 15.89 15.876 15.906h18.5l8.812-8.812a10.053 10.053 0 0 0 2.969-7.094c0-2.556-1.01-5.104-2.969-7.062l-8.813-8.813z" style="fill:#eaeaea;fill-opacity:1;fill-rule:nonzero;stroke:none" transform="scale(-1 1) rotate(-45 6695.03 -8464.1)"/></g><path d="M-5987.671-4667.665a2.29 2.29 0 1 1-4.579 0 2.29 2.29 0 0 1 4.579 0z" style="fill:#353c46;fill-opacity:1;fill-rule:nonzero;stroke:none" transform="scale(3.9133) rotate(45 -8624.872 4997.288)"/><g style="fill:#eaeaea;fill-opacity:1"><path d="M-4298.656-7356.781c-8.78 0-15.907 7.125-15.907 15.906 0 8.77 7.109 15.89 15.876 15.906h18.5l8.812-8.812a10.053 10.053 0 0 0 2.969-7.094c0-2.556-1.01-5.104-2.969-7.062l-8.813-8.813z" style="fill:#eaeaea;fill-opacity:1;fill-rule:nonzero;stroke:none" transform="scale(1 -1) rotate(-45 6232.308 -10045.72)"/></g><path d="M-5987.671-4667.665a2.29 2.29 0 1 1-4.579 0 2.29 2.29 0 0 1 4.579 0z" style="fill:#353c46;fill-opacity:1;fill-rule:nonzero;stroke:none" transform="scale(-3.9133) rotate(45 -8506.63 4593.123)"/><g style="fill:#eaeaea;fill-opacity:1"><path d="M-4298.656-7356.781c-8.78 0-15.907 7.125-15.907 15.906 0 8.77 7.109 15.89 15.876 15.906h18.5l8.812-8.812a10.053 10.053 0 0 0 2.969-7.094c0-2.556-1.01-5.104-2.969-7.062l-8.813-8.813z" style="fill:#eaeaea;fill-opacity:1;fill-rule:nonzero;stroke:none" transform="rotate(135 -3669.65 -2377.953)"/></g><path d="M-5987.671-4667.665a2.29 2.29 0 1 1-4.579 0 2.29 2.29 0 0 1 4.579 0z" style="fill:#353c46;fill-opacity:1;fill-rule:nonzero;stroke:none" transform="scale(3.9133 -3.9133) rotate(45 -8381.051 4896.294)"/></g></svg>