<svg xmlns="http://www.w3.org/2000/svg" xmlns:xlink="http://www.w3.org/1999/xlink" viewBox="0 0 691.77 361.11"><defs><linearGradient id="a"><stop offset="0" style="stop-color:#000"/><stop offset="1" style="stop-color:#000;stop-opacity:0"/></linearGradient><linearGradient xlink:href="#a" id="b" x1="-96.497" x2="-148.82" y1="176.83" y2="241" gradientTransform="translate(466.1 -114.87)" gradientUnits="userSpaceOnUse"/><linearGradient id="c" x1="-324.17" x2="-278.56" y1="10.774" y2="72.089" gradientTransform="translate(476.19 48.749)" gradientUnits="userSpaceOnUse"><stop offset="0" style="stop-color:#000"/><stop offset="1" style="stop-color:#666;stop-opacity:0"/></linearGradient><linearGradient xlink:href="#a" id="d" x1="-156.46" x2="-83.267" y1="440.75" y2="493" gradientUnits="userSpaceOnUse"/></defs><path d="M181.68 31.216c-22.139.345-43.336 8.421-55.562 26.5-17.429 26.92-15.921 73.893-3.156 109.81-6.363 8.322-8.228 20.914-10.406 32.656-14.69-12.501-45.525-32.716-75.125-22.5 39.57 1.986 64.169 23.529 71.594 28.781-4.856 2.153-17.525 15.362-20.5 19.531-10.557-15.924-35.928-21.055-56.094-6.969 5.967.007 29.539-10.657 54 11.406-27.553-2.274-33.571 33.25-11.375 44.656 15.999 23.981 39.925 42.502 76.78 52.594-1.352 6.335-16.472 25.351-22.718 36.094 9.236-8.34 24.597-25.56 28.812-36 7.464.418 29.76-2.297 38.094-6.406-2.019 13.12-14.66 37.604-20.312 49.594 8.606-2.296 25.332-40.241 27.78-51.938 7.756 7.177 14.379 12.037 24.032 16.844-10.566 22.274-12.662 27.842-18.812 36.844-1.566 4.42.449 7.057 6.344 8.344 2.406.525 30.235-.765 32.125-1.219-6.07 15.141 35.844 6.824 45.312 5.375 26.623 10.663 52.475 6.58 68.688 5.031 12.616-2.044 19.75-7.838 28.28-11.53 8.008-4.394 28.706-1.7 40.876 1.843 7.341 1.43 8.852 1.602 11.406 1.406 23.35-2.464 41.418-30.575 20.25-50.188 4.912-5.218 20.875-28.375 20.875-28.375 8.971 6.39 21.48 64.432 73.906 67.562 45.954-.378 73.87-65.546 114.59-87.156 28.28-.96 25.358 24.113 49.875 24.188 13.078-12.282-19.254-67.36-55.688-58-23.3 7.371-70.253 75.29-100.12 79.562-33.458 3.465-39.866-80.525-75.562-84.375-13.84-53.5-73.508-65.055-110.22-67.875 22.88-31.75 26.67-77.529 4.45-105.47-25.49-32.055-87.3-32.169-126.59-4.188-13.36-22.804-45.51-36.878-75.85-36.406zm4.531 9.25c21.518-.022 44.667 10.24 62.656 33.844-15.49 15.659-32.698 36.331-39.406 68.375-30.12-8.813-57.949-2.526-77.469 16.375-6.47-16.457-13.098-48.998-7.281-68.25 5.64-30.941 32.012-50.313 61.5-50.344zm136.78 16.781c25.825-.18 48.703 10.815 58.531 32.25 8.253 17.998 11.082 45.693-6.781 76.906-10.187 14.901-29.472 38.145-56.5 46.438-32.326 9.918-72.22 3.71-73.094 7.875-.934 4.978 38.235 13.494 71.75 2.688 25.166-8.115 45.958-25.942 56.344-35.875 45.042.659 114.72 24.127 109.38 80.656-1.351 25.885-12.159 41.682-36.812 63.28 11.373 6.347 19.177 12.342 17.125 22.063-1.34 6.344-5.435 16.922-20.531 21.094-9.485-1.453-46.471-13.577-58.438-2.907-8.852 8.895-40.202 15.34-47.438 13.844-18.067-1.703-42.85-3.62-42.938-7.687-.418-19.451 24.675-12.743 46.719-16.156 13.854-2.145 30.854-7.893 40.812-13.312 3.536-1.924 6.116-4.158 5.781-5.031-2.905-4.81-12.328 7.679-36.562 6.125-35.39-1.195-72.844-36.404-67-61.281 4.486-51.821 94.945-68.655 127.09-37.438 7.826 3.824 8.5 7.67 12.781 7.937 3.934.245 5.521-.027 6.938-1.219 4.566-3.842-2.452-11.919-16.562-19.094-10.19-5.18-19.971-8.242-31.844-10-6.047-.895-22.221-.9-28.875 0-9.783 1.323-21.025 3.992-29.22 6.907-5.413 1.925-14.033 6.157-18.437 9.062-34.157 18.68-37.373 48.046-19.375 76.5 3.227 3.954 8.593 10.896 14.562 16.219-4.056.438-15.312 40.005-13.375 40.281-4.891 4.462-32.22 7.109-31.156-1.469 3.924-15.519 11.343-38.357 14.344-54.688.224-1.643-3.764-6.427-7.031-.969-2.467 3.004-2.329 13.014-5.22 18.188-22.325-5.334-43.181-20.439-47.78-23.28 10.512-9.502 22.765-16.704 25.75-29.845 3.97-20.55-5.91-30.154-8.875-27.062-2.966 3.092 6.033 11.482 1.875 27.156-.585 6.038-15.92 19.588-25.938 26.844-1.36-12.734-4.864-25.657-6.844-28.312-4.72-8.055-16.34-2.519-10.72 5.313 3.044 6.869 12.508 15.991 10.657 26.062-6.766 3.077-31.041 7.066-35.938 4.906 2.196-9.999 9.177-25.207 8.312-34.53-1.729-13.002-18.997-7.858-14.688 7.75.869 7.274 1.007 18.325-1.53 26-24.452-4.048-60.276-27.385-66.845-45.407 12.347-1.754 14.847-4.216 16.906-6.344 7.563-7.264 9.301-21.063 2.031-30.28-4.493-4.758-5.407-4.605-9.687-6.75 2.549-5.458 18.34-20.95 26.312-23.189.196-14.863.6-27.288 16.188-43.875 18.668-16.529 54.546-21.246 77.375-10.875 6.662-16.658 8.616-29.356 19.75-44.75 22.079-34.022 57.55-50.5 88.719-50.719zm-12.969 53.063c-11.495.362-21.943 7.01-31.03 15.031-8.41 8.796-12.664 19.039-12.157 29.312.35 7.104 2.314 11.657 7.063 16.406 4.576 4.476 12.85 7.823 20.594 7.313 18.595-.856 36.889-15.894 41.688-34.281 1.743-6.77 1.429-13.41-1.75-20.656-2.77-5.649-7.742-9.724-14.5-11.844a31.426 31.426 0 0 0-9.906-1.282zm1.469 6.781c10.878.24 19.47 7.72 17.906 26.531-5.204 21.883-39.801 38.075-50.156 22.281-17.578-23.412 11.483-49.27 32.25-48.812zm-168.03 81.156c-1.234.056-2.5.628-3.687 1.781-4.806 4.67-3.858 15.593 1.625 18.625 1.15.637 3.572.494 4.843-.28 2.791-1.703 4.257-4.98 4.282-9.595.033-6.33-3.361-10.698-7.063-10.53zm38.938 12.188c-1.297.049-2.617.676-3.812 1.906-3.833 3.947-3.96 12.675-.25 16.781.727.805 1.65 1.584 2.062 1.75 1.185.48 3.479.408 4.563-.156 1.322-.688 2.382-1.896 3.437-3.906.768-1.462.844-2.138.844-5.875 0-3.874-.074-4.41-.969-6.094-1.584-2.98-3.714-4.487-5.875-4.406zm-98.281 24.812c5.29-.161 12.847 1.435 16.625 6.844 3.593 5.144 3.038 15.069-1.562 22.094-4.903 4.715-16.18 5.918-18.344 5.375-2.166-.543-4.789.296-7.657-1.875-2.965-2.245-6.175-7.524-7.312-10.531-.754-1.993-.98-17.404 15.03-21.531a18.01 18.01 0 0 1 3.22-.375zm407.22 20.031c15.573 7.841 29.403 48.728 40.188 60.125 45.298 78.404 103.43-52.294 141.62-57.188 21.036-.408 46.063 36.22 42.938 41.125-12.763-6.543-27.592-28.674-46.406-25.469-24.146 1.47-63.115 84.76-113.84 86.5-29.892 1.026-48.806-36.095-67.406-67.312 6.35-19.857 4.389-24.75 2.906-37.78zm-257.38 83.5c7.85 1.483 15.324 4.323 23 6.625-1.712 8.12-4.012 14.537-7.406 27.562-5.508 1.022-33.311 2.917-30.812-3 1-5.58 10.819-23.635 15.219-31.188zm71.125 2.219c10.755 5.88 23.293 12.325 33.5 14.031-2.678.243-13.761.467-20.175.76l-18.45-6.865c1.592-2.85 4.14-6.631 5.125-7.926zm-7.718 13.093 10.553 3.678c-8.453.903-11.284 1.25-12.835 4.667.19-2.781.333-4.392 2.282-8.345z" style="fill:#020202" transform="translate(-32.433 -31.205)"/><path d="M185.92 40.758c21.518-.022 44.667 10.24 62.656 33.844-15.491 15.659-32.698 36.331-39.406 68.375-30.12-8.813-57.949-2.526-77.469 16.375-6.47-16.457-13.098-48.998-7.281-68.25 5.64-30.941 32.012-50.313 61.5-50.344z" style="fill:#666" transform="translate(-32.433 -31.205)"/><path d="M323 57.247c25.825-.18 48.703 10.815 58.531 32.25 8.253 17.998 11.082 45.693-6.781 76.906-10.187 14.901-29.472 38.145-56.5 46.438-32.326 9.918-72.22 3.71-73.094 7.875-.934 4.978 38.235 13.494 71.75 2.688 25.166-8.115 45.958-25.942 56.344-35.875 45.042.659 114.72 24.127 109.38 80.656-1.351 25.885-12.16 41.682-36.812 63.28 11.373 6.347 19.177 12.342 17.125 22.063-1.34 6.344-5.435 16.922-20.531 21.094-9.485-1.453-46.471-13.577-58.438-2.907-8.852 8.895-40.202 15.34-47.438 13.844-18.067-1.703-42.85-3.62-42.938-7.687-.418-19.451 24.675-12.743 46.719-16.156 13.854-2.145 30.854-7.893 40.812-13.312 3.535-1.924 6.116-4.158 5.781-5.031-2.905-4.81-12.328 7.679-36.562 6.125-35.39-1.195-72.844-36.404-67-61.281 4.485-51.821 94.945-68.655 127.09-37.438 7.826 3.824 8.499 7.67 12.781 7.937 3.934.245 5.521-.027 6.938-1.219 4.565-3.842-2.452-11.919-16.562-19.094-10.19-5.18-19.972-8.242-31.845-10-6.046-.895-22.22-.9-28.875 0-9.783 1.323-21.025 3.992-29.219 6.907-5.413 1.925-14.034 6.157-18.438 9.062-34.157 18.68-37.373 48.046-19.375 76.5 3.228 3.954 8.594 10.896 14.562 16.219-4.055.438-15.311 40.005-13.374 40.281-4.892 4.462-32.22 7.109-31.156-1.469 3.923-15.519 11.343-38.357 14.344-54.688.224-1.643-3.764-6.427-7.032-.969-2.466 3.004-2.328 13.014-5.219 18.188-22.326-5.334-43.182-20.439-47.78-23.28 10.512-9.502 22.765-16.704 25.75-29.845 3.97-20.55-5.91-30.154-8.875-27.062-2.967 3.092 6.032 11.482 1.875 27.156-.585 6.038-15.92 19.588-25.938 26.844-1.36-12.734-4.864-25.657-6.844-28.312-4.72-8.055-16.34-2.519-10.72 5.313 3.044 6.869 12.508 15.991 10.657 26.062-6.766 3.077-31.041 7.066-35.938 4.906 2.195-9.999 9.177-25.207 8.312-34.53-1.729-13.002-18.997-7.858-14.688 7.75.869 7.274 1.006 18.325-1.531 26-24.451-4.048-60.275-27.385-66.844-45.407 12.347-1.754 14.847-4.216 16.906-6.344 7.563-7.264 9.301-21.063 2.031-30.28-4.493-4.758-5.408-4.605-9.687-6.75 2.548-5.458 18.34-20.95 26.312-23.189.196-14.863.6-27.288 16.188-43.875 18.668-16.529 54.546-21.246 77.375-10.875 6.661-16.658 8.616-29.356 19.75-44.75 22.079-34.022 57.55-50.5 88.719-50.719z" style="fill:#666" transform="translate(-32.433 -31.205)"/><path d="M147.17 197.2c-1.234.056-2.5.628-3.688 1.781-4.805 4.67-3.857 15.593 1.625 18.625 1.151.637 3.573.494 4.844-.281 2.791-1.702 4.257-4.98 4.281-9.594.034-6.33-3.36-10.698-7.062-10.53zM186.11 209.39c-1.297.048-2.617.675-3.813 1.906-3.832 3.947-3.96 12.675-.25 16.781.728.805 1.652 1.584 2.063 1.75 1.185.48 3.479.408 4.563-.156 1.322-.688 2.382-1.897 3.437-3.906.768-1.462.844-2.138.844-5.875 0-3.875-.074-4.41-.969-6.094-1.584-2.98-3.714-4.487-5.875-4.406z" style="fill:#020202" transform="translate(-32.433 -31.205)"/><path d="M84.121 235.25c5.29-.161 12.847 1.435 16.625 6.844 3.593 5.144 3.038 15.069-1.563 22.094-4.902 4.715-16.179 5.917-18.344 5.375-2.165-.543-4.788.296-7.656-1.875-2.965-2.245-6.175-7.524-7.312-10.531-.754-1.993-.98-17.404 15.03-21.531a18.01 18.01 0 0 1 3.22-.375z" style="fill:#333" transform="translate(-32.433 -31.205)"/><path d="M491.51 255.1c15.573 7.84 29.403 48.728 40.188 60.125 45.298 78.404 103.43-52.294 141.62-57.188 21.036-.408 46.063 36.22 42.938 41.125-12.763-6.544-27.592-28.674-46.406-25.469-24.146 1.47-63.115 84.76-113.84 86.5-29.892 1.026-48.806-36.095-67.406-67.312 6.35-19.857 4.388-24.75 2.906-37.781zM233.96 338.78c7.85 1.483 15.324 4.322 23 6.625-1.712 8.12-4.012 14.537-7.406 27.562-5.508 1.021-33.311 2.917-30.812-3 1-5.58 10.819-23.635 15.219-31.188zM305.09 341c10.755 5.88 23.293 12.325 33.5 14.031-2.678.243-13.761.467-20.175.76l-18.45-6.865c1.592-2.85 4.14-6.631 5.125-7.926z" style="fill:#666" transform="translate(-32.433 -31.205)"/><path d="M323.59 56.653c25.825-.18 48.703 10.815 58.531 32.25 8.253 17.998 11.082 45.693-6.781 76.906-10.187 14.901-29.472 38.145-56.5 46.438-37.234-53.269-71.912-60.337-103.72-60.125 6.661-16.658 8.616-29.356 19.75-44.75 22.079-34.022 57.55-50.501 88.719-50.719z" style="fill:url(#b)" transform="translate(-32.433 -31.205)"/><path d="M311.2 114.71c10.878.24 19.47 7.72 17.906 26.531-5.205 21.883-39.801 38.075-50.156 22.281-17.578-23.412 11.483-49.271 32.25-48.812z" style="fill:#f4d7d7" transform="translate(-32.433 -31.205)"/><path d="M309.74 107.92c-11.495.362-21.943 7.01-31.031 15.031-8.409 8.796-12.663 19.039-12.156 29.312.35 7.104 2.313 11.657 7.063 16.406 4.575 4.476 12.85 7.822 20.594 7.313 18.595-.856 36.889-15.894 41.688-34.281 1.743-6.77 1.428-13.41-1.75-20.656-2.77-5.649-7.742-9.724-14.5-11.845a31.426 31.426 0 0 0-9.907-1.28zm1.469 6.781c10.878.24 19.47 7.72 17.906 26.531-5.205 21.883-39.801 38.075-50.156 22.281-17.578-23.412 11.483-49.27 32.25-48.812z" style="fill:#020202" transform="translate(-32.433 -31.205)"/><path d="M184.58 36.749c21.518-.022 44.667 10.24 62.656 33.844-15.491 15.659-32.698 36.331-39.406 68.375-30.12-8.813-57.949-2.526-77.469 16.375-6.47-16.457-13.098-48.998-7.281-68.25 5.64-30.941 32.012-50.313 61.5-50.344z" style="fill:url(#c)" transform="translate(-32.433 -31.205)"/><path d="M25.389 455.05c0 39.114-40.682 70.822-90.866 70.822s-90.866-31.708-90.866-70.822 40.682-70.822 90.866-70.822 90.866 31.708 90.866 70.822z" style="fill:url(#d)" transform="matrix(.95106 .0477 -.04067 .85864 415.937 -125.606)"/></svg>