<svg xmlns="http://www.w3.org/2000/svg" xmlns:xlink="http://www.w3.org/1999/xlink" width="191.307" height="107.547"><defs><linearGradient xlink:href="#a" id="i" x1="542.894" x2="541.992" y1="415.319" y2="416.585" gradientUnits="userSpaceOnUse"/><linearGradient id="a"><stop offset="0" style="stop-color:#cee9f7;stop-opacity:1"/><stop offset="1" style="stop-color:#90c2d4;stop-opacity:1"/></linearGradient><linearGradient xlink:href="#b" id="j" x1="741.518" x2="740.563" y1="302.346" y2="304.327" gradientTransform="translate(21.727 -7.201)" gradientUnits="userSpaceOnUse"/><linearGradient id="b"><stop offset="0" style="stop-color:#e4f6fa;stop-opacity:1"/><stop offset=".221" style="stop-color:#98bfd8;stop-opacity:1"/><stop offset="1" style="stop-color:#81a9af;stop-opacity:1"/></linearGradient><linearGradient xlink:href="#c" id="k" x1="741.518" x2="740.563" y1="302.346" y2="304.327" gradientTransform="translate(32.885 .363)" gradientUnits="userSpaceOnUse"/><linearGradient id="c"><stop offset="0" style="stop-color:#e4f6fa;stop-opacity:1"/><stop offset=".221" style="stop-color:#98bfd8;stop-opacity:1"/><stop offset="1" style="stop-color:#81a9af;stop-opacity:1"/></linearGradient><linearGradient xlink:href="#d" id="l" x1="777.344" x2="779.563" y1="351.692" y2="355.325" gradientUnits="userSpaceOnUse"/><linearGradient id="d"><stop offset="0" style="stop-color:#b5d1db;stop-opacity:1"/><stop offset=".121" style="stop-color:#b5d1db;stop-opacity:1"/><stop offset=".344" style="stop-color:#3c516d;stop-opacity:1"/><stop offset=".657" style="stop-color:#3e536f;stop-opacity:1"/><stop offset=".904" style="stop-color:#b5d1db;stop-opacity:1"/><stop offset="1" style="stop-color:#b5d1db;stop-opacity:1"/></linearGradient><linearGradient xlink:href="#e" id="m" x1="777.344" x2="779.563" y1="351.692" y2="355.325" gradientUnits="userSpaceOnUse"/><linearGradient id="e"><stop offset="0" style="stop-color:#b5d1db;stop-opacity:1"/><stop offset=".121" style="stop-color:#b5d1db;stop-opacity:1"/><stop offset=".344" style="stop-color:#3c516d;stop-opacity:1"/><stop offset=".657" style="stop-color:#3e536f;stop-opacity:1"/><stop offset=".904" style="stop-color:#b5d1db;stop-opacity:1"/><stop offset="1" style="stop-color:#b5d1db;stop-opacity:1"/></linearGradient><linearGradient xlink:href="#f" id="n" x1="777.344" x2="779.563" y1="351.692" y2="355.325" gradientUnits="userSpaceOnUse"/><linearGradient id="f"><stop offset="0" style="stop-color:#b5d1db;stop-opacity:1"/><stop offset=".121" style="stop-color:#b5d1db;stop-opacity:1"/><stop offset=".344" style="stop-color:#3c516d;stop-opacity:1"/><stop offset=".657" style="stop-color:#3e536f;stop-opacity:1"/><stop offset=".904" style="stop-color:#b5d1db;stop-opacity:1"/><stop offset="1" style="stop-color:#b5d1db;stop-opacity:1"/></linearGradient><linearGradient xlink:href="#g" id="o" x1="777.344" x2="779.563" y1="351.692" y2="355.325" gradientUnits="userSpaceOnUse"/><linearGradient id="g"><stop offset="0" style="stop-color:#b5d1db;stop-opacity:1"/><stop offset=".121" style="stop-color:#b5d1db;stop-opacity:1"/><stop offset=".344" style="stop-color:#3c516d;stop-opacity:1"/><stop offset=".657" style="stop-color:#3e536f;stop-opacity:1"/><stop offset=".904" style="stop-color:#b5d1db;stop-opacity:1"/><stop offset="1" style="stop-color:#b5d1db;stop-opacity:1"/></linearGradient><linearGradient xlink:href="#g" id="p" x1="777.344" x2="779.563" y1="351.692" y2="355.325" gradientUnits="userSpaceOnUse"/><linearGradient xlink:href="#g" id="q" x1="777.344" x2="779.563" y1="351.692" y2="355.325" gradientUnits="userSpaceOnUse"/><linearGradient xlink:href="#h" id="r" x1="777.344" x2="779.563" y1="351.692" y2="355.325" gradientUnits="userSpaceOnUse"/><linearGradient id="h"><stop offset="0" style="stop-color:#b5d1db;stop-opacity:1"/><stop offset=".121" style="stop-color:#b5d1db;stop-opacity:1"/><stop offset=".344" style="stop-color:#3c516d;stop-opacity:1"/><stop offset=".657" style="stop-color:#3e536f;stop-opacity:1"/><stop offset=".904" style="stop-color:#b5d1db;stop-opacity:1"/><stop offset="1" style="stop-color:#b5d1db;stop-opacity:1"/></linearGradient><linearGradient xlink:href="#h" id="s" x1="777.344" x2="779.563" y1="351.692" y2="355.325" gradientUnits="userSpaceOnUse"/><linearGradient xlink:href="#h" id="t" x1="777.344" x2="779.563" y1="351.692" y2="355.325" gradientUnits="userSpaceOnUse"/></defs><g style="display:inline"><path d="m1101.815 370.162 355.38 221.42-.085 15.797-355.125-223.91z" style="fill:#6d847f;fill-opacity:1;fill-rule:nonzero;stroke:none" transform="matrix(.26706 0 0 .26706 -293.228 -55.83)"/><path d="m1456.662 592.07 353.969-189.712v13.408l-353.548 191.52z" style="fill:#6d847f;fill-opacity:1;fill-rule:nonzero;stroke:none" transform="matrix(.26706 0 0 .26706 -293.228 -55.83)"/><path d="m520.531 439-40.468 18.719L580.5 515.625l44.219-23.75L520.53 439zm-26.625 17.469c1.29 0 2.422.385 3.125.969-.707.582-1.834.968-3.125.968-1.29 0-2.417-.386-3.125-.969.714-.576 1.844-.968 3.125-.968zm91.594 51.844c1.29 0 2.422.385 3.125.968-.707.583-1.835.969-3.125.969s-2.418-.386-3.125-.969c.714-.576 1.844-.969 3.125-.969z" style="fill:#067245;fill-opacity:1;stroke:none" transform="translate(-401.135 -414.064) scale(.94677)"/><path d="m1101.815 370.21 211.655-96.173 153.763 92.15.677 10.842 24.934 15.277 26.567-13.245 32.696 18.127-6.607 10.334 123.007 71.348-211.44 113.648z" style="fill:#25976d;fill-opacity:1;stroke:none" transform="matrix(.26706 0 0 .26706 -293.228 -55.83)"/><path d="m520.508 438.989-36.03 16.687-59.72 27.125.063 3.75 100.156 63.157c33.196-16.97 66.678-35.96 99.719-54.063v-3.781l-104.188-52.875z" style="fill:none;stroke:#000;stroke-width:2.11244512" transform="translate(-401.135 -414.064) scale(.94677)"/><path d="M554.781 407.281c-.475.027-.961.151-1.343.344l-3.375 1.531-1.97-1.187-2.78 1.25v.812l1.25.719-6.25 2.844c-.637.241-1.185.551-1.25 1.25l.03 1.844 4.5 3.187 16.47-7.531v-2a.554.554 0 0 0-.053-.128c-.113-.213-.342-.295-.541-.435l-.447-.292-2.897-1.895c-.41-.257-.868-.34-1.344-.313z" style="fill:none;stroke:#000;stroke-width:1.05622256" transform="translate(-501.907 -354.95) scale(.94677)"/><path d="M540.34 413.592c-.648.243-1.215.552-1.282 1.26l.023 1.834 4.507 3.204 1.194-3.336z" style="fill:url(#i);fill-opacity:1;stroke:none" transform="translate(-501.907 -354.95) scale(.94677)"/><path d="m546.75 410.848-1.43-.82-.008-.82 2.782-1.25 2.093 1.28z" style="fill:#000;stroke:none" transform="translate(-501.907 -354.95) scale(.94677)"/><path d="m540.318 413.592 4.331 3.006 15.205-6.666-3.715-2.35c-.821-.513-1.93-.342-2.695.044z" style="fill:#cee9f7;fill-opacity:1;stroke:none" transform="translate(-501.907 -354.95) scale(.94677)"/><path d="m543.57 419.877 16.507-7.53-.014-2.014c-.142-.78-1.08-.602-1.688-.313l-13.625 6.5c-.765.366-1.129.833-1.187 1.375z" style="fill:#101a1c;fill-opacity:1;stroke:none" transform="translate(-501.907 -354.95) scale(.94677)"/><path d="m545.36 409.235 1.988 1.14" style="fill:none;stroke:#909090;stroke-width:.10562225;stroke-linecap:round;stroke-linejoin:miter;stroke-miterlimit:4;stroke-opacity:1;stroke-dasharray:none" transform="translate(-501.907 -354.95) scale(.94677)"/><path d="m464.813 500.27-1.625-1.437 11.25-7.438 3.312.188 3.125 2.125-22.063 13.625 1.5 1-1 1.062-4.187-2.625zM397.894 460.433l-1.625 1.438 11.25 7.437 3.313-.187 3.125-2.125-22.063-13.625 1.5-1-1-1.063-4.187 2.625z" style="fill:#18544b;fill-opacity:1;stroke:none" transform="translate(-316.872 -398.442) scale(.94677)"/><path d="M710.061 542.876a2.845 1.557 0 0 1-2.845 1.557 2.845 1.557 0 0 1-2.845-1.557 2.845 1.557 0 0 1 2.845-1.558 2.845 1.557 0 0 1 2.845 1.558z" style="fill:#69696a;fill-opacity:1;stroke:#badcee;stroke-width:1.55002189;stroke-linecap:square;stroke-linejoin:miter;stroke-miterlimit:4;stroke-opacity:1;stroke-dasharray:none;stroke-dashoffset:0" transform="matrix(.90427 -.03125 .03618 1.04672 -581.264 -459.662)"/><path d="M710.061 542.876a2.845 1.557 0 0 1-2.845 1.557 2.845 1.557 0 0 1-2.845-1.557 2.845 1.557 0 0 1 2.845-1.558 2.845 1.557 0 0 1 2.845 1.558z" style="fill:#69696a;fill-opacity:1;stroke:#badcee;stroke-width:1.55002189;stroke-linecap:square;stroke-linejoin:miter;stroke-miterlimit:4;stroke-opacity:1;stroke-dasharray:none;stroke-dashoffset:0" transform="matrix(.90427 -.03125 .03618 1.04672 -587.04 -463.614)"/><path d="M710.061 542.876a2.845 1.557 0 0 1-2.845 1.557 2.845 1.557 0 0 1-2.845-1.557 2.845 1.557 0 0 1 2.845-1.558 2.845 1.557 0 0 1 2.845 1.558z" style="fill:#69696a;fill-opacity:1;stroke:#badcee;stroke-width:1.55002189;stroke-linecap:square;stroke-linejoin:miter;stroke-miterlimit:4;stroke-opacity:1;stroke-dasharray:none;stroke-dashoffset:0" transform="matrix(.90427 -.03125 .03618 1.04672 -592.285 -466.803)"/><path d="M710.061 542.876a2.845 1.557 0 0 1-2.845 1.557 2.845 1.557 0 0 1-2.845-1.557 2.845 1.557 0 0 1 2.845-1.558 2.845 1.557 0 0 1 2.845 1.558z" style="fill:#69696a;fill-opacity:1;stroke:#badcee;stroke-width:1.55002189;stroke-linecap:square;stroke-linejoin:miter;stroke-miterlimit:4;stroke-opacity:1;stroke-dasharray:none;stroke-dashoffset:0" transform="matrix(.90427 -.03125 .03618 1.04672 -597.656 -470.108)"/><path d="M710.061 542.876a2.845 1.557 0 0 1-2.845 1.557 2.845 1.557 0 0 1-2.845-1.557 2.845 1.557 0 0 1 2.845-1.558 2.845 1.557 0 0 1 2.845 1.558z" style="fill:#69696a;fill-opacity:1;stroke:#badcee;stroke-width:1.55002189;stroke-linecap:square;stroke-linejoin:miter;stroke-miterlimit:4;stroke-opacity:1;stroke-dasharray:none;stroke-dashoffset:0" transform="matrix(.8347 -.02885 .0334 .96619 -551.886 -431.47)"/><path d="M710.061 542.876a2.845 1.557 0 0 1-2.845 1.557 2.845 1.557 0 0 1-2.845-1.557 2.845 1.557 0 0 1 2.845-1.558 2.845 1.557 0 0 1 2.845 1.558z" style="fill:#69696a;fill-opacity:1;stroke:#badcee;stroke-width:1.55002189;stroke-linecap:square;stroke-linejoin:miter;stroke-miterlimit:4;stroke-opacity:1;stroke-dasharray:none;stroke-dashoffset:0" transform="matrix(.82696 -.02858 .03308 .95724 -551.446 -430.012)"/><path d="M710.061 542.876a2.845 1.557 0 0 1-2.845 1.557 2.845 1.557 0 0 1-2.845-1.557 2.845 1.557 0 0 1 2.845-1.558 2.845 1.557 0 0 1 2.845 1.558z" style="fill:#69696a;fill-opacity:1;stroke:#badcee;stroke-width:1.55002189;stroke-linecap:square;stroke-linejoin:miter;stroke-miterlimit:4;stroke-opacity:1;stroke-dasharray:none;stroke-dashoffset:0" transform="matrix(.794 -.02744 .03176 .91909 -532.389 -413.39)"/><path d="M710.061 542.876a2.845 1.557 0 0 1-2.845 1.557 2.845 1.557 0 0 1-2.845-1.557 2.845 1.557 0 0 1 2.845-1.558 2.845 1.557 0 0 1 2.845 1.558z" style="fill:#69696a;fill-opacity:1;stroke:#badcee;stroke-width:1.55002189;stroke-linecap:square;stroke-linejoin:miter;stroke-miterlimit:4;stroke-opacity:1;stroke-dasharray:none;stroke-dashoffset:0" transform="matrix(.78831 -.02724 .03154 .9125 -533.176 -412.886)"/><path d="M710.061 542.876a2.845 1.557 0 0 1-2.845 1.557 2.845 1.557 0 0 1-2.845-1.557 2.845 1.557 0 0 1 2.845-1.558 2.845 1.557 0 0 1 2.845 1.558z" style="fill:#69696a;fill-opacity:1;stroke:#badcee;stroke-width:1.55002189;stroke-linecap:square;stroke-linejoin:miter;stroke-miterlimit:4;stroke-opacity:1;stroke-dasharray:none;stroke-dashoffset:0" transform="rotate(-1.983 -12449.137 15520.7) scale(.79652 .922)"/><path d="M710.061 542.876a2.845 1.557 0 0 1-2.845 1.557 2.845 1.557 0 0 1-2.845-1.557 2.845 1.557 0 0 1 2.845-1.558 2.845 1.557 0 0 1 2.845 1.558z" style="fill:#69696a;fill-opacity:1;stroke:#badcee;stroke-width:1.55002189;stroke-linecap:square;stroke-linejoin:miter;stroke-miterlimit:4;stroke-opacity:1;stroke-dasharray:none;stroke-dashoffset:0" transform="rotate(-1.983 -12524.614 15654.557) scale(.79652 .922)"/><path d="M710.061 542.876a2.845 1.557 0 0 1-2.845 1.557 2.845 1.557 0 0 1-2.845-1.557 2.845 1.557 0 0 1 2.845-1.558 2.845 1.557 0 0 1 2.845 1.558z" style="fill:#69696a;fill-opacity:1;stroke:#badcee;stroke-width:1.55002189;stroke-linecap:square;stroke-linejoin:miter;stroke-miterlimit:4;stroke-opacity:1;stroke-dasharray:none;stroke-dashoffset:0" transform="matrix(.82746 0 0 .95781 -487.793 -472.736)"/><path d="M710.061 542.876a2.845 1.557 0 0 1-2.845 1.557 2.845 1.557 0 0 1-2.845-1.557 2.845 1.557 0 0 1 2.845-1.558 2.845 1.557 0 0 1 2.845 1.558z" style="fill:#69696a;fill-opacity:1;stroke:#badcee;stroke-width:1.55002189;stroke-linecap:square;stroke-linejoin:miter;stroke-miterlimit:4;stroke-opacity:1;stroke-dasharray:none;stroke-dashoffset:0" transform="matrix(.79448 0 0 .91964 -469.24 -454.584)"/><path d="M710.061 542.876a2.845 1.557 0 0 1-2.845 1.557 2.845 1.557 0 0 1-2.845-1.557 2.845 1.557 0 0 1 2.845-1.558 2.845 1.557 0 0 1 2.845 1.558z" style="fill:#69696a;fill-opacity:1;stroke:#badcee;stroke-width:1.55002189;stroke-linecap:square;stroke-linejoin:miter;stroke-miterlimit:4;stroke-opacity:1;stroke-dasharray:none;stroke-dashoffset:0" transform="matrix(.78878 0 0 .91305 -470.126 -453.706)"/><path d="M710.061 542.876a2.845 1.557 0 0 1-2.845 1.557 2.845 1.557 0 0 1-2.845-1.557 2.845 1.557 0 0 1 2.845-1.558 2.845 1.557 0 0 1 2.845 1.558z" style="fill:#69696a;fill-opacity:1;stroke:#badcee;stroke-width:1.55002189;stroke-linecap:square;stroke-linejoin:miter;stroke-miterlimit:4;stroke-opacity:1;stroke-dasharray:none;stroke-dashoffset:0" transform="matrix(.79652 0 0 .922 -480.3 -461.153)"/><path d="M710.061 542.876a2.845 1.557 0 0 1-2.845 1.557 2.845 1.557 0 0 1-2.845-1.557 2.845 1.557 0 0 1 2.845-1.558 2.845 1.557 0 0 1 2.845 1.558z" style="fill:#69696a;fill-opacity:1;stroke:#badcee;stroke-width:1.55002189;stroke-linecap:square;stroke-linejoin:miter;stroke-miterlimit:4;stroke-opacity:1;stroke-dasharray:none;stroke-dashoffset:0" transform="matrix(.79652 0 0 .922 -484.878 -463.84)"/><path d="M710.061 542.876a2.845 1.557 0 0 1-2.845 1.557 2.845 1.557 0 0 1-2.845-1.557 2.845 1.557 0 0 1 2.845-1.558 2.845 1.557 0 0 1 2.845 1.558z" style="fill:#69696a;fill-opacity:1;stroke:#badcee;stroke-width:1.55002189;stroke-linecap:square;stroke-linejoin:miter;stroke-miterlimit:4;stroke-opacity:1;stroke-dasharray:none;stroke-dashoffset:0" transform="matrix(-1.09404 -.02404 -.02782 1.26639 884.96 -573.14)"/><path d="M710.061 542.876a2.845 1.557 0 0 1-2.845 1.557 2.845 1.557 0 0 1-2.845-1.557 2.845 1.557 0 0 1 2.845-1.558 2.845 1.557 0 0 1 2.845 1.558z" style="fill:#69696a;fill-opacity:1;stroke:#badcee;stroke-width:1.55002189;stroke-linecap:square;stroke-linejoin:miter;stroke-miterlimit:4;stroke-opacity:1;stroke-dasharray:none;stroke-dashoffset:0" transform="matrix(-1.05043 -.02308 -.02671 1.21591 859.905 -549.678)"/><path d="M710.061 542.876a2.845 1.557 0 0 1-2.845 1.557 2.845 1.557 0 0 1-2.845-1.557 2.845 1.557 0 0 1 2.845-1.558 2.845 1.557 0 0 1 2.845 1.558z" style="fill:#69696a;fill-opacity:1;stroke:#badcee;stroke-width:1.55002189;stroke-linecap:square;stroke-linejoin:miter;stroke-miterlimit:4;stroke-opacity:1;stroke-dasharray:none;stroke-dashoffset:0" transform="matrix(-1.0429 -.02291 -.02652 1.2072 861.05 -548.492)"/><path d="M710.061 542.876a2.845 1.557 0 0 1-2.845 1.557 2.845 1.557 0 0 1-2.845-1.557 2.845 1.557 0 0 1 2.845-1.558 2.845 1.557 0 0 1 2.845 1.558z" style="fill:#69696a;fill-opacity:1;stroke:#badcee;stroke-width:1.55002189;stroke-linecap:square;stroke-linejoin:miter;stroke-miterlimit:4;stroke-opacity:1;stroke-dasharray:none;stroke-dashoffset:0" transform="matrix(-1.05313 -.02314 -.02678 1.21903 874.717 -558.042)"/><path d="M710.061 542.876a2.845 1.557 0 0 1-2.845 1.557 2.845 1.557 0 0 1-2.845-1.557 2.845 1.557 0 0 1 2.845-1.558 2.845 1.557 0 0 1 2.845 1.558z" style="fill:#69696a;fill-opacity:1;stroke:#badcee;stroke-width:1.55002189;stroke-linecap:square;stroke-linejoin:miter;stroke-miterlimit:4;stroke-opacity:1;stroke-dasharray:none;stroke-dashoffset:0" transform="matrix(-1.05313 -.02314 -.02678 1.21903 880.848 -561.461)"/><path d="m753.653 428.427.008 2.784 6.594 5.002c.945.66 3.437 2.093 6.797.148l7.452-4.48.051-3.109-7.869-4.605c-1.598-.952-3.111-1.04-4.55-.345z" style="fill:#96a4b7;fill-opacity:1;stroke:#000;stroke-width:.43566152;stroke-linecap:butt;stroke-linejoin:miter;stroke-miterlimit:4;stroke-opacity:1;stroke-dasharray:none" transform="translate(-625.242 -326.508) scale(.94677)"/><path d="M769.298 429.733a5.51 3.234 0 0 1-5.51 3.234 5.51 3.234 0 0 1-5.51-3.234 5.51 3.234 0 0 1 5.51-3.234 5.51 3.234 0 0 1 5.51 3.234z" style="fill:#99821b;fill-opacity:1;fill-rule:nonzero;stroke:none" transform="translate(-624.808 -327.24) scale(.94677)"/><path d="M763.756 426.456c-3.043 0-5.5 1.433-5.5 3.22.282-1.632 2.647-2.907 5.5-2.907 2.94 0 5.34 1.36 5.5 3.062.004-.05 0-.106 0-.156 0-1.786-2.457-3.219-5.5-3.219z" style="fill:#000;fill-opacity:1;fill-rule:nonzero;stroke:none" transform="translate(-624.774 -327.199) scale(.94677)"/><path d="M769.225 429.519c-.162 1.701-2.53 3.031-5.47 3.031-2.852 0-5.217-1.244-5.5-2.875 0 1.786 2.458 3.25 5.5 3.25 3.044 0 5.5-1.464 5.5-3.25 0-.056-.025-.1-.03-.156z" style="fill:#eddf9e;fill-opacity:1;fill-rule:nonzero;stroke:none" transform="translate(-624.774 -327.199) scale(.94677)"/><path d="m753.955 428.556 7.164 5.131c2.011 1.336 4.074.907 5.5.064l7.69-4.905" style="fill:none;stroke:#f9f9f9;stroke-width:.29730546;stroke-linecap:round;stroke-linejoin:miter;stroke-miterlimit:4;stroke-opacity:1;stroke-dasharray:none" transform="translate(-625.242 -326.508) scale(.94677)"/><path d="m748.5 277.594-9.969 4.5V284.03l.594.406c-.105.39-.479.526-.75.75l.813.625c.442-.273.7-.529.843-.75l.375.282c-.133.323-.468.449-.718.656l.812.625c.383-.237.653-.46.813-.656l.375.25c-.126.343-.462.475-.72.687l.813.625c.398-.246.656-.485.813-.687l.562.406c-.154.258-.461.376-.687.562l.812.625c.34-.21.586-.416.75-.593l1.532 1.062 3.125-1.531c.149.212.42.457.843.719l.813-.625c-.221-.183-.5-.316-.657-.563l.72-.344c.156.203.414.442.812.688l.812-.625c-.214-.177-.496-.3-.656-.531l.594-.282c.159.196.429.42.812.657l.813-.625c-.21-.174-.463-.31-.625-.532l.625-.28c.163.184.423.403.781.624l.813-.625c-.204-.168-.462-.292-.625-.5l1.125-.531-.032-1.812z" style="fill:none;stroke:#000;stroke-width:1.37308931;stroke-miterlimit:4;stroke-dasharray:none" transform="translate(-681.598 -226.44) scale(.94677)"/><path d="m748.5 277.583-10 4.5 7.063 4.937 10.125-4.812z" style="fill:#426b95;fill-opacity:1;stroke:none" transform="translate(-681.598 -226.44) scale(.94677)"/><path d="M738.531 282.083v1.937l7.032 4.875v-1.875z" style="fill:#3b5a73;fill-opacity:1;stroke:none" transform="translate(-681.598 -226.44) scale(.94677)"/><path d="m745.566 287.02-.008 1.883 10.133-4.914v-1.797z" style="fill:#0d1719;fill-opacity:1;stroke:none" transform="translate(-681.598 -226.44) scale(.94677)"/><path d="M739.156 284.176c.021.615-.456.732-.781 1l.813.625c.716-.443 1.05-.8.968-1.125zM740.478 284.989c.021.615-.456.731-.78 1l.812.625c.716-.443 1.05-.8.968-1.125zM741.76 285.895c.02.615-.457.731-.782 1l.813.625c.717-.443 1.05-.8.969-1.125zM743.26 286.801c.02.615-.457.732-.782 1l.813.625c.717-.443 1.05-.8.969-1.125zM754.397 284.02c-.021.615.456.731.78 1l-.812.625c-.716-.443-1.05-.8-.968-1.125zM752.803 284.833c-.021.614.456.73.781 1l-.812.625c-.717-.444-1.05-.8-.97-1.125zM751.24 285.614c-.02.615.457.731.782 1l-.813.625c-.717-.443-1.05-.8-.969-1.125zM749.553 286.458c-.021.614.456.73.781 1l-.812.625c-.717-.444-1.05-.8-.97-1.125z" style="fill:#a5d4e7;fill-opacity:1;stroke:#000;stroke-width:0;stroke-linecap:butt;stroke-linejoin:miter;stroke-miterlimit:4;stroke-opacity:1;stroke-dasharray:none" transform="translate(-681.598 -226.44) scale(.94677)"/><path d="M760.095 287.45c-.324.015-.757.137-1.313.445l-9.862 4.427c-.395.2-.59.433-.64.668a.66.66 0 0 0 0 .287l-.033 2.356c.012.321.183.474.385.605l6.948 4.777c.19.095.842.31 1.313.287.143.013.309-.017.512-.128l10.887-5.254c.222-.106.59-.231.59-.573v-2.261c.015-.296-.317-.598-.75-.86l-6.98-4.426c-.239-.1-.518-.376-1.057-.35z" style="fill:none;stroke:#000;stroke-width:1.07926822" transform="translate(-681.338 -230.293) scale(.94677)"/><path d="m748.453 293.02-.015 2.602c.01.315.173.479.37.608l6.77 4.665c.186.094.837.305 1.297.281l.953-2.343z" style="fill:#769abb;fill-opacity:1;stroke:none" transform="translate(-681.338 -230.293) scale(.94677)"/><path d="m768.399 293.009.022 2.342c.014.335-.19.452-.407.556l-10.648 5.143a.856.856 0 0 1-.502.122c-.133-.642-.718-1.654.132-1.578.164-.48-.265-.683-.508-.973l.74-.044 10.684-4.773z" style="fill:#222632;fill-opacity:1;stroke:none" transform="translate(-681.338 -230.293) scale(.94677)"/><path d="m758.726 288.037-9.635 4.33c-.86.44-.75 1.072-.265 1.415l6.54 4.42c.713.401 1.476.703 2.652.176l9.9-4.508c.56-.346.757-1.076-.088-1.59l-6.806-4.354c-.372-.155-.851-.696-2.298.11z" style="fill:#9fbad1;fill-opacity:1;stroke:none" transform="translate(-681.338 -230.293) scale(.94677)"/><path d="M757.25 298.567c-.54.25-1.279-.088-1.531-.266l-6.75-4.593c-.532-.356-.505-.715.047-1.133" style="fill:none;stroke:#d6f2ff;stroke-width:.31686679;stroke-linecap:round;stroke-linejoin:miter;stroke-miterlimit:4;stroke-opacity:1;stroke-dasharray:none" transform="translate(-681.338 -230.293) scale(.94677)"/><path d="M733.933 292.235a.862.486 0 0 1-.862.486.862.486 0 0 1-.862-.486.862.486 0 0 1 .862-.486.862.486 0 0 1 .862.486z" style="fill:#000;fill-opacity:1;fill-rule:nonzero;stroke:none" transform="translate(-657.32 -229.456) scale(.94677)"/><path d="m768.232 287.731-7.115 3.727.339 4.066 15.247 10.842 8.555-4.15-.593-2.965-3.134-2.965z" style="fill:#223445;fill-opacity:1;stroke:none" transform="translate(-683.095 -224.818) scale(.94677)"/><path d="m774.458 300.48 2.15 3.917 8.205-3.981-3.028-3.579z" style="fill:#172122;fill-opacity:1;stroke:none" transform="translate(-683.095 -224.818) scale(.94677)"/><path d="m761.371 291.712.424 2.88 14.876 9.9-2.34-4.31z" style="fill:#2a4a5c;fill-opacity:1;stroke:none" transform="translate(-683.095 -224.818) scale(.94677)"/><path d="M761.668 294v1.948l15.088 9.9-.096-1.451z" style="fill:#122f37;fill-opacity:1;stroke:none" transform="translate(-683.095 -224.818) scale(.94677)"/><path d="m776.635 304.342.15 1.707 8.205-3.803-.03-1.887z" style="fill:#091511;fill-opacity:1;stroke:none" transform="translate(-683.095 -224.818) scale(.94677)"/><path d="m761.874 291.961 12.801 8.609" style="fill:none;stroke:#5c88b3;stroke-width:.51634073;stroke-linecap:round;stroke-linejoin:miter;stroke-miterlimit:4;stroke-opacity:1;stroke-dasharray:none" transform="translate(-683.095 -224.818) scale(.94677)"/><path d="M762.679 294.625c-.901.369-.04 1.88.06 2.785-.218.176-.485.192-.465.366.027.233.899.748 1.405.871.374.091.793-.257.857-.398-.243-.769-1.051-1.98-.48-2.5-.41-.613-.888-.99-1.377-1.124z" style="fill:url(#j);fill-opacity:1;stroke:#000;stroke-width:0;stroke-linecap:butt;stroke-linejoin:miter;stroke-miterlimit:4;stroke-opacity:1;stroke-dasharray:none" transform="translate(-683.095 -224.818) scale(.94677)"/><path d="M773.838 302.19c-.902.368-.04 1.88.06 2.784-.218.176-.485.192-.465.366.027.233.899.748 1.405.871.374.091.793-.256.857-.398-.243-.768-1.051-1.98-.48-2.5-.41-.613-.888-.99-1.377-1.124z" style="fill:url(#k);fill-opacity:1;stroke:#000;stroke-width:0;stroke-linecap:butt;stroke-linejoin:miter;stroke-miterlimit:4;stroke-opacity:1;stroke-dasharray:none" transform="translate(-683.095 -224.818) scale(.94677)"/><path d="m768.403 287.67-7.15 3.932.108 4.24c.1.339.946.67.965 1.355-.224.182-.537.506-.517.685.028.241 1.515 1.384 2.369 1.047.474-.165.435-.6.424-.834l1.812 1.194 6.801 4.941c.938.748-.23.667-.307 1.034-.106.498 1.516 1.244 2.039 1.37.675.009.946-.461.894-.915l.896.58 8.307-3.852-.05-2.189-3.195-4.001z" style="fill:none;stroke:#000;stroke-width:.87212157;stroke-miterlimit:4;stroke-dasharray:none" transform="translate(-683.095 -224.818) scale(.94677)"/><path d="m748.5 277.594-9.969 4.5V284.03l.594.406c-.105.39-.479.526-.75.75l.813.625c.442-.273.7-.529.843-.75l.375.282c-.133.323-.468.449-.718.656l.812.625c.383-.237.653-.46.813-.656l.375.25c-.126.343-.462.475-.72.687l.813.625c.398-.246.656-.485.813-.687l.562.406c-.154.258-.461.376-.687.562l.812.625c.34-.21.586-.416.75-.593l1.532 1.062 3.125-1.531c.149.212.42.457.843.719l.813-.625c-.221-.183-.5-.316-.657-.563l.72-.344c.156.203.414.442.812.688l.812-.625c-.214-.177-.496-.3-.656-.531l.594-.282c.159.196.429.42.812.657l.813-.625c-.21-.174-.463-.31-.625-.532l.625-.28c.163.184.423.403.781.624l.813-.625c-.204-.168-.462-.292-.625-.5l1.125-.531-.032-1.812z" style="fill:none;stroke:#000;stroke-width:1.37308931;stroke-miterlimit:4;stroke-dasharray:none" transform="matrix(.62261 0 0 .59061 -410.495 -123.403)"/><path d="m748.5 277.583-10 4.5 7.063 4.937 10.125-4.812z" style="fill:#426b95;fill-opacity:1;stroke:none" transform="matrix(.62261 0 0 .59061 -410.495 -123.403)"/><path d="M738.531 282.083v1.937l7.032 4.875v-1.875z" style="fill:#3b5a73;fill-opacity:1;stroke:none" transform="matrix(.62261 0 0 .59061 -410.495 -123.403)"/><path d="m745.566 287.02-.008 1.883 10.133-4.914v-1.797z" style="fill:#0d1719;fill-opacity:1;stroke:none" transform="matrix(.62261 0 0 .59061 -410.495 -123.403)"/><path d="M739.156 284.176c.021.615-.456.732-.781 1l.813.625c.716-.443 1.05-.8.968-1.125zM740.478 284.989c.021.615-.456.731-.78 1l.812.625c.716-.443 1.05-.8.968-1.125zM741.76 285.895c.02.615-.457.731-.782 1l.813.625c.717-.443 1.05-.8.969-1.125zM743.26 286.801c.02.615-.457.732-.782 1l.813.625c.717-.443 1.05-.8.969-1.125zM754.397 284.02c-.021.615.456.731.78 1l-.812.625c-.716-.443-1.05-.8-.968-1.125zM752.803 284.833c-.021.614.456.73.781 1l-.812.625c-.717-.444-1.05-.8-.97-1.125zM751.24 285.614c-.02.615.457.731.782 1l-.813.625c-.717-.443-1.05-.8-.969-1.125zM749.553 286.458c-.021.614.456.73.781 1l-.812.625c-.717-.444-1.05-.8-.97-1.125z" style="fill:#a5d4e7;fill-opacity:1;stroke:#000;stroke-width:0;stroke-linecap:butt;stroke-linejoin:miter;stroke-miterlimit:4;stroke-opacity:1;stroke-dasharray:none" transform="matrix(.62261 0 0 .59061 -410.495 -123.403)"/><path d="M710.061 542.876a2.845 1.557 0 0 1-2.845 1.557 2.845 1.557 0 0 1-2.845-1.557 2.845 1.557 0 0 1 2.845-1.558 2.845 1.557 0 0 1 2.845 1.558z" style="fill:#69696a;fill-opacity:1;stroke:#badcee;stroke-width:1.55002189;stroke-linecap:square;stroke-linejoin:miter;stroke-miterlimit:4;stroke-opacity:1;stroke-dasharray:none;stroke-dashoffset:0" transform="matrix(-.27868 -.00612 -.00709 .32259 275.71 -119.138)"/><path d="m417.715 477.604 2.063-1.25.875.75 1.937-1.25-1.687-1.5.625-.375 2.125 1.375 2.437.125 2.25-1.375 1.438.125 1.062.688v.812l1 .813-.312 3.937 10 6.188 1.437-.125 6.188-3.625 1.562.937h1.875l1.938 1.313-8.813 4.875-4.812.187-7.313 4-.687 4.75-16.313 9.063-9.437-7 3.25-1.938 13.187-.312 4.938-2.438 1.062-10.875-1.875-1.437-3.812 2.75-3.063-1.875.5-4.625z" style="fill:#18544b;fill-opacity:1;stroke:none" transform="translate(-316.872 -398.442) scale(.94677)"/><path d="m422.37 483.713 2.564-1.856-4.066-3.359" style="fill:none;stroke:#66a69f;stroke-width:.42248902;stroke-linecap:butt;stroke-linejoin:miter;stroke-miterlimit:4;stroke-opacity:1;stroke-dasharray:none" transform="translate(-316.872 -398.442) scale(.94677)"/><path d="m424.45 484.818 3.849-2.769-6.105-5.01" style="fill:none;stroke:#66a69f;stroke-width:.42248905;stroke-linecap:butt;stroke-linejoin:miter;stroke-miterlimit:4;stroke-opacity:1;stroke-dasharray:none" transform="translate(-316.872 -398.442) scale(.94677)"/><path d="m404.207 471.957-2.828 2.475 7.07 5.657.354 6.364 4.243 4.596.707 4.243 3.182 2.121 1.768-1.767-2.829-1.945-.618-4.42-4.332-3.889-.176-6.805-5.392-3.978 1.591-1.414-2.033-1.856z" style="fill:#18544b;fill-opacity:1;stroke:none" transform="translate(-316.872 -398.442) scale(.94677)"/><path d="m796.938 289.313-6.282 3.312h-.03v.5a7.58 7.58 0 0 1-.75-.625c-.183-.16-.275 1.012-.095 1.156.35.331.615.53.844.688v.344l2.563 1.875v-.094l1.25-.656c.184.604-.226 1.034 2 2.156.238.145 1.506-.453 1.25-.594-2.047-1.068-1.87-1.634-1.97-2.219l.938-.5c.209.621-.262 1.047 2 2.188.239.145 1.507-.453 1.25-.594-2.087-1.09-1.887-1.62-2-2.219l1-.531c.209.621-.262 1.047 2 2.188.239.145 1.507-.453 1.25-.594-2.669-1.393-1.535-1.86-2.185-2.728l-.019-1.603z" style="fill:none;stroke:#000;stroke-width:1.05622256" transform="translate(-673.318 -227.618) scale(.94677)"/><path d="M792.962 294.971c-1.537-1.063-1.04.706-3.182-1.316-.18-.145-.085-1.302.097-1.142 2.175 1.998 1.853.211 3.316 1.239.267.15-.015 1.369-.231 1.219z" style="fill:#8b9da9;fill-opacity:1;stroke:none" transform="translate(-673.318 -227.618) scale(.94677)"/><path d="M790.64 292.63v2.062l2.563 1.875-.062-2.375z" style="fill:#2f6372;fill-opacity:1;stroke:none" transform="translate(-673.318 -227.618) scale(.94677)"/><path d="m793.14 294.192 6.813-3.5v2.281l-6.812 3.532z" style="fill:#161d1d;fill-opacity:1;stroke:none" transform="translate(-673.318 -227.618) scale(.94677)"/><path d="m796.953 289.317-6.312 3.313 2.437 1.562 6.875-3.437z" style="fill:#2c4865;fill-opacity:1;stroke:none" transform="translate(-673.318 -227.618) scale(.94677)"/><path d="m790.672 292.63 2.484 1.593" style="fill:none;stroke:#e1e1e1;stroke-width:.21124451;stroke-linecap:round;stroke-linejoin:miter;stroke-miterlimit:4;stroke-opacity:1;stroke-dasharray:none" transform="translate(-673.318 -227.618) scale(.94677)"/><path d="M793.625 294.864c1.84 1.314-.364 1.492 2.813 3.094.238.145 1.506-.453 1.25-.594-3.164-1.65-1.011-2.037-2.782-3.281-.28-.243-1.54.596-1.281.78zM795.844 293.75c1.841 1.313-.364 1.492 2.813 3.093.238.146 1.506-.453 1.25-.593-3.163-1.65-1.011-2.038-2.781-3.282-.281-.243-1.541.597-1.282.782zM798.094 292.593c1.841 1.314-.364 1.492 2.813 3.094.238.145 1.506-.453 1.25-.594-3.163-1.65-1.011-2.037-2.781-3.28-.281-.244-1.541.595-1.282.78z" style="fill:#8b9da9;fill-opacity:1;stroke:none" transform="translate(-673.318 -227.618) scale(.94677)"/><path d="m401.555 474.123-2.828 2.475 7.071 5.657.354 6.364 4.242 4.596.707 4.242 3.182 2.122 1.768-1.768-2.828-1.945-.62-4.419-4.33-3.889-.177-6.806-5.392-3.977 1.591-1.415-2.033-1.856z" style="fill:#18544b;fill-opacity:1;stroke:none" transform="translate(-316.872 -398.442) scale(.94677)"/><path d="m777.625 351.906-1.875 1 2.406 1.625 1.094.75 1.75-1-1.156-.812-2.219-1.563z" style="fill:none;stroke:#000;stroke-width:1.05622256" transform="translate(-676.24 -266.747) scale(.94677)"/><path d="m777.625 351.895-1.875 1 3.5 2.375 1.75-1z" style="fill:url(#l);fill-opacity:1;stroke:none" transform="translate(-676.24 -266.747) scale(.94677)"/><path d="m778.172 354.544 1.68-1.07" style="fill:none;stroke:#a5b5cc;stroke-width:.10562225;stroke-linecap:round;stroke-linejoin:miter;stroke-miterlimit:4;stroke-opacity:1;stroke-dasharray:none" transform="translate(-676.24 -266.747) scale(.94677)"/><path d="m398.904 476.333-2.829 2.475 7.071 5.656.354 6.364 4.243 4.597.707 4.242 3.182 2.122 1.767-1.768-2.828-1.945-.619-4.42-4.33-3.888-.178-6.806-5.391-3.978 1.59-1.414-2.032-1.856z" style="fill:#18544b;fill-opacity:1;stroke:none" transform="translate(-316.872 -398.442) scale(.94677)"/><path d="m777.625 351.906-1.875 1 2.406 1.625 1.094.75 1.75-1-1.156-.812-2.219-1.563z" style="fill:none;stroke:#000;stroke-width:1.05622256" transform="translate(-664.455 -258.745) scale(.94677)"/><path d="m777.625 351.895-1.875 1 3.5 2.375 1.75-1z" style="fill:url(#m);fill-opacity:1;stroke:none" transform="translate(-664.455 -258.745) scale(.94677)"/><path d="m778.172 354.544 1.68-1.07" style="fill:none;stroke:#a5b5cc;stroke-width:.10562225;stroke-linecap:round;stroke-linejoin:miter;stroke-miterlimit:4;stroke-opacity:1;stroke-dasharray:none" transform="translate(-664.455 -258.745) scale(.94677)"/><path d="m777.625 351.906-1.875 1 2.406 1.625 1.094.75 1.75-1-1.156-.812-2.219-1.563z" style="fill:none;stroke:#000;stroke-width:1.05622256" transform="translate(-659.011 -254.958) scale(.94677)"/><path d="m777.625 351.895-1.875 1 3.5 2.375 1.75-1z" style="fill:url(#n);fill-opacity:1;stroke:none" transform="translate(-659.011 -254.958) scale(.94677)"/><path d="m778.172 354.544 1.68-1.07" style="fill:none;stroke:#a5b5cc;stroke-width:.10562225;stroke-linecap:round;stroke-linejoin:miter;stroke-miterlimit:4;stroke-opacity:1;stroke-dasharray:none" transform="translate(-659.011 -254.958) scale(.94677)"/><path d="m777.625 351.906-1.875 1 2.406 1.625 1.094.75 1.75-1-1.156-.812-2.219-1.563z" style="fill:none;stroke:#000;stroke-width:1.05622256" transform="scale(-.94677 .94677) rotate(-5.547 -2616.746 9401.651)"/><path d="m777.625 351.895-1.875 1 3.5 2.375 1.75-1z" style="fill:url(#o);fill-opacity:1;stroke:none" transform="scale(-.94677 .94677) rotate(-5.547 -2616.746 9401.651)"/><path d="m778.172 354.544 1.68-1.07" style="fill:none;stroke:#a5b5cc;stroke-width:.10562225;stroke-linecap:round;stroke-linejoin:miter;stroke-miterlimit:4;stroke-opacity:1;stroke-dasharray:none" transform="scale(-.94677 .94677) rotate(-5.547 -2616.746 9401.651)"/><path d="m777.625 351.906-1.875 1 2.406 1.625 1.094.75 1.75-1-1.156-.812-2.219-1.563z" style="fill:none;stroke:#000;stroke-width:1.05622256" transform="scale(-.94677 .94677) rotate(-5.547 -2638.22 9364.4)"/><path d="m777.625 351.895-1.875 1 3.5 2.375 1.75-1z" style="fill:url(#p);fill-opacity:1;stroke:none" transform="scale(-.94677 .94677) rotate(-5.547 -2638.22 9364.4)"/><path d="m778.172 354.544 1.68-1.07" style="fill:none;stroke:#a5b5cc;stroke-width:.10562225;stroke-linecap:round;stroke-linejoin:miter;stroke-miterlimit:4;stroke-opacity:1;stroke-dasharray:none" transform="scale(-.94677 .94677) rotate(-5.547 -2638.22 9364.4)"/><path d="m777.625 351.906-1.875 1 2.406 1.625 1.094.75 1.75-1-1.156-.812-2.219-1.563z" style="fill:none;stroke:#000;stroke-width:1.05622256" transform="scale(-.94677 .94677) rotate(-5.547 -2661.4 9308.96)"/><path d="m777.625 351.895-1.875 1 3.5 2.375 1.75-1z" style="fill:url(#q);fill-opacity:1;stroke:none" transform="scale(-.94677 .94677) rotate(-5.547 -2661.4 9308.96)"/><path d="m778.172 354.544 1.68-1.07" style="fill:none;stroke:#a5b5cc;stroke-width:.10562225;stroke-linecap:round;stroke-linejoin:miter;stroke-miterlimit:4;stroke-opacity:1;stroke-dasharray:none" transform="scale(-.94677 .94677) rotate(-5.547 -2661.4 9308.96)"/><path d="M710.061 542.876a2.845 1.557 0 0 1-2.845 1.557 2.845 1.557 0 0 1-2.845-1.557 2.845 1.557 0 0 1 2.845-1.558 2.845 1.557 0 0 1 2.845 1.558z" style="fill:#69696a;fill-opacity:1;stroke:#badcee;stroke-width:1.55002189;stroke-linecap:square;stroke-linejoin:miter;stroke-miterlimit:4;stroke-opacity:1;stroke-dasharray:none;stroke-dashoffset:0" transform="matrix(-.27868 -.00612 -.00709 .32259 318.895 -100.326)"/><path d="M710.061 542.876a2.845 1.557 0 0 1-2.845 1.557 2.845 1.557 0 0 1-2.845-1.557 2.845 1.557 0 0 1 2.845-1.558 2.845 1.557 0 0 1 2.845 1.558z" style="fill:#69696a;fill-opacity:1;stroke:#badcee;stroke-width:1.55002189;stroke-linecap:square;stroke-linejoin:miter;stroke-miterlimit:4;stroke-opacity:1;stroke-dasharray:none;stroke-dashoffset:0" transform="matrix(-.27868 -.00612 -.00709 .32259 316.548 -99.054)"/><path d="M710.061 542.876a2.845 1.557 0 0 1-2.845 1.557 2.845 1.557 0 0 1-2.845-1.557 2.845 1.557 0 0 1 2.845-1.558 2.845 1.557 0 0 1 2.845 1.558z" style="fill:#69696a;fill-opacity:1;stroke:#badcee;stroke-width:1.55002189;stroke-linecap:square;stroke-linejoin:miter;stroke-miterlimit:4;stroke-opacity:1;stroke-dasharray:none;stroke-dashoffset:0" transform="matrix(-.27868 -.00612 -.00709 .32259 314.121 -97.548)"/><path d="m432.005 481.857 1.989 1.547-.398 6.32 2.254 1.856" style="fill:none;stroke:#66a69f;stroke-width:.52811128;stroke-linecap:butt;stroke-linejoin:miter;stroke-miterlimit:4;stroke-opacity:1;stroke-dasharray:none" transform="translate(-316.872 -398.442) scale(.94677)"/><path d="M710.061 542.876a2.845 1.557 0 0 1-2.845 1.557 2.845 1.557 0 0 1-2.845-1.557 2.845 1.557 0 0 1 2.845-1.558 2.845 1.557 0 0 1 2.845 1.558z" style="fill:#69696a;fill-opacity:1;stroke:#badcee;stroke-width:1.55002189;stroke-linecap:square;stroke-linejoin:miter;stroke-miterlimit:4;stroke-opacity:1;stroke-dasharray:none;stroke-dashoffset:0" transform="matrix(-.27868 -.00612 -.00709 .32259 296.966 -103.74)"/><path d="m433.728 492.729-1.523-1.637.416-6.77-2.484-1.844.103-2.77-4.602-3.729" style="fill:none;stroke:#66a69f;stroke-width:.42248905;stroke-linecap:butt;stroke-linejoin:miter;stroke-miterlimit:4;stroke-opacity:1;stroke-dasharray:none" transform="translate(-316.872 -398.442) scale(.94677)"/><path d="M710.061 542.876a2.845 1.557 0 0 1-2.845 1.557 2.845 1.557 0 0 1-2.845-1.557 2.845 1.557 0 0 1 2.845-1.558 2.845 1.557 0 0 1 2.845 1.558z" style="fill:#69696a;fill-opacity:1;stroke:#badcee;stroke-width:1.55002189;stroke-linecap:square;stroke-linejoin:miter;stroke-miterlimit:4;stroke-opacity:1;stroke-dasharray:none;stroke-dashoffset:0" transform="matrix(-.27868 -.00612 -.00709 .32259 294.707 -102.82)"/><path d="M710.061 542.876a2.845 1.557 0 0 1-2.845 1.557 2.845 1.557 0 0 1-2.845-1.557 2.845 1.557 0 0 1 2.845-1.558 2.845 1.557 0 0 1 2.845 1.558z" style="fill:#69696a;fill-opacity:1;stroke:#badcee;stroke-width:1.55002189;stroke-linecap:square;stroke-linejoin:miter;stroke-miterlimit:4;stroke-opacity:1;stroke-dasharray:none;stroke-dashoffset:0" transform="matrix(-.27868 -.00612 -.00709 .32259 291.36 -115.121)"/><path d="M710.061 542.876a2.845 1.557 0 0 1-2.845 1.557 2.845 1.557 0 0 1-2.845-1.557 2.845 1.557 0 0 1 2.845-1.558 2.845 1.557 0 0 1 2.845 1.558z" style="fill:#69696a;fill-opacity:1;stroke:#badcee;stroke-width:1.55002189;stroke-linecap:square;stroke-linejoin:miter;stroke-miterlimit:4;stroke-opacity:1;stroke-dasharray:none;stroke-dashoffset:0" transform="matrix(-.27868 -.00612 -.00709 .32259 285.418 -109.765)"/><path d="M710.061 542.876a2.845 1.557 0 0 1-2.845 1.557 2.845 1.557 0 0 1-2.845-1.557 2.845 1.557 0 0 1 2.845-1.558 2.845 1.557 0 0 1 2.845 1.558z" style="fill:#69696a;fill-opacity:1;stroke:#badcee;stroke-width:1.55002189;stroke-linecap:square;stroke-linejoin:miter;stroke-miterlimit:4;stroke-opacity:1;stroke-dasharray:none;stroke-dashoffset:0" transform="matrix(-.27868 -.00612 -.00709 .32259 283.66 -110.77)"/><path d="M710.061 542.876a2.845 1.557 0 0 1-2.845 1.557 2.845 1.557 0 0 1-2.845-1.557 2.845 1.557 0 0 1 2.845-1.558 2.845 1.557 0 0 1 2.845 1.558z" style="fill:#69696a;fill-opacity:1;stroke:#badcee;stroke-width:1.55002189;stroke-linecap:square;stroke-linejoin:miter;stroke-miterlimit:4;stroke-opacity:1;stroke-dasharray:none;stroke-dashoffset:0" transform="matrix(-.27868 -.00612 -.00709 .32259 293.117 -113.029)"/><path d="M710.061 542.876a2.845 1.557 0 0 1-2.845 1.557 2.845 1.557 0 0 1-2.845-1.557 2.845 1.557 0 0 1 2.845-1.558 2.845 1.557 0 0 1 2.845 1.558z" style="fill:#69696a;fill-opacity:1;stroke:#badcee;stroke-width:1.55002189;stroke-linecap:square;stroke-linejoin:miter;stroke-miterlimit:4;stroke-opacity:1;stroke-dasharray:none;stroke-dashoffset:0" transform="matrix(-.27868 -.00612 -.00709 .32259 284.832 -97.966)"/><path d="M710.061 542.876a2.845 1.557 0 0 1-2.845 1.557 2.845 1.557 0 0 1-2.845-1.557 2.845 1.557 0 0 1 2.845-1.558 2.845 1.557 0 0 1 2.845 1.558z" style="fill:#69696a;fill-opacity:1;stroke:#badcee;stroke-width:1.55002189;stroke-linecap:square;stroke-linejoin:miter;stroke-miterlimit:4;stroke-opacity:1;stroke-dasharray:none;stroke-dashoffset:0" transform="matrix(-.27868 -.00612 -.00709 .32259 270.69 -125.916)"/><path d="M710.061 542.876a2.845 1.557 0 0 1-2.845 1.557 2.845 1.557 0 0 1-2.845-1.557 2.845 1.557 0 0 1 2.845-1.558 2.845 1.557 0 0 1 2.845 1.558z" style="fill:#69696a;fill-opacity:1;stroke:#badcee;stroke-width:1.55002189;stroke-linecap:square;stroke-linejoin:miter;stroke-miterlimit:4;stroke-opacity:1;stroke-dasharray:none;stroke-dashoffset:0" transform="matrix(-.27868 -.00612 -.00709 .32259 268.514 -124.494)"/><path d="M710.061 542.876a2.845 1.557 0 0 1-2.845 1.557 2.845 1.557 0 0 1-2.845-1.557 2.845 1.557 0 0 1 2.845-1.558 2.845 1.557 0 0 1 2.845 1.558z" style="fill:#69696a;fill-opacity:1;stroke:#badcee;stroke-width:1.55002189;stroke-linecap:square;stroke-linejoin:miter;stroke-miterlimit:4;stroke-opacity:1;stroke-dasharray:none;stroke-dashoffset:0" transform="matrix(-.27868 -.00612 -.00709 .32259 263.995 -136.711)"/><path d="M710.061 542.876a2.845 1.557 0 0 1-2.845 1.557 2.845 1.557 0 0 1-2.845-1.557 2.845 1.557 0 0 1 2.845-1.558 2.845 1.557 0 0 1 2.845 1.558z" style="fill:#69696a;fill-opacity:1;stroke:#badcee;stroke-width:1.55002189;stroke-linecap:square;stroke-linejoin:miter;stroke-miterlimit:4;stroke-opacity:1;stroke-dasharray:none;stroke-dashoffset:0" transform="matrix(-.27868 -.00612 -.00709 .32259 265.418 -122.904)"/><path d="m777.625 351.906-1.875 1 2.406 1.625 1.094.75 1.75-1-1.156-.812-2.219-1.563z" style="fill:none;stroke:#000;stroke-width:1.05622256" transform="scale(-.94677 .94677) rotate(-5.547 -2712.756 8479.034)"/><path d="m777.625 351.895-1.875 1 3.5 2.375 1.75-1z" style="fill:url(#r);fill-opacity:1;stroke:none" transform="scale(-.94677 .94677) rotate(-5.547 -2712.756 8479.034)"/><path d="m778.172 354.544 1.68-1.07" style="fill:none;stroke:#a5b5cc;stroke-width:.10562225;stroke-linecap:round;stroke-linejoin:miter;stroke-miterlimit:4;stroke-opacity:1;stroke-dasharray:none" transform="scale(-.94677 .94677) rotate(-5.547 -2712.756 8479.034)"/><path d="m777.625 351.906-1.875 1 2.406 1.625 1.094.75 1.75-1-1.156-.812-2.219-1.563z" style="fill:none;stroke:#000;stroke-width:1.05622256" transform="scale(-.94677 .94677) rotate(-5.547 -2734.23 8441.782)"/><path d="m777.625 351.895-1.875 1 3.5 2.375 1.75-1z" style="fill:url(#s);fill-opacity:1;stroke:none" transform="scale(-.94677 .94677) rotate(-5.547 -2734.23 8441.782)"/><path d="m778.172 354.544 1.68-1.07" style="fill:none;stroke:#a5b5cc;stroke-width:.10562225;stroke-linecap:round;stroke-linejoin:miter;stroke-miterlimit:4;stroke-opacity:1;stroke-dasharray:none" transform="scale(-.94677 .94677) rotate(-5.547 -2734.23 8441.782)"/><path d="m777.625 351.906-1.875 1 2.406 1.625 1.094.75 1.75-1-1.156-.812-2.219-1.563z" style="fill:none;stroke:#000;stroke-width:1.05622256" transform="scale(-.94677 .94677) rotate(-5.547 -2757.41 8386.343)"/><path d="m777.625 351.895-1.875 1 3.5 2.375 1.75-1z" style="fill:url(#t);fill-opacity:1;stroke:none" transform="scale(-.94677 .94677) rotate(-5.547 -2757.41 8386.343)"/><path d="m778.172 354.544 1.68-1.07" style="fill:none;stroke:#a5b5cc;stroke-width:.10562225;stroke-linecap:round;stroke-linejoin:miter;stroke-miterlimit:4;stroke-opacity:1;stroke-dasharray:none" transform="scale(-.94677 .94677) rotate(-5.547 -2757.41 8386.343)"/><path d="M710.061 542.876a2.845 1.557 0 0 1-2.845 1.557 2.845 1.557 0 0 1-2.845-1.557 2.845 1.557 0 0 1 2.845-1.558 2.845 1.557 0 0 1 2.845 1.558z" style="fill:#69696a;fill-opacity:1;stroke:#badcee;stroke-width:1.55002189;stroke-linecap:square;stroke-linejoin:miter;stroke-miterlimit:4;stroke-opacity:1;stroke-dasharray:none;stroke-dashoffset:0" transform="matrix(-.27868 -.00612 -.00709 .32259 270.648 -107.046)"/><path d="M710.061 542.876a2.845 1.557 0 0 1-2.845 1.557 2.845 1.557 0 0 1-2.845-1.557 2.845 1.557 0 0 1 2.845-1.558 2.845 1.557 0 0 1 2.845 1.558z" style="fill:#69696a;fill-opacity:1;stroke:#badcee;stroke-width:1.55002189;stroke-linecap:square;stroke-linejoin:miter;stroke-miterlimit:4;stroke-opacity:1;stroke-dasharray:none;stroke-dashoffset:0" transform="matrix(-.27868 -.00612 -.00709 .32259 268.89 -108.05)"/><path d="M710.061 542.876a2.845 1.557 0 0 1-2.845 1.557 2.845 1.557 0 0 1-2.845-1.557 2.845 1.557 0 0 1 2.845-1.558 2.845 1.557 0 0 1 2.845 1.558z" style="fill:#69696a;fill-opacity:1;stroke:#badcee;stroke-width:1.55002189;stroke-linecap:square;stroke-linejoin:miter;stroke-miterlimit:4;stroke-opacity:1;stroke-dasharray:none;stroke-dashoffset:0" transform="matrix(-.27868 -.00612 -.00709 .32259 278.347 -110.31)"/><path d="m698.094 418.656-1.078.812c-1.354-.654-2.401-.55-3.326-.3l1.764 1.08-1.058.744-1.864-1.188c-.522.57-.068 1.545 1.25 2.008l-1.157.844c-5.34-2.7 1.032-6.65 5.469-4z" style="fill:#fff;stroke:none" transform="translate(-506.053 -359.805) scale(.94677)"/><path d="m693.406 416.364-1.156.781c-3.676-1.776-6.818.89-3.75 1.969l-1.078.86c-5.34-2.7 1.485-6.43 5.984-3.61z" style="fill:#fff;stroke:none" transform="translate(-506.053 -359.805) scale(.94677)"/><text xml:space="preserve" x="730.114" y="240.122" style="font-style:normal;font-variant:normal;font-weight:400;font-stretch:normal;font-size:5.63990068px;line-height:125%;font-family:&quot;BN Machine&quot;;-inkscape-font-specification:&quot;BN Machine&quot;;letter-spacing:0;word-spacing:0;fill:#fff;fill-opacity:1;stroke:none" transform="matrix(.96213 .46565 -.9914 .45183 -316.872 -398.442)"><tspan x="730.114" y="240.122">REV 1.2</tspan></text><text xml:space="preserve" x="718.699" y="234.47" style="font-style:normal;font-variant:normal;font-weight:400;font-stretch:normal;font-size:5.63990068px;line-height:125%;font-family:&quot;BN Machine&quot;;-inkscape-font-specification:&quot;BN Machine&quot;;letter-spacing:0;word-spacing:0;fill:#fff;fill-opacity:1;stroke:none" transform="matrix(.96213 .46565 -.9914 .45183 -316.872 -398.442)"><tspan x="718.699" y="234.47">2011-08-08</tspan></text><text xml:space="preserve" x="613.737" y="325.259" style="font-style:normal;font-variant:normal;font-weight:400;font-stretch:normal;font-size:8.34697056px;line-height:125%;font-family:&quot;BN Machine&quot;;-inkscape-font-specification:&quot;BN Machine&quot;;letter-spacing:0;word-spacing:0;fill:#fff;fill-opacity:1;stroke:none" transform="matrix(1.3376 .63184 -1.08203 .15902 -316.872 -398.442)"><tspan x="613.737" y="325.259">____</tspan></text><path d="m748.5 277.594-9.969 4.5V284.03l.594.406c-.105.39-.479.526-.75.75l.813.625c.442-.273.7-.529.843-.75l.375.282c-.133.323-.468.449-.718.656l.812.625c.383-.237.653-.46.813-.656l.375.25c-.126.343-.462.475-.72.687l.813.625c.398-.246.656-.485.813-.687l.562.406c-.154.258-.461.376-.687.562l.812.625c.34-.21.586-.416.75-.593l1.532 1.062 3.125-1.531c.149.212.42.457.843.719l.813-.625c-.221-.183-.5-.316-.657-.563l.72-.344c.156.203.414.442.812.688l.812-.625c-.214-.177-.496-.3-.656-.531l.594-.282c.159.196.429.42.812.657l.813-.625c-.21-.174-.463-.31-.625-.532l.625-.28c.163.184.423.403.781.624l.813-.625c-.204-.168-.462-.292-.625-.5l1.125-.531-.032-1.812z" style="fill:none;stroke:#000;stroke-width:1.37308931;stroke-miterlimit:4;stroke-dasharray:none" transform="matrix(.62261 0 0 .59061 -334.688 -97.475)"/><path d="m748.5 277.583-10 4.5 7.063 4.937 10.125-4.812z" style="fill:#426b95;fill-opacity:1;stroke:none" transform="matrix(.62261 0 0 .59061 -334.688 -97.475)"/><path d="M738.531 282.083v1.937l7.032 4.875v-1.875z" style="fill:#3b5a73;fill-opacity:1;stroke:none" transform="matrix(.62261 0 0 .59061 -334.688 -97.475)"/><path d="m745.566 287.02-.008 1.883 10.133-4.914v-1.797z" style="fill:#0d1719;fill-opacity:1;stroke:none" transform="matrix(.62261 0 0 .59061 -334.688 -97.475)"/><path d="M739.156 284.176c.021.615-.456.732-.781 1l.813.625c.716-.443 1.05-.8.968-1.125zM740.478 284.989c.021.615-.456.731-.78 1l.812.625c.716-.443 1.05-.8.968-1.125zM741.76 285.895c.02.615-.457.731-.782 1l.813.625c.717-.443 1.05-.8.969-1.125zM743.26 286.801c.02.615-.457.732-.782 1l.813.625c.717-.443 1.05-.8.969-1.125zM754.397 284.02c-.021.615.456.731.78 1l-.812.625c-.716-.443-1.05-.8-.968-1.125zM752.803 284.833c-.021.614.456.73.781 1l-.812.625c-.717-.444-1.05-.8-.97-1.125zM751.24 285.614c-.02.615.457.731.782 1l-.813.625c-.717-.443-1.05-.8-.969-1.125zM749.553 286.458c-.021.614.456.73.781 1l-.812.625c-.717-.444-1.05-.8-.97-1.125z" style="fill:#a5d4e7;fill-opacity:1;stroke:#000;stroke-width:0;stroke-linecap:butt;stroke-linejoin:miter;stroke-miterlimit:4;stroke-opacity:1;stroke-dasharray:none" transform="matrix(.62261 0 0 .59061 -334.688 -97.475)"/><path d="m457.438 490.27 1.625 1.438-11.25 7.437-3.313-.187-3.125-2.125 22.063-13.625-1.5-1 1-1.063 4.187 2.625z" style="fill:#18544b;fill-opacity:1;stroke:none" transform="translate(-316.872 -398.442) scale(.94677)"/><path d="m431.25 424.656-22.5 10.875 50.875 28.125 22.375-13zm1.813 3.188c1.72-.053 3.316.293 4.562 1.094 1.66 1.066 2.393 2.759 2.188 4.562-.206 1.803-1.331 3.752-3.282 5.438-1.95 1.685-4.386 2.801-6.75 3.218-2.364.417-4.714.13-6.375-.937-1.66-1.067-2.33-2.697-2.125-4.5.206-1.803 1.3-3.784 3.25-5.469 1.95-1.685 4.418-2.802 6.781-3.219.591-.104 1.177-.17 1.75-.187zm-.032.312c-.547.018-1.117.056-1.687.156-2.28.402-4.662 1.452-6.563 3.094-1.9 1.642-2.926 3.543-3.125 5.281-.198 1.74.458 3.302 2.032 4.313 1.573 1.01 3.751 1.277 6.03.875 2.28-.402 4.632-1.483 6.532-3.125 1.9-1.642 2.958-3.511 3.156-5.25.199-1.739-.489-3.302-2.062-4.313-1.18-.758-2.671-1.083-4.313-1.03zm-.906.469.156.031.344 1.094.25-.563-.187-.5h.187l.094.313.125-.313.156.032-.219.468.188.594.469-1.031h.156l-.625 1.312h-.063l-.219-.656-.28.625h-.094zm-2.125.156.313 1.438-.125.031-.344-1.438zm4.219.094c.023-.016.036-.005.062 0 .028.008.048.006.063.031.014.025.037.065.031.094-.007.028-.038.045-.063.062-.024.018-.034.005-.062 0-.026-.007-.05-.005-.063-.03-.013-.027-.006-.065 0-.095.007-.028.008-.046.032-.062zm.625 0 .156.062-.469 1.375-.125-.03zm.656.25.125.062-.281.594c.053-.024.102-.027.156-.031a.376.376 0 0 1 .188.031.378.378 0 0 1 .156.156c.03.054.002.102-.031.188-.018.042-.012.084-.032.125l-.062.125c-.03.06-.068.105-.094.156-.026.052-.048.131-.094.219l-.156-.063c.046-.086.102-.142.125-.187.023-.046.035-.1.063-.156.01-.02.016-.063.03-.094.016-.031.049-.06.063-.094a.344.344 0 0 0 .032-.156c0-.039-.036-.065-.094-.094-.026-.012-.035-.024-.063-.03-.027-.008-.052-.001-.062 0a.653.653 0 0 0-.094.03c-.042.016-.09.013-.125.032l-.25.562-.156-.063zm-4.625.031a.382.382 0 0 1 .313.094c.086.072.133.166.156.312a.553.553 0 0 1-.063.375.391.391 0 0 1-.281.188.454.454 0 0 1-.344-.094c-.086-.073-.133-.198-.156-.344a.49.49 0 0 1 .063-.343c.06-.1.17-.164.312-.188zm0 .125a.276.276 0 0 0-.094.031.259.259 0 0 0-.062.063c-.011.013-.013.04-.031.094-.019.053-.04.109-.032.187.024.139.093.24.157.281.064.04.124.044.187.032.032-.005.034-.017.063-.032.028-.015.052-.019.062-.03.012-.014.044-.043.063-.095.018-.051.008-.109 0-.187-.002-.014.004-.049 0-.063-.03-.12-.069-.18-.125-.218-.057-.039-.118-.075-.188-.063zm3.25 0 .156.031-.218.875-.157-.03zm-4.688.219a.392.392 0 0 1 .157.063c.096.058.174.139.219.28a.53.53 0 0 1-.032.376.38.38 0 0 1-.25.219.429.429 0 0 1-.343-.032.556.556 0 0 1-.22-.312.475.475 0 0 1 .032-.344c.046-.107.113-.174.25-.219a.544.544 0 0 1 .188-.03zm-.156.156c-.035.012-.07.013-.093.031-.024.02-.025.05-.032.063a.53.53 0 0 0-.031.312.33.33 0 0 0 .188.22c.069.03.127.052.187.03.03-.01.068-.043.094-.062.026-.02.023-.018.031-.031a.526.526 0 0 0 .031-.312c-.004-.014-.025-.02-.031-.032-.046-.114-.095-.19-.156-.219-.062-.03-.12-.022-.188 0zm-.719.094a.111.111 0 0 1 .094 0c.03.012.042.055.063.094.004.008.026-.008.03 0 .006.008-.002.023 0 .03l-.093.063c-.002-.008-.018-.018-.031-.03-.013-.013-.004-.01-.031 0-.039.019-.083.036-.094.093-.01.056 0 .112 0 .156l.188.531-.125.063-.25-.594c-.018-.043-.047-.091-.063-.125s-.01-.086-.031-.125l.125-.031.062.125c0-.044.01-.112.032-.156.02-.045.08-.074.125-.094zm-.75.375c.064.016.093.059.125.125l.188.406c.021.043.034.084.063.125.028.041.069.068.093.094l-.125.062c-.015-.018-.048-.048-.062-.062-.015-.014-.016-.011-.031-.031-.007.052-.036.079-.063.125a.3.3 0 0 1-.125.125c-.063.029-.135.048-.188.03-.052-.016-.067-.072-.093-.124-.018-.038-.057-.066-.063-.094a.13.13 0 0 1 0-.062c.007-.032.049-.078.094-.125.045-.048.073-.082.125-.125.052-.044.098-.074.125-.094l-.031-.125c-.028-.06-.062-.084-.094-.094-.032-.01-.1.002-.156.031-.04.018-.043.043-.063.063-.02.02-.045.032-.03.063l-.126.062c-.023-.047-.025-.085-.031-.125-.003-.01-.003-.021.031-.063a.641.641 0 0 1 .188-.125c.09-.042.186-.078.25-.062zm-.968.031.062.156a.652.652 0 0 0-.375.125.494.494 0 0 0-.219.313c-.028.129.008.26.094.406.088.135.178.213.313.25a.53.53 0 0 0 .406-.062.908.908 0 0 0 .281-.282l.063.125a.722.722 0 0 1-.125.157c-.052.046-.087.081-.157.125a.689.689 0 0 1-.312.093.683.683 0 0 1-.344-.062.648.648 0 0 1-.281-.25.648.648 0 0 1-.094-.5.706.706 0 0 1 .313-.438c.083-.052.13-.104.187-.125.057-.02.13-.025.188-.03zm5.312.156c1.137-.028 2.206.221 3.031.75 1.102.706 1.574 1.813 1.438 3-.136 1.188-.872 2.456-2.156 3.563-1.285 1.107-2.877 1.85-4.438 2.125-1.56.274-3.086.08-4.187-.625-1.101-.706-1.574-1.813-1.438-3 .136-1.188.872-2.456 2.156-3.563 1.285-1.106 2.877-1.85 4.438-2.125.39-.068.777-.115 1.156-.125zm4.188.032c.109-.017.189-.012.281.062.104.084.158.191.156.281-.002.09-.034.172-.125.282l-.469-.375a.379.379 0 0 0-.125.281c.004.078.021.159.094.219.044.034.104.043.157.062.052.019.087.033.125.031l-.063.125a.555.555 0 0 1-.156-.03.904.904 0 0 1-.188-.126c-.09-.074-.117-.17-.125-.281a.496.496 0 0 1 .125-.344.49.49 0 0 1 .313-.187zm.031.125c-.031.007-.056.035-.094.062l.344.25c.044-.064.052-.111.031-.156a.298.298 0 0 0-.093-.125c-.018-.014-.04-.02-.063-.031-.024-.011-.054 0-.063 0-.009-.001-.03-.007-.062 0zm-8.438.125c-.04.03-.078.079-.125.125-.046.046-.092.085-.125.125.004.018-.004.02 0 .03.004.011.028.024.032.032.011.026.01.053.03.063.021.009.053.019.095 0a.353.353 0 0 0 .125-.157c.023-.055.035-.08.03-.093zm4.22 0c-.357.011-.726.06-1.095.125-1.476.26-3.015.936-4.25 2-1.234 1.063-1.902 2.283-2.03 3.406-.13 1.123.266 2.163 1.28 2.812 1.014.65 2.43.791 3.907.532 1.476-.26 3.047-.937 4.281-2 1.234-1.064 1.903-2.315 2.031-3.438.129-1.123-.298-2.131-1.312-2.781-.76-.487-1.744-.692-2.813-.656zm5.437 0 .093.125-1.093.937-.094-.094zm-6.25.125.328.718.234.282-1.031.671 1.938.204-1.22.375-.468.187-.375-.469h-.813l-.062.688-.75-.125-.375-.813.734.641-.172-1.078s.468.517.686.396c.206-.115.162-.866.19-.927.056-.127.375-.125.375-.125l-.159.747.914-.299zm-6.219.718.187.22.188-.157.063.094-.157.156.344.406c.031.038.036.055.063.063.026.008.068.022.093 0 .016-.015.022-.04.031-.063.01-.023.021-.04.032-.062l.093.093c-.009.028-.012.032-.03.063-.02.031-.068.07-.095.094-.041.036-.073.066-.125.062-.051-.004-.104-.035-.156-.094l-.375-.468-.125.125-.094-.094.125-.125-.187-.219zm12.562.125.063.157-.125.062c.056.018.111.06.156.094a.255.255 0 0 1 .094.125.402.402 0 0 1 .031.187c-.006.054-.04.085-.094.125.064.02.142.059.188.094.046.036.068.093.094.156.031.076.045.128.03.188-.013.06-.073.115-.155.156-.04.02-.084.045-.125.063-.042.017-.083.046-.125.062l-.157.063c-.053.02-.126.028-.218.062l-.063-.125c.091-.034.171-.076.219-.094l.156-.062.063-.031c.016-.006.045.007.062 0s.015-.024.031-.032a.496.496 0 0 0 .157-.093c.025-.03.023-.065 0-.125a.329.329 0 0 0-.032-.063c-.015-.023-.024-.056-.03-.062-.013-.01-.052-.014-.095-.031-.042-.018-.086-.021-.125-.032l-.562.219-.063-.156.563-.219c.057-.021.104-.031.125-.062.02-.032.021-.102 0-.157a.329.329 0 0 0-.031-.062c-.015-.024-.024-.025-.031-.031-.013-.01-.052-.046-.094-.063-.043-.017-.087-.02-.125-.031l-.563.219-.062-.125.625-.25c.044-.018.087-.045.125-.063.038-.018.061-.045.093-.062zm-13.093.282c.03 0 .07.009.093.03.022.023.03.066.032.095 0 .029-.01.04-.032.062-.022.021-.033.032-.062.031a.156.156 0 0 1-.094-.031c-.022-.023-.029-.033-.031-.062a.141.141 0 0 1 .031-.094c.022-.022.033-.032.063-.031zm9.906.187 1.219 1.063-1.364.654.801 1.002s-1.616-1.18-1.826-.916c-.304.382.764 1.768.764 1.916 0 .25-.532.469-.532.469l-1.482.606.639 1.019-1.094.093c1.563-.327-.48-1.083-.531-1.343l1.463-.509-.776-.585-2.844.375.47-1.072.609.494.343-1.25 1.564-.406-1.22.75-.16.834 1.738-1.038.575 1.42.05-2.248 2.003-.293-1.722-.691zm-10.125.063c.03 0 .038.009.062.03.022.023.062.034.063.063 0 .03-.01.072-.031.094a.146.146 0 0 1-.094.031c-.029 0-.04-.01-.062-.031-.023-.023-.03-.064-.032-.094-.002-.03-.02-.04 0-.062a.143.143 0 0 1 .094-.031zm.5.03c.066-.005.103.012.156.063l.313.313c.034.033.084.034.125.062.04.029.062.078.093.094l-.093.094a.807.807 0 0 0-.063-.031c-.018-.008-.04-.018-.062-.032a.384.384 0 0 1 0 .157.334.334 0 0 1-.094.156.214.214 0 0 1-.156.062c-.055.002-.083-.022-.125-.062-.03-.03-.079-.038-.094-.063-.015-.024.002-.046 0-.062-.004-.032.005-.065.031-.125.027-.06.06-.13.094-.188.034-.058.043-.097.062-.125l-.093-.093c-.046-.047-.092-.065-.125-.063-.034.002-.05.016-.094.063a.307.307 0 0 0-.062.093c-.012.026-.024.039 0 .063l-.094.125c-.038-.037-.044-.09-.063-.125-.006-.01-.018-.044 0-.094.019-.05.06-.085.125-.156a.402.402 0 0 1 .22-.125zm.281.376a1.198 1.198 0 0 0-.156.312c.01.017.024.054.031.063.02.02.04.03.063.031a.114.114 0 0 0 .093-.031.252.252 0 0 0 .063-.156c.003-.06.008-.115 0-.125zm-1.25.187.219.188.156-.188.094.063-.156.187.437.344c.038.03.067.028.094.031.027.003.042-.005.062-.03a.16.16 0 0 0 .032-.063c.005-.025.025-.038.03-.063l.094.063c-.003.029-.018.06-.03.093-.014.035-.01.066-.032.094a.278.278 0 0 1-.156.094c-.052.006-.094-.015-.156-.063l-.47-.375-.093.125-.094-.062.094-.125-.219-.22zm-.469.438c.029-.005.07-.016.094 0 .024.017.024.033.031.062.008.03.015.07 0 .094-.016.022-.033.028-.062.031-.03.003-.068.016-.094 0-.023-.017-.024-.035-.031-.062-.007-.028-.014-.071 0-.094.017-.023.034-.026.062-.031zm3.907.094.843.187-.406.438.188.625 1.562-.344c-.291.312-.669.024-.875.937l-.312.375-.144-.612-.302.69-.623-.74-.634.381.723.369-.02.725-.799-.892.392 1.43-1.03-.82.25-.656s.541-.737.53-.875c-.01-.138.805.008.805.008zm-3.563.125.75.5-.093.125-.75-.5zm14.75.125c.03 0 .072-.018.094 0 .022.018.03.067.031.093 0 .029-.01.042-.031.063-.02.02-.034.029-.063.03a.166.166 0 0 1-.093-.03c-.024-.02-.03-.034-.031-.063 0-.027.01-.043.03-.062.022-.02.033-.03.063-.031zm-.312.03v.157l-.907.031v-.156zm-14.688.282.125.094a.364.364 0 0 0-.125.093.659.659 0 0 0-.093.125.276.276 0 0 0-.032.125c0 .04.026.042.063.063.05.019.123.022.187-.031.065-.054.113-.108.188-.157a.267.267 0 0 1 .25-.03.236.236 0 0 1 .125.155.396.396 0 0 1-.031.282c-.026.05-.06.086-.094.125a.489.489 0 0 1-.125.093l-.125-.093c.047-.026.094-.037.125-.063a.43.43 0 0 0 .094-.125c.027-.054.037-.083.03-.125a.123.123 0 0 0-.062-.093.184.184 0 0 0-.187.03c-.065.054-.113.109-.188.157a.27.27 0 0 1-.25.031.229.229 0 0 1-.125-.156c-.016-.071.012-.15.063-.25.03-.056.06-.12.093-.156.034-.036.063-.073.094-.094zm13.781.25.657.125c.05.009.084.027.125.031.04.004.089-.002.125 0l-.031.125h-.125c.038.045.042.104.062.156.02.053.042.12.031.188a.343.343 0 0 1-.093.187c-.043.045-.097.07-.188.063-.045-.004-.08-.024-.125-.031-.044-.007-.112-.024-.156-.031-.067-.012-.131-.021-.188-.032-.056-.01-.122-.011-.219-.03l.032-.157c.095.019.168.022.218.031.05.01.095.02.157.031l.093.031c.017.003.045-.003.063 0 .018.003.013-.002.031 0a.36.36 0 0 0 .156 0c.038-.012.083-.03.094-.093.004-.027 0-.066 0-.094 0-.028.003-.053 0-.062-.006-.015-.035-.026-.062-.063-.028-.037-.067-.064-.094-.094l-.594-.125zm-14.187.531c.029-.015.051-.009.094 0 .009.002.022-.002.03 0 .01.002.024.029.032.031l-.031.094c-.007-.004-.013-.002-.031 0-.018.002-.02.005-.032.031-.01.043-.004.08.032.125.035.045.06.097.093.125l.563.188-.063.156-.625-.219c-.044-.015-.088-.021-.125-.03a2.622 2.622 0 0 0-.125-.032l.063-.156.156.031c-.033-.028-.073-.048-.093-.093a.243.243 0 0 1 0-.157c.013-.04.033-.078.062-.093zm14 .531a.195.195 0 0 1 .156 0c.039.017.07.046.094.063.023.017.023.017.031.031a.341.341 0 0 1 .031.156c-.002.066-.021.121-.03.188-.01.067-.025.123-.032.156l.125.031c.06.027.095.046.125.032a.16.16 0 0 0 .094-.094.417.417 0 0 0 .03-.125c.002-.028-.03-.049-.062-.063l.063-.125c.048.02.094.037.125.063.009.006-.002.04 0 .094a.51.51 0 0 1-.031.218.372.372 0 0 1-.157.188c-.058.03-.119.028-.187 0l-.406-.156c-.044-.018-.077-.05-.125-.062-.049-.012-.09-.028-.125-.032l.062-.125c.024.003.042 0 .063 0 .02.001.037.027.062.032a.445.445 0 0 1-.062-.157.364.364 0 0 1 .031-.187.237.237 0 0 1 .125-.125zm.031.157c-.022.007-.044.02-.062.062a.312.312 0 0 0 0 .188.19.19 0 0 0 .062.093l.125.032c.011-.05-.004-.091 0-.157.004-.065.034-.136.031-.187-.015-.012-.052.005-.062 0-.01-.005-.023-.028-.031-.031-.026-.012-.041-.007-.063 0zm-14.125.218c.055-.005.117-.01.188 0l-.063.594c.01.003-.006.03 0 .031.006.001.02-.002.031 0 .11.016.216-.02.282-.062.066-.042.079-.094.093-.188a.466.466 0 0 0 0-.156c-.01-.054-.01-.124-.03-.156l.124.031c.02.042.054.07.063.125.008.055-.02.135-.032.219-.018.115-.063.218-.156.281-.092.064-.224.082-.375.063a.482.482 0 0 1-.312-.188c-.07-.085-.11-.164-.094-.281.02-.132.078-.237.156-.281a.277.277 0 0 1 .125-.032zm-.031.125a.177.177 0 0 0-.063.063.346.346 0 0 0-.062.156.218.218 0 0 0 0 .063c.003.026.027.055.031.062.004.008.01.008.031.031a.281.281 0 0 0 .094.063l.063-.438c-.04-.003-.068-.01-.094 0zm13.5.657.094.062.25.781.28-.375.095.063-.375.562-.094-.062-.25-.813-.313.407-.093-.063zm-8.875.062 1.25.219-.094.453 1.156-.906-.682.952.245.548 1.094-.61-.445.807 1.038-.338-.218 1.11-1.313-.563s-.11.461-.219.547c-.108.086-.375-.094-.375-.094l-1 .188 1.204-.61-1.235-.515.719-.062zm-4.906.188.937.25.031.093-.906.47-.031-.188.687-.313-.718-.187zm13.187.562c.063-.015.121.002.188.063l.531.468-.125.125-.406-.406a.373.373 0 0 0-.125-.093c-.042-.016-.109.014-.157.062-.038.04-.045.072-.062.125-.002.036-.006.086 0 .125.006.039.023.073.031.094l.438.406-.125.125-.47-.469c-.029-.028-.06-.035-.093-.062-.032-.028-.06-.07-.093-.094l.093-.094.094.063a.423.423 0 0 1 0-.188c.014-.05.075-.074.125-.125.056-.06.093-.11.156-.125zm-12.156.344.031.125-.844.281-.062-.156zm-1.188.312c.029-.008.067.02.094.032.028.012.022.035.031.062.007.026.016.038 0 .063-.016.024-.034.053-.062.062-.028.008-.068-.02-.094-.031-.025-.012-.022-.006-.031-.031-.007-.028-.014-.069 0-.094.014-.025.035-.053.062-.062zm1.344.157.063.125c-.084.049-.144.099-.188.125-.043.026-.072.03-.125.062l-.093.063c-.015.009-.016.021-.032.03-.015.01-.047.022-.062.032a.238.238 0 0 0-.094.094c-.02.034-.034.07 0 .125.015.023.044.042.063.062.018.02.023.058.03.063.015.007.05-.01.094 0 .045.01.085.027.125.031l.532-.312.062.125-.562.343c-.044.027-.061.07-.094.094-.033.024-.066.04-.094.062l-.093-.125.125-.093a.654.654 0 0 1-.188-.063.33.33 0 0 1-.125-.125.314.314 0 0 1-.062-.187c.003-.062.05-.133.125-.188.036-.026.087-.038.125-.062.038-.024.055-.04.093-.063l.157-.093c.049-.03.133-.077.218-.125zm10.281.656.625.969.375-.219.063.094-.844.562-.062-.094.343-.25-.625-1zm-9.625.406c.123 0 .252.055.375.156a.61.61 0 0 1 .22.313c.026.117-.01.233-.094.344l-.594.718-.094-.125.531-.656c.083-.11.12-.196.094-.281-.025-.085-.093-.14-.156-.188-.069-.058-.13-.119-.219-.125-.089-.006-.192.053-.281.157l-.531.656-.125-.094.53-.656c.108-.13.222-.219.344-.219zm8.813.063a.52.52 0 0 1 .438.281.54.54 0 0 1 .062.375.37.37 0 0 1-.188.25c-.118.062-.23.068-.312.031-.082-.037-.154-.123-.219-.25l.531-.281c-.003-.01.002-.026 0-.031-.002-.005-.026.01-.03 0-.053-.098-.116-.19-.188-.22-.073-.028-.135-.011-.219.032a.462.462 0 0 0-.125.094.504.504 0 0 0-.094.125l-.062-.125a.562.562 0 0 1 .093-.125c.04-.04.082-.054.157-.094.052-.027.104-.058.156-.062zm16.875.312 2.25 1.25-.313.125-.968-.531-2.875 1.125-.344-.188 2.875-1.125-.969-.53zm-17.688.094c.054 0 .106.008.157.031a.515.515 0 0 1 .25.281.522.522 0 0 1 0 .407.378.378 0 0 1-.219.187c-.078.034-.128.064-.188.063a.202.202 0 0 1-.156-.094c-.004-.008.005-.02 0-.031s.004-.021 0-.031l.125-.032c.015.036.035.029.063.032.027.003.044.021.093 0 .029-.013.079-.022.094-.032a.128.128 0 0 0 .031-.03c.012-.007.014-.038.032-.095.017-.056.01-.138-.032-.25-.052-.114-.111-.189-.187-.218a.286.286 0 0 0-.219 0c-.037.016-.087.027-.125.062-.038.035-.042.089-.062.125l-.094-.125a.583.583 0 0 1 .125-.125c.043-.033.076-.073.125-.094a.534.534 0 0 1 .187-.03zm1.157.125-.375.187c.04.066.075.096.125.094.05 0 .103 0 .156-.031.02-.011.043-.014.062-.031.02-.018.028-.055.032-.063s-.006-.03 0-.062.01-.048 0-.094zm-1.782.125.438 1.375-.156.062-.188-.656a.55.55 0 0 1-.093.156.36.36 0 0 1-.157.094.276.276 0 0 1-.187 0 .262.262 0 0 1-.156-.156c-.017-.042-.017-.082-.032-.125-.014-.043-.049-.082-.062-.125-.02-.065-.046-.133-.063-.188-.017-.055-.034-.124-.062-.218l.156-.032c.027.094.048.14.063.188.014.049.043.128.062.187.007.021-.01.03 0 .063s.05.06.063.094c.022.065.035.128.062.156.027.028.064.02.125 0 .027-.01.07-.018.094-.031.024-.014.024-.025.031-.032.01-.011.043-.02.062-.062.02-.041.02-.087.032-.125l-.188-.594zm-5.968.156c.045-.011.1-.002.156 0 .055.002.139.004.219.031.11.04.173.117.218.22a.522.522 0 0 1 0 .374c-.052.146-.121.228-.218.281a.374.374 0 0 1-.313.032c-.126-.044-.22-.103-.25-.188s-.017-.21.031-.344l.594.22c.005-.01-.002-.027 0-.032.002-.005-.004-.02 0-.031.036-.105.06-.178.031-.25-.029-.073-.098-.125-.187-.157a.477.477 0 0 0-.156-.03.481.481 0 0 0-.157.03zm4.906.156.125.625c.01.05.051.118.062.157.012.039.02.06.032.093l-.157.032-.03-.125c-.028.052-.084.086-.126.125a.34.34 0 0 1-.156.093.387.387 0 0 1-.219 0c-.057-.023-.099-.1-.125-.187a1.811 1.811 0 0 1-.031-.125c-.01-.044-.022-.081-.031-.125-.014-.067-.02-.131-.031-.188-.011-.056-.015-.121-.032-.218l.157-.032c.017.096.021.17.03.22l.032.155.031.094c.003.017-.004.013 0 .031.004.018-.005.045 0 .063a.416.416 0 0 0 .063.156c.025.03.093.044.156.031.027-.006.037-.02.063-.031a.413.413 0 0 0 .062-.031c.011-.01.007-.024.031-.063s.046-.088.063-.125l-.125-.593zm-3.906.094.125.031c-.02.096-.022.169-.031.22-.01.05-.021.094-.032.155-.004.022.006.06 0 .094s-.027.057-.03.094a.368.368 0 0 0 0 .156c.01.037.06.083.124.094.028.004.066 0 .094 0 .028-.001.022.003.031 0a.73.73 0 0 0 .094-.063c.036-.027.065-.035.093-.062l.094-.625.156.03-.25 1.438-.156-.03.125-.657a.547.547 0 0 1-.156.094c-.051.019-.088.01-.156 0a.345.345 0 0 1-.188-.094c-.045-.043-.07-.096-.062-.188.005-.044-.007-.08 0-.125.007-.044.023-.112.03-.156.012-.067.022-.1.032-.156.01-.057.044-.153.063-.25zm2.843.094.125.906-.156.031-.125-.906zm-1.625.031c.122.006.21.07.282.156.071.086.13.216.125.375-.013.165-.068.273-.157.344a.403.403 0 0 1-.28.094c-.085-.003-.166-.004-.22-.031-.053-.028-.088-.097-.093-.157v-.062l.156.031c-.002.039.008.049.031.063.024.014.072.03.125.031.031.001.045.002.063 0 .018-.002.024-.027.03-.031.014-.001.054-.019.095-.063.04-.043.052-.1.062-.218.002-.126-.007-.222-.062-.281a.264.264 0 0 0-.188-.094c-.04-.001-.107-.016-.156 0a.44.44 0 0 0-.125.062v-.125a.527.527 0 0 1 .156-.062c.054-.011.103-.034.156-.031zm.938 0c.056-.003.105.021.156.031.051.01.088.01.125.031v.157a.73.73 0 0 0-.125-.063.415.415 0 0 0-.156-.031.307.307 0 0 0-.156.062c-.033.027-.033.055-.031.094.009.054.046.096.125.125.078.03.17.054.25.094.079.04.114.1.125.187.004.073-.01.138-.063.188a.4.4 0 0 1-.25.094c-.064.003-.14.01-.188 0-.048-.011-.09-.047-.125-.063l.032-.125a.297.297 0 0 0 .125.063c.05.01.11.003.156 0a.283.283 0 0 0 .125-.032c.033-.02.031-.05.031-.093-.009-.053-.046-.097-.125-.125-.079-.029-.17-.054-.25-.094-.08-.04-.114-.099-.125-.188a.23.23 0 0 1 .063-.187.467.467 0 0 1 .28-.125zm-3.219.219c-.02.075-.004.12.031.156.036.035.098.045.157.063.021.007.036.029.062.03.026.003.023.004.031 0a.278.278 0 0 0 .063-.03.383.383 0 0 0 .094-.094zm3.969.875c.027-.002.041.011.062.031.022.02.058.033.063.062a.167.167 0 0 1-.031.094c-.016.023-.036.027-.063.031a.15.15 0 0 1-.093-.03c-.023-.02-.027-.035-.032-.063-.003-.03.015-.038.032-.063.016-.025.034-.058.062-.062zm21.875.031c.364.015.672.104.937.25.298.165.424.302.375.437-.048.136-.243.274-.593.407l-1.344-.75c-.029.007-.078.026-.094.03-.015.006-.035.022-.062.032-.267.105-.409.194-.438.313-.029.119.072.257.281.375.127.068.276.108.438.156.162.047.282.082.406.094l-.312.156c-.148-.024-.28-.075-.438-.125a2.927 2.927 0 0 1-.531-.219c-.258-.145-.373-.297-.344-.469.03-.172.232-.353.594-.5a2.85 2.85 0 0 1 1.125-.187zm.062.219c-.104-.001-.237.035-.375.062l1 .531c.175-.08.234-.142.188-.218a.717.717 0 0 0-.281-.25c-.052-.028-.116-.037-.188-.063-.071-.025-.128-.028-.156-.031-.03-.005-.083-.03-.188-.031zm-7.28.343.343.188-2.063.812c-.32.136-.447.269-.406.407.042.138.16.248.344.343.195.115.433.209.719.25.286.042.598 0 .937-.125l2.063-.812.343.187-2.093.813c-.412.156-.82.232-1.219.187a2.959 2.959 0 0 1-1.125-.375c-.298-.166-.437-.343-.469-.53-.031-.188.111-.365.438-.5zm9.343.594c.372.036.66.128.875.25.19.104.313.19.375.281.062.091.033.185-.094.25-.02.01-.034.02-.062.032-.028.011-.067.02-.094.03l-.312-.187c.093-.035.115-.082.093-.125-.021-.042-.066-.09-.187-.156a1.986 1.986 0 0 0-.188-.094c-.047-.019-.1-.026-.125-.03-.032-.015-.117-.027-.312-.032-.196-.005-.452.05-.75.156-.297.124-.461.25-.469.375-.008.126.06.226.219.313.09.049.224.112.375.156.15.044.301.077.437.094l-.312.125c-.18-.03-.35-.073-.5-.125-.15-.053-.288-.09-.406-.157-.272-.151-.375-.329-.344-.5.031-.17.212-.315.594-.468.411-.149.815-.223 1.187-.188zm3.281.375.344.188-1.656.625a3.4 3.4 0 0 1 .562.062c.171.032.313.072.469.156.185.1.313.217.344.313.03.096-.079.185-.282.281-.102.046-.204.082-.312.125-.108.044-.203.083-.313.125-.163.064-.328.134-.468.188-.14.053-.32.128-.563.218l-.344-.187c.242-.088.407-.171.532-.219.124-.047.287-.097.437-.156.053-.02.105-.03.188-.063s.165-.087.25-.125c.164-.067.267-.101.312-.156.045-.055.019-.139-.125-.219-.065-.034-.144-.065-.219-.093-.074-.029-.126-.056-.156-.063-.049-.009-.163.007-.312 0-.15-.007-.277-.033-.407-.03l-1.468.593-.344-.188zm-10.562 1.094.312.187-.281.157c.194.003.384.03.562.062.18.033.346.073.5.156.187.1.283.217.313.313.03.096-.047.185-.25.281-.1.047-.205.082-.313.125-.107.044-.203.083-.312.125-.164.064-.328.134-.469.188-.14.053-.317.129-.562.218l-.344-.187c.24-.089.407-.17.531-.218l.406-.156.22-.063c.04-.016.08-.045.124-.063.044-.017.084-.044.125-.062.164-.067.27-.132.313-.188.043-.055-.013-.107-.156-.187-.063-.034-.114-.065-.188-.094-.074-.028-.126-.056-.156-.062a2.662 2.662 0 0 0-.313-.031c-.15-.007-.274 0-.406 0l-1.469.562-.344-.188 1.563-.593c.124-.049.253-.114.344-.156.09-.043.173-.087.25-.125zm-8.032.344c.029.013.048.039.094.062.046.024.07.019.094.031.151.078.296.162.406.22.11.056.25.132.406.218.301.174.424.305.407.437-.018.133-.108.236-.313.313-.204.078-.431.12-.656.125-.225.005-.418-.014-.594-.094.192.118.267.222.25.344-.017.122-.138.236-.406.344-.266.1-.558.155-.875.125a2.36 2.36 0 0 1-.906-.282l-1.094-.593zm.063.312-1.063.406.5.282c.206.112.408.17.594.187.187.017.369-.03.531-.093.15-.06.215-.13.22-.22.003-.089-.081-.183-.25-.28zm19.594.094.312.187-.25.157c.195.003.384-.001.563.03.179.033.345.105.5.188.187.1.282.186.312.282.03.095-.047.216-.25.312-.1.047-.205.082-.312.125-.107.044-.235.083-.344.125-.164.064-.297.134-.438.188-.14.053-.348.129-.593.218l-.344-.187c.24-.09.438-.171.562-.219.125-.047.256-.097.407-.156l.218-.094c.042-.016.081-.013.125-.031.044-.018.084-.044.125-.063.164-.067.27-.132.313-.187.043-.056-.013-.108-.156-.188a2.044 2.044 0 0 0-.219-.093c-.074-.029-.126-.056-.156-.063a1.947 1.947 0 0 0-.282-.03c-.15-.008-.305-.001-.437 0l-1.469.562-.344-.188 1.594-.625c.125-.049.222-.083.313-.125.09-.042.173-.086.25-.125zm-8.188.25c.093.003.188.03.25.062.062.037.07.081.063.125-.007.045-.026.066-.094.094a.647.647 0 0 1-.25.031.582.582 0 0 1-.25-.062c-.057-.034-.106-.05-.094-.094.012-.044.054-.095.125-.125a.663.663 0 0 1 .25-.031zm-12.781.187-1.219.47.563.312c.234.131.444.222.656.25.212.027.438-.01.656-.094.203-.082.302-.174.281-.281-.02-.108-.14-.231-.343-.344zm11.781.188.344.187-2.188.875-.343-.218zm12.656.375c.093.003.157-.001.22.031.061.037.1.08.093.125-.007.045-.057.097-.125.125a.647.647 0 0 1-.25.031.582.582 0 0 1-.25-.062c-.057-.034-.075-.08-.063-.125.013-.045.054-.064.125-.094a.663.663 0 0 1 .25-.031zm-11.875.031.344.219-1.094 1 2.22-.375.343.187-3 .47-.281-.157zm10.875.344.344.187-2.187.844-.344-.187zm-20.5.062.313.188-.281.156c.134-.02.275-.013.437 0 .162.013.322.035.438.094.093.052.126.106.125.156-.001.05-.032.11-.125.156-.02.01-.044.021-.063.032-.018.01-.04.022-.062.03l-.282-.124c.022-.006.04-.038.063-.063.023-.024-.003-.056-.063-.093a.962.962 0 0 0-.437-.063c-.187.008-.333.044-.469.063l-1.406.53-.344-.187 1.594-.625c.113-.044.228-.086.312-.125.085-.039.156-.077.25-.125zm21.157.594c.103-.011.193-.012.312 0 .238.025.495.112.75.25.14.08.24.147.313.219.073.071.126.13.156.187l-.375.126a.407.407 0 0 0-.125-.25 1.408 1.408 0 0 0-.281-.188 1.254 1.254 0 0 0-.344-.125.631.631 0 0 0-.344.032c-.114.057-.125.155-.031.281.094.126.186.237.25.375s-.016.252-.219.344a1.36 1.36 0 0 1-.625.093 2.002 2.002 0 0 1-1.093-.468.538.538 0 0 1-.157-.22l.407-.093a.555.555 0 0 0 .093.188c.045.06.12.146.25.218.137.075.302.107.438.125a.687.687 0 0 0 .344-.03c.117-.06.123-.124.03-.25a2.674 2.674 0 0 1-.25-.407c-.065-.137.021-.254.22-.344.087-.034.177-.051.28-.062zm-19.782.313c.03-.008.12-.008.282.03.162.04.34.133.562.25.22.124.335.21.344.313.009.103-.071.212-.25.282l-1.031.375c-.114.045-.212.1-.313.156-.101.056-.19.11-.25.156l-.312-.187c.042-.03.094-.036.125-.063.03-.027.044-.064.093-.094a2.525 2.525 0 0 1-.5-.03c-.17-.028-.338-.101-.5-.188-.152-.088-.223-.166-.218-.25.004-.085.079-.163.218-.22.103-.038.2-.044.282-.062.082-.017.133-.031.187-.03.106.001.277.039.469.093.192.054.377.09.562.156.186.066.32.12.407.156l.312-.125c.161-.06.219-.104.219-.156 0-.052-.073-.11-.219-.187-.095-.055-.168-.102-.25-.125a.391.391 0 0 0-.25 0l-.344-.156c.127-.05.256-.072.375-.094zm10.282.062c.364.015.672.104.937.25.297.165.424.302.375.438-.048.136-.244.273-.594.406l-1.343-.75c-.03.007-.047.026-.063.031-.015.005-.035.02-.062.031-.267.105-.409.194-.438.313-.029.119.04.257.25.375.127.068.276.109.438.156.161.048.313.082.437.094l-.312.156a3.378 3.378 0 0 1-.469-.125 2.927 2.927 0 0 1-.531-.219c-.258-.145-.373-.297-.344-.469.029-.171.232-.353.594-.5a2.85 2.85 0 0 1 1.125-.187zm.062.219a1.575 1.575 0 0 0-.344.031l.97.563c.174-.08.233-.175.187-.25-.047-.076-.14-.146-.282-.22-.052-.027-.116-.036-.187-.062-.072-.025-.097-.06-.125-.062-.03-.005-.114 0-.219 0zm-11.469.375c-.055.011-.127.022-.156.031-.029.01-.042.023-.062.031-.072.026-.115.06-.125.094-.01.034.055.068.156.125.149.07.302.107.5.125.197.018.307.041.344.031l.343-.125c-.133-.054-.31-.131-.5-.187-.189-.057-.343-.089-.5-.125zm22.47.125c.195-.028.407-.018.593 0 .372.035.66.097.875.219.19.103.313.221.375.312s.033.154-.094.219c-.02.01-.034.02-.062.031-.028.011-.067.02-.094.031l-.312-.156c.093-.035.115-.083.093-.125-.021-.042-.097-.09-.219-.156-.069-.038-.108-.075-.156-.094-.047-.019-.1-.027-.125-.031-.032-.015-.148-.027-.344-.031-.195-.005-.452.05-.75.156-.297.123-.43.25-.437.375-.008.126.06.226.219.312.09.05.224.082.375.125.15.044.301.078.437.094l-.312.156a2.58 2.58 0 0 1-.906-.313c-.272-.15-.407-.297-.375-.468.03-.17.243-.347.625-.5.205-.074.397-.128.593-.156zm-19.188.281.343.188-1.406.53a.851.851 0 0 0-.312.188c-.06.06-.021.134.125.22.125.069.267.116.437.155.117.012.246.032.375.032.13 0 .243-.024.313-.032l1.437-.562.344.187-1.594.625c-.1.04-.184.083-.281.125-.097.043-.195.08-.281.125l-.313-.156.281-.156a2.605 2.605 0 0 1-.593-.063 1.639 1.639 0 0 1-.469-.187c-.189-.101-.308-.181-.344-.281-.035-.1.038-.195.25-.282zm10.375 0 .312.188-.312.156c.134-.02.306-.013.468 0 .163.013.291.065.407.125.093.052.126.106.125.156-.001.05-.032.078-.125.125l-.063.031c-.018.01-.04.023-.062.032l-.282-.125c.022-.006.04-.007.063-.032.023-.024.028-.056-.031-.093a.962.962 0 0 0-.438-.063c-.186.008-.364.013-.5.031l-1.406.563-.344-.218 1.594-.594c.113-.044.228-.086.313-.125.084-.039.186-.109.28-.156zm12.687.063.344.187-1.656.656c.193.003.36.03.531.063.171.032.344.071.5.156.185.099.282.216.312.313.031.096-.047.185-.25.28-.102.047-.204.083-.312.126-.108.043-.203.083-.313.125-.163.064-.328.134-.468.187-.14.054-.32.128-.563.22l-.344-.188c.242-.089.407-.172.532-.22.124-.046.256-.097.406-.155.053-.021.136-.06.219-.094.083-.033.165-.057.25-.094.164-.067.267-.133.312-.187.045-.055-.012-.108-.156-.188-.065-.035-.113-.065-.188-.093-.074-.03-.126-.057-.156-.063a2.631 2.631 0 0 0-.312-.031c-.15-.007-.277-.002-.407 0l-1.5.562-.343-.187zm-11.625.843c.103-.01.225-.012.344 0 .237.025.494.112.75.25.14.08.239.147.312.22.074.07.126.13.157.187l-.375.125a.462.462 0 0 0-.157-.25 1.408 1.408 0 0 0-.28-.188c-.095-.053-.193-.069-.313-.094a.638.638 0 0 0-.344 0c-.114.058-.125.155-.031.282.094.126.154.268.219.406.064.138.015.252-.188.344-.172.068-.403.082-.656.062a2.002 2.002 0 0 1-1.094-.469.37.37 0 0 1-.125-.187l.375-.125c.027.084.049.158.094.219.045.06.15.115.281.187.137.074.27.138.406.156a.687.687 0 0 0 .344-.03c.117-.06.124-.155.031-.282-.092-.127-.153-.269-.219-.406-.065-.138-.01-.254.188-.344.088-.034.178-.051.281-.063zm-8.969.438.313.187-.281.157c.194.003.383-.001.562.03.18.033.346.105.5.188.187.1.283.186.313.282.03.095-.047.216-.25.312-.1.047-.206.082-.313.125-.107.044-.203.083-.312.125-.164.064-.329.134-.469.188-.14.053-.317.129-.563.218l-.343-.187c.24-.09.407-.171.531-.219.124-.048.256-.097.406-.156l.219-.094c.042-.016.081-.013.125-.031.044-.018.083-.044.125-.063.164-.067.269-.132.312-.187.044-.056-.012-.108-.156-.188-.062-.033-.113-.065-.187-.093-.074-.029-.127-.056-.157-.063a2.662 2.662 0 0 0-.312-.031c-.15-.007-.275 0-.406 0l-1.5.563-.344-.188 1.594-.625c.124-.049.221-.083.312-.125.091-.042.205-.086.281-.125zm12.22.156c.092.003.187 0 .25.031.061.037.068.08.062.125-.007.045-.026.097-.094.125a.647.647 0 0 1-.25.032.582.582 0 0 1-.25-.063c-.057-.034-.106-.08-.094-.125.012-.044.054-.064.125-.094a.663.663 0 0 1 .25-.03zm-1 .375.343.188-2.188.843-.343-.187zm10.25.188c.363.014.671.104.937.25.297.164.423.301.375.437-.049.136-.244.273-.594.406l-1.344-.749c-.029.007-.047.026-.062.031-.016.005-.036-.01-.063 0-.266.105-.408.225-.437.344-.03.119.04.226.25.344.126.068.276.14.437.187.162.048.313.082.438.094l-.313.156a3.378 3.378 0 0 1-.469-.125 2.927 2.927 0 0 1-.53-.219c-.259-.145-.374-.328-.344-.5.029-.172.231-.321.593-.468a2.85 2.85 0 0 1 1.125-.188zm-8.345.156.313.187-.719.282.531.28-.312.126-.531-.281-1.282.5c-.118.045-.195.085-.218.125-.023.04.018.083.093.125a.75.75 0 0 0 .188.062c.077.017.141.045.219.063l-.282.125c-.093-.016-.176-.03-.28-.063a1.588 1.588 0 0 1-.282-.125c-.125-.068-.193-.139-.188-.219.006-.08.095-.174.282-.25l1.437-.53-.375-.22.281-.093.375.187zm8.407.062a1.575 1.575 0 0 0-.344.032l.969.562c.174-.08.265-.174.218-.25-.046-.076-.17-.146-.312-.219-.052-.027-.085-.037-.156-.062-.072-.025-.128-.06-.157-.063-.029-.005-.113.001-.218 0zm-19.563.47c.103-.012.225-.013.344 0 .237.024.463.111.719.25.14.079.27.146.343.218.074.071.126.13.157.187l-.407.125a.407.407 0 0 0-.125-.25 1.408 1.408 0 0 0-.28-.187 1.05 1.05 0 0 0-.313-.125.631.631 0 0 0-.344.031c-.114.057-.125.155-.031.281.094.127.154.237.219.375.064.138.015.252-.188.344a1.502 1.502 0 0 1-.656.094 2.002 2.002 0 0 1-1.094-.469.538.538 0 0 1-.156-.219l.406-.093a.555.555 0 0 0 .094.187c.045.06.15.146.281.219.137.074.27.106.406.125.136.019.249.036.344 0 .117-.059.124-.155.031-.281-.092-.127-.153-.27-.219-.407-.065-.137-.01-.254.188-.343.088-.035.178-.052.281-.063zm12.625.218c.098.003.18.025.25.062.067.04.102.08.094.125-.008.046-.047.093-.125.125a.596.596 0 0 1-.25.032.599.599 0 0 1-.25-.063c-.066-.039-.1-.08-.094-.125.007-.044.052-.095.125-.125a.612.612 0 0 1 .25-.031zm-1.062.312c.03-.008.12.024.281.063.162.04.371.101.594.219.219.123.303.24.312.343.01.103-.071.18-.25.25l-1 .407c-.114.045-.242.1-.344.156-.1.056-.158.11-.218.156l-.344-.187c.042-.03.094-.067.125-.094.03-.027.076-.032.125-.063-.172.006-.36-.035-.531-.062a1.548 1.548 0 0 1-.5-.156c-.152-.088-.223-.166-.219-.25.004-.085.079-.163.219-.22.102-.038.199-.075.281-.093a1.13 1.13 0 0 1 .219-.031c.106.002.245.04.437.094s.377.122.563.187c.185.066.318.121.406.156l.312-.125c.161-.06.25-.135.25-.187 0-.052-.072-.11-.218-.188a1.332 1.332 0 0 0-.282-.125c-.082-.023-.166 0-.25.032l-.343-.188c.126-.05.255-.072.375-.094zm1.812.094c.098.003.18.026.25.063.067.038.102.079.094.125-.008.045-.047.093-.125.125a.596.596 0 0 1-.25.03.599.599 0 0 1-.25-.062c-.066-.038-.1-.08-.094-.125.007-.044.052-.064.125-.093.079-.03.153-.066.25-.063zm-11.781.47c.196-.029.376-.018.563 0 .372.035.66.096.875.218.19.104.312.222.375.313.062.09.033.153-.094.219-.02.01-.035.02-.063.03-.028.012-.066.021-.093.032l-.313-.156c.093-.036.115-.083.094-.125-.022-.043-.066-.091-.188-.156a1.986 1.986 0 0 0-.187-.094c-.048-.02-.1-.027-.125-.031-.033-.015-.118-.027-.313-.032-.195-.005-.452.05-.75.157-.297.123-.461.249-.469.375-.008.125.09.226.25.312.091.049.193.081.344.125.151.044.302.077.438.094l-.313.156a2.58 2.58 0 0 1-.906-.313c-.271-.15-.375-.298-.344-.468.031-.17.213-.347.594-.5.206-.074.429-.128.625-.156zm8.844.125a1.38 1.38 0 0 0-.125.03c-.03.01-.074-.007-.094 0-.072.026-.115.06-.125.094-.01.035.056.1.156.157.15.07.303.107.5.125.198.017.338.01.375 0l.313-.125c-.134-.054-.311-.1-.5-.157-.19-.056-.344-.088-.5-.125zm4.094.125.312.187-.719.281.531.281-.312.125-.531-.28-1.281.5c-.12.045-.196.084-.22.124-.022.04.019.084.094.125a.75.75 0 0 0 .188.063c.077.016.141.013.219.031l-.282.156c-.093-.016-.176-.061-.28-.093-.106-.033-.203-.052-.282-.094-.125-.068-.193-.139-.188-.219.006-.08.095-.174.282-.25l1.406-.531-.344-.219.281-.094.375.188zm-9.094.093.344.188-1.657.656a3.4 3.4 0 0 1 .563.062c.171.033.313.072.469.157.184.098.312.216.343.312.031.096-.078.185-.281.281-.103.046-.205.082-.313.125-.107.044-.203.083-.312.125-.164.064-.329.134-.469.188-.14.054-.319.128-.562.219l-.344-.188c.242-.088.406-.171.531-.219.125-.047.287-.097.438-.156.053-.02.104-.03.187-.062.083-.033.165-.088.25-.125.164-.067.268-.133.313-.188.045-.055.018-.108-.125-.187-.065-.035-.144-.065-.219-.094-.075-.029-.126-.056-.156-.063a2.631 2.631 0 0 0-.313-.03c-.15-.008-.276-.003-.406 0l-1.469.562-.344-.188zm.719 1.656.343.22-1.156.968 2.344-.406-1.156 1.062 2.156-.406.344.187-2.938.5-.281-.156.969-.844-1.875.344-.25-.156zm3.093 1.97c.364.014.704.103.969.25.297.164.392.3.344.437-.049.136-.244.273-.594.406l-1.344-.75c-.029.007-.047.026-.062.031-.016.005-.036-.01-.063 0-.266.105-.408.225-.437.344-.03.119.072.257.281.375.126.068.245.109.406.156.162.048.313.082.438.094l-.313.156a3.378 3.378 0 0 1-.469-.125 2.72 2.72 0 0 1-.5-.219c-.257-.145-.372-.296-.343-.468.029-.172.232-.354.594-.5.381-.144.73-.203 1.093-.188zm.094.218a1.854 1.854 0 0 0-.375.031l1 .563c.174-.08.234-.174.187-.25-.046-.076-.139-.146-.28-.219-.053-.028-.117-.037-.188-.063-.072-.025-.128-.059-.157-.062-.029-.005-.082 0-.187 0zm3.156.406c.093.003.157.03.219.063.062.036.1.08.094.125-.007.044-.057.096-.125.125a.647.647 0 0 1-.25.031.582.582 0 0 1-.25-.063c-.057-.034-.075-.08-.063-.125.012-.044.054-.064.125-.093.072-.027.157-.066.25-.063zm-1 .375.344.219-2.188.844-.343-.188zm.656.781c.137-.019.258-.01.407 0 .297.02.593.098.875.25.138.079.224.157.281.22.057.062.09.113.094.156l.093.03c.072.04.176.103.282.157.105.054.195.093.28.125l-.343.125-.375-.219a.475.475 0 0 1-.125.125c-.05.033-.083.066-.156.094-.28.107-.578.12-.875.094a2.093 2.093 0 0 1-.844-.25c-.053-.03-.1-.043-.125-.063-.025-.02-.06-.061-.094-.094a2.14 2.14 0 0 0-.28-.03.686.686 0 0 0-.25.03c-.033.011-.06.04-.063.063-.004.022.028.056.093.094.117.062.258.103.375.156.118.053.23.126.344.187.243.13.366.222.406.313.041.091-.034.198-.25.281-.314.113-.652.124-1.03.063a3.16 3.16 0 0 1-1.032-.344c-.235-.126-.397-.234-.469-.344-.072-.11-.016-.197.188-.281a1.46 1.46 0 0 1 .437-.094c.144-.007.3.002.469.031-.049-.035-.084-.077-.094-.125-.01-.047.038-.106.156-.156.095-.033.242-.034.407-.031.165.003.291.008.437.031a.288.288 0 0 1 0-.25c.036-.078.165-.135.375-.219.124-.048.27-.106.406-.125zm.5.22c-.054-.005-.117.019-.218.03a1.308 1.308 0 0 0-.313.063c-.225.09-.33.175-.312.25.018.075.098.141.25.219.073.039.162.1.25.125.087.025.163.027.218.03.047.005.12.01.22 0 .098-.008.188-.048.312-.093.195-.075.304-.146.312-.219.008-.072-.082-.158-.25-.25a1.275 1.275 0 0 0-.25-.093c-.086-.026-.158-.06-.219-.063zm-2.28.812c-.132.002-.263.02-.376.062-.12.046-.168.099-.125.156.044.058.167.125.344.22.224.12.454.214.687.25.234.034.408.025.563-.032.123-.041.193-.084.187-.125-.006-.041-.096-.119-.28-.219-.11-.059-.203-.121-.282-.156-.079-.034-.168-.064-.281-.125a2.748 2.748 0 0 0-.438-.031z" style="fill:#b3daed;fill-opacity:1;stroke:none" transform="translate(-316.872 -398.442) scale(.94677)"/><path d="M404.917 437.22c-2.147 0-3.906 1.05-3.906 2.343 0 .516.311.988.781 1.375.708-.583 1.835-.969 3.125-.969s2.418.386 3.125.969c.47-.387.75-.859.75-1.375 0-1.294-1.727-2.344-3.875-2.344zM496.5 489.06c-2.148 0-3.906 1.05-3.906 2.343 0 .516.311.988.781 1.375.707-.583 1.835-.969 3.125-.969s2.418.386 3.125.969c.47-.387.75-.859.75-1.375 0-1.294-1.727-2.344-3.875-2.344z" style="fill:#70b88d;fill-opacity:1;fill-rule:nonzero;stroke:none" transform="translate(-316.872 -398.442) scale(.94677)"/><path d="m628.625 391.313-14.688 6.625-1.312 1.437v1.656l1.844 2.406 1.937 2.282 2.063 1.687-.719.875-2.656 1.438 2.843 1.844 3-1.782-1.25-3.875 4.938 2.906.625 2.125 2.219 1.5-.532 1.688-2.75 1.688 2.75 1.406 3.72-1.781-.722-2.745 1.762.584 2.426-.749.627.316 2.937 2.281-2.406-2.938 1.313-.78-.094.437 2.969 2.312-2.469-3 .563-.344 1-.437-.125.75 2.968 2.281-2.562-3.156 1.531-.656-.094.531 2.97 2.281-2.438-3 1.53-.656-.124.656 2.969 2.281-2.532-3.093 1.782-.75-.344-.938 2.25-1.312.031.312 1.594 1.406 3.187-1.218-2.468-2.219-.97.687-.968-4.218-15.75-8.938zm12.469 9.125.093.125-.093-.063-1.532.594zm-7.407 3.187-.656.344-2.625 1.094-.03-.032zm-2.593 2.094.75.687-.031.031z" style="fill:none;stroke:#000;stroke-width:2.42931175;stroke-miterlimit:4;stroke-dasharray:none" transform="translate(-547.671 -358.107) scale(.94677)"/><path d="m576.734 405.019-1.06 1.149-.266 1.414 1.238 2.563 1.325.177 12.728-5.48-.442-1.237 2.122-.973-.619-4.507-.707-.177-1.945 1.06-1.767-1.502-2.475.972-.707-.177-4.862 2.652-2.475 1.149 1.326 1.237z" style="fill:#1c2a2f;fill-opacity:1;stroke:none" transform="translate(-496.792 -355.262) scale(.94677)"/><path d="m560.205 394.943-1.325 1.414v1.68l1.856 2.386 1.944 2.298 2.033 1.68-.707.883-2.652 1.414 2.829 1.856 3.005-1.767-1.237-3.89 4.95 2.917.618 2.122 2.21 1.502-.53 1.68-2.74 1.679 2.74 1.414 3.712-1.768-1.326-5.038.795-2.21 2.122-1.325-1.856-1.856 10.695-4.597 1.767 1.945 2.21-1.326.796.354.53 4.508 1.59 1.414 3.183-1.238-2.475-2.21-.972.708-.973-4.243-15.733-8.927-2.386-.089z" style="fill:#d1ebf6;fill-opacity:1;stroke:none" transform="translate(-496.792 -355.262) scale(.94677)"/><path d="m576.557 412.09-1.237-4.596.884-2.475 2.21-1.326-1.768-1.591 10.96-4.596 1.502 1.944 2.298-1.414.708.265.53 4.243" style="fill:none;stroke:#fff;stroke-width:.73935574;stroke-linecap:round;stroke-linejoin:round;stroke-miterlimit:4;stroke-opacity:1;stroke-dasharray:none" transform="translate(-496.792 -355.262) scale(.94677)"/><path d="m559.763 396.092 12.198 6.894" style="fill:none;stroke:#fff;stroke-width:1.05622256px;stroke-linecap:round;stroke-linejoin:miter;stroke-opacity:1" transform="translate(-496.792 -355.262) scale(.94677)"/><path d="m575.762 390.346-12.817 5.392 9.988 5.657 13.259-5.922z" style="fill:#f0f9fc;fill-opacity:1;stroke:#f0f9fc;stroke-width:1.05622256px;stroke-linecap:round;stroke-linejoin:round;stroke-opacity:1" transform="translate(-496.792 -355.262) scale(.94677)"/><g style="stroke:#747066;stroke-width:1.05622256;stroke-opacity:1"><path d="m580.579 404.71 1.12.956c.24.194.403.643.345.887l-.184 1.073 2.961 2.298M582.523 403.98l1.121.957c.24.194.403.643.344.887l-.183 1.073 2.961 2.298M586.302 402.257l1.12.956c.24.195.403.643.345.887l-.183 1.074 2.96 2.298M584.357 402.986l1.121.956c.24.195.403.643.344.888l-.183 1.073 2.961 2.298M578.811 405.704l1.12.956c.24.195.403.643.345.888l-.183 1.073 2.96 2.298" style="fill:none;stroke:#747066;stroke-width:.63373357;stroke-linecap:round;stroke-linejoin:round;stroke-miterlimit:4;stroke-opacity:1;stroke-dasharray:none" transform="translate(-495.934 -354.111) scale(.94677)"/></g><path d="m579.386 401.925 1.149 2.563M581.198 401.218l1.149 2.563M583.186 400.378l1.15 2.564M584.998 399.406l1.15 2.563M577.596 402.942l1.149 2.563" style="fill:#0d151a;fill-opacity:1;stroke:#0d161a;stroke-width:1.05622256px;stroke-linecap:butt;stroke-linejoin:miter;stroke-opacity:1" transform="translate(-495.85 -353.797) scale(.94677)"/><path d="m748.5 277.594-9.969 4.5V284.03l.594.406c-.105.39-.479.526-.75.75l.813.625c.442-.273.7-.529.843-.75l.375.282c-.133.323-.468.449-.718.656l.812.625c.383-.237.653-.46.813-.656l.375.25c-.126.343-.462.475-.72.687l.813.625c.398-.246.656-.485.813-.687l.562.406c-.154.258-.461.376-.687.562l.812.625c.34-.21.586-.416.75-.593l1.532 1.062 3.125-1.531c.149.212.42.457.843.719l.813-.625c-.221-.183-.5-.316-.657-.563l.72-.344c.156.203.414.442.812.688l.812-.625c-.214-.177-.496-.3-.656-.531l.594-.282c.159.196.429.42.812.657l.813-.625c-.21-.174-.463-.31-.625-.532l.625-.28c.163.184.423.403.781.624l.813-.625c-.204-.168-.462-.292-.625-.5l1.125-.531-.032-1.812z" style="fill:none;stroke:#000;stroke-width:1.37308931;stroke-miterlimit:4;stroke-dasharray:none" transform="matrix(.52025 0 0 .5719 -349.99 -124.99)"/><path d="m748.5 277.583-10 4.5 7.063 4.937 10.125-4.812z" style="fill:#426b95;fill-opacity:1;stroke:none" transform="matrix(.52025 0 0 .5719 -349.99 -124.99)"/><path d="M738.531 282.083v1.937l7.032 4.875v-1.875z" style="fill:#3b5a73;fill-opacity:1;stroke:none" transform="matrix(.52025 0 0 .5719 -349.99 -124.99)"/><path d="m745.566 287.02-.008 1.883 10.133-4.914v-1.797z" style="fill:#0d1719;fill-opacity:1;stroke:none" transform="matrix(.52025 0 0 .5719 -349.99 -124.99)"/><path d="M739.156 284.176c.021.615-.456.732-.781 1l.813.625c.716-.443 1.05-.8.968-1.125zM740.478 284.989c.021.615-.456.731-.78 1l.812.625c.716-.443 1.05-.8.968-1.125zM741.76 285.895c.02.615-.457.731-.782 1l.813.625c.717-.443 1.05-.8.969-1.125zM743.26 286.801c.02.615-.457.732-.782 1l.813.625c.717-.443 1.05-.8.969-1.125zM754.397 284.02c-.021.615.456.731.78 1l-.812.625c-.716-.443-1.05-.8-.968-1.125zM752.803 284.833c-.021.614.456.73.781 1l-.812.625c-.717-.444-1.05-.8-.97-1.125zM751.24 285.614c-.02.615.457.731.782 1l-.813.625c-.717-.443-1.05-.8-.969-1.125zM749.553 286.458c-.021.614.456.73.781 1l-.812.625c-.717-.444-1.05-.8-.97-1.125z" style="fill:#a5d4e7;fill-opacity:1;stroke:#000;stroke-width:0;stroke-linecap:butt;stroke-linejoin:miter;stroke-miterlimit:4;stroke-opacity:1;stroke-dasharray:none" transform="matrix(.52025 0 0 .5719 -349.99 -124.99)"/><path d="m336.75 466.895 99 62.25" style="fill:none;stroke:#fff;stroke-width:.52811128;stroke-linecap:butt;stroke-linejoin:miter;stroke-miterlimit:4;stroke-opacity:1;stroke-dasharray:none" transform="translate(-316.872 -398.442) scale(.94677)"/><path d="M710.061 542.876a2.845 1.557 0 0 1-2.845 1.557 2.845 1.557 0 0 1-2.845-1.557 2.845 1.557 0 0 1 2.845-1.558 2.845 1.557 0 0 1 2.845 1.558z" style="fill:#69696a;fill-opacity:1;stroke:#badcee;stroke-width:1.55002189;stroke-linecap:square;stroke-linejoin:miter;stroke-miterlimit:4;stroke-opacity:1;stroke-dasharray:none;stroke-dashoffset:0" transform="matrix(-.42344 -.0093 -.01077 .49015 381.373 -226.93)"/><path d="M710.061 542.876a2.845 1.557 0 0 1-2.845 1.557 2.845 1.557 0 0 1-2.845-1.557 2.845 1.557 0 0 1 2.845-1.558 2.845 1.557 0 0 1 2.845 1.558z" style="fill:#69696a;fill-opacity:1;stroke:#badcee;stroke-width:1.55002189;stroke-linecap:square;stroke-linejoin:miter;stroke-miterlimit:4;stroke-opacity:1;stroke-dasharray:none;stroke-dashoffset:0" transform="matrix(-.42344 -.0093 -.01077 .49015 378.067 -224.768)"/><path d="M710.061 542.876a2.845 1.557 0 0 1-2.845 1.557 2.845 1.557 0 0 1-2.845-1.557 2.845 1.557 0 0 1 2.845-1.558 2.845 1.557 0 0 1 2.845 1.558z" style="fill:#69696a;fill-opacity:1;stroke:#badcee;stroke-width:1.55002189;stroke-linecap:square;stroke-linejoin:miter;stroke-miterlimit:4;stroke-opacity:1;stroke-dasharray:none;stroke-dashoffset:0" transform="matrix(-.42344 -.0093 -.01077 .49015 378.419 -228.565)"/><path d="M710.061 542.876a2.845 1.557 0 0 1-2.845 1.557 2.845 1.557 0 0 1-2.845-1.557 2.845 1.557 0 0 1 2.845-1.558 2.845 1.557 0 0 1 2.845 1.558z" style="fill:#69696a;fill-opacity:1;stroke:#badcee;stroke-width:1.55002189;stroke-linecap:square;stroke-linejoin:miter;stroke-miterlimit:4;stroke-opacity:1;stroke-dasharray:none;stroke-dashoffset:0" transform="matrix(-.42344 -.0093 -.01077 .49015 375.113 -226.403)"/></g></svg>