<svg xmlns="http://www.w3.org/2000/svg" xmlns:xlink="http://www.w3.org/1999/xlink" width="310.885" height="295.139" viewBox="0 0 82.255 78.089"><defs><linearGradient id="f"><stop offset="0" style="stop-color:#59f;stop-opacity:1"/><stop offset="1" style="stop-color:#04a;stop-opacity:1"/></linearGradient><linearGradient id="e"><stop offset="0" style="stop-color:#4d4d4d;stop-opacity:1"/><stop offset=".581" style="stop-color:#999;stop-opacity:1"/><stop offset="1" style="stop-color:#4d4d4d;stop-opacity:1"/></linearGradient><linearGradient id="d"><stop offset="0" style="stop-color:#4d4d4d;stop-opacity:1"/><stop offset=".581" style="stop-color:#ccc;stop-opacity:1"/><stop offset="1" style="stop-color:#4d4d4d;stop-opacity:1"/></linearGradient><linearGradient id="c"><stop offset="0" style="stop-color:#b3b3b3;stop-opacity:1"/><stop offset="1" style="stop-color:#999;stop-opacity:1"/></linearGradient><linearGradient id="b"><stop offset="0" style="stop-color:#b3b3b3;stop-opacity:1"/><stop offset="1" style="stop-color:gray;stop-opacity:1"/></linearGradient><linearGradient id="a"><stop offset="0" style="stop-color:#b3b3b3;stop-opacity:1"/><stop offset="1" style="stop-color:#4d4d4d;stop-opacity:1"/></linearGradient><linearGradient xlink:href="#b" id="i" x1="469.967" x2="499.75" y1="582.878" y2="582.878" gradientUnits="userSpaceOnUse"/><linearGradient xlink:href="#b" id="j" x1="445.371" x2="493.834" y1="641.792" y2="641.942" gradientUnits="userSpaceOnUse"/><linearGradient xlink:href="#a" id="m" x1="315.719" x2="441.902" y1="667.862" y2="670.862" gradientUnits="userSpaceOnUse"/><linearGradient xlink:href="#d" id="o" x1="116.93" x2="83.674" y1="180.558" y2="179.26" gradientUnits="userSpaceOnUse"/><linearGradient xlink:href="#e" id="n" x1="84.534" x2="117.343" y1="182.948" y2="182.948" gradientUnits="userSpaceOnUse"/><linearGradient xlink:href="#b" id="h" x1="473.754" x2="463.313" y1="495.872" y2="676.125" gradientUnits="userSpaceOnUse"/><radialGradient xlink:href="#a" id="g" cx="332.525" cy="546.729" r="93.7" fx="322.777" fy="523.219" gradientTransform="matrix(1.77728 0 0 1.18804 -254.752 -100.098)" gradientUnits="userSpaceOnUse"/><radialGradient xlink:href="#a" id="l" cx="80.729" cy="172.165" r=".514" fx="80.729" fy="172.165" gradientUnits="userSpaceOnUse"/><radialGradient xlink:href="#c" id="k" cx="78.905" cy="171.978" r=".514" fx="78.905" fy="171.978" gradientTransform="translate(-.578 -.278)" gradientUnits="userSpaceOnUse"/><radialGradient xlink:href="#c" id="q" cx="78.905" cy="171.978" r=".514" fx="78.905" fy="171.978" gradientTransform="translate(-2.404 -.512)" gradientUnits="userSpaceOnUse"/><radialGradient xlink:href="#c" id="r" cx="78.905" cy="171.978" r=".514" fx="78.905" fy="171.978" gradientTransform="translate(1.258 -.086)" gradientUnits="userSpaceOnUse"/><radialGradient xlink:href="#c" id="s" cx="78.905" cy="171.978" r=".514" fx="78.905" fy="171.978" gradientTransform="translate(3.143 .082)" gradientUnits="userSpaceOnUse"/><radialGradient xlink:href="#c" id="t" cx="78.905" cy="171.978" r=".514" fx="78.905" fy="171.978" gradientTransform="matrix(2.54278 0 0 2.54278 -91.073 -264.387)" gradientUnits="userSpaceOnUse"/><radialGradient xlink:href="#f" id="p" cx="87.324" cy="147.804" r="20.346" fx="87.324" fy="147.804" gradientTransform="matrix(1.84734 0 0 1.63076 -73.993 -92.955)" gradientUnits="userSpaceOnUse"/></defs><g transform="translate(-59.97 -116.893)"><path d="M444.775 479.99c-21.74-1.165-60.716.584-86.625 1.006-28.403.463-85.15 3.524-85.15 3.524-1.37.176-2.266.852-2.531 2.664 0 0-2.244 51.144-3.182 76.722-1.085 29.576-2.83 88.74-2.83 88.74-.031 1.063.602 1.442 1.04 1.504 0 0 52.459 7.364 78.864 9.104 31.756 2.092 63.644 2.363 95.46 1.592.858-.021 2.046-.14 3.11-.194.041-.03.105-.048.145-.08.5-.395.917-.82 1.213-1.275.296-.456.47-.942.48-1.457.278-13.042.874-27.784 1.547-42.95.674-15.165 1.426-30.755 2.02-45.496.584-14.486 1.519-34.022 2.277-51.035.759-17.012 1.343-31.5 1.229-35.882-.021-.799-.296-1.545-.762-2.243-.466-.697-1.123-1.346-1.906-1.943-1.208-.921-2.823-1.618-4.399-2.3z" style="fill:url(#g);fill-opacity:1;stroke:none;stroke-width:.99999994px;stroke-linecap:butt;stroke-linejoin:miter;stroke-opacity:1" transform="scale(.26458)"/><path d="M444.775 479.99c1.576.683 3.191 1.38 4.399 2.301.783.597 1.44 1.246 1.906 1.943.466.698.741 1.444.762 2.243.114 4.383-.47 18.87-1.229 35.882-.758 17.013-1.693 36.55-2.277 51.036-.594 14.74-1.346 30.33-2.02 45.496-.673 15.165-1.268 29.907-1.546 42.949-.011.515-.185 1.001-.48 1.457-.297.456-.715.88-1.214 1.275-.04.032-.104.05-.144.08 5.1-.516 22.072-2.406 25.88-3.52.418-1.31 4.941-152.798 4.977-168.423.011-.415-.186-1.429-.86-2.042-4.751-4.263-11.198-8.692-17.056-9.563-2.791-.52-6.61-.873-11.098-1.114z" style="fill:url(#h);fill-opacity:1;stroke:none;stroke-width:.99999994px;stroke-linecap:butt;stroke-linejoin:miter;stroke-opacity:1" transform="scale(.26458)"/><path d="M472.768 535.822a20698.15 20698.15 0 0 1-2.801 94.112l27.783-7.664 2-77.75z" style="fill:url(#i);fill-opacity:1;stroke:none;stroke-width:.99999994px;stroke-linecap:butt;stroke-linejoin:miter;stroke-opacity:1" transform="scale(.26458)"/><path d="M470.197 622.477c-.68 21.348-1.253 38.242-1.384 38.656a1.045 1.045 0 0 1-.27.275l21.957-5.388 3.334-32.67-23.867 6.584c.07-2.166.157-5.156.23-7.457z" style="fill:url(#j);fill-opacity:1;stroke:none;stroke-width:.99999994px;stroke-linecap:butt;stroke-linejoin:miter;stroke-opacity:1" transform="scale(.26458)"/><circle cx="78.327" cy="171.7" r=".514" style="fill:url(#k);fill-opacity:1;stroke:none;stroke-width:.26458332"/><path d="M342.719 663.133c3.857 3.46 8.36 7.545 8.36 7.545l60.456 1.414 6.367-6.897c-24.53.194-49.075-.329-73.54-1.941-.518-.034-1.106-.083-1.643-.121z" style="fill:url(#m);stroke:none;stroke-width:.99999994px;stroke-linecap:butt;stroke-linejoin:miter;stroke-opacity:1" transform="scale(.26458)"/><path d="M84.534 181.972c0 1.663 7.345 3.01 16.405 3.01 9.06 0 16.404-1.347 16.404-3.01v-1.058c0 1.662-7.345 3.01-16.404 3.01-9.06 0-16.405-1.348-16.405-3.01v1.058" style="fill:url(#n);stroke:none;stroke-width:.26458332"/><path d="M92.89 177.45s-8.265 2.232-8.356 3.464c0 1.662 7.345 3.01 16.405 3.01 9.06 0 16.515-1.352 16.404-3.01-.048-.71-8.458-3.09-8.458-3.09z" style="fill:url(#o);fill-opacity:1;stroke:none;stroke-width:.26458332px;stroke-linecap:butt;stroke-linejoin:miter;stroke-opacity:1"/><path d="m74.087 132.736-.935 33.676 39.475 1.684 1.216-35.921z" style="fill:url(#p);fill-opacity:1;stroke:none;stroke-width:.26458332px;stroke-linecap:butt;stroke-linejoin:miter;stroke-opacity:1"/><circle cx="76.501" cy="171.466" r=".514" style="fill:url(#q);fill-opacity:1;stroke:none;stroke-width:.26458332"/><circle cx="80.162" cy="171.892" r=".514" style="fill:url(#r);fill-opacity:1;stroke:none;stroke-width:.26458332"/><circle cx="82.048" cy="172.06" r=".514" style="fill:url(#s);fill-opacity:1;stroke:none;stroke-width:.26458332"/><circle cx="109.564" cy="172.915" r="1.308" style="fill:url(#t);fill-opacity:1;stroke:none;stroke-width:.67277676"/></g></svg>