<?xml version="1.0" encoding="UTF-8" standalone="no"?>
<!-- Created with Inkscape (http://www.inkscape.org/) -->

<svg
   xmlns:dc="http://purl.org/dc/elements/1.1/"
   xmlns:cc="http://creativecommons.org/ns#"
   xmlns:rdf="http://www.w3.org/1999/02/22-rdf-syntax-ns#"
   xmlns:svg="http://www.w3.org/2000/svg"
   xmlns="http://www.w3.org/2000/svg"
   xmlns:xlink="http://www.w3.org/1999/xlink"
   xmlns:sodipodi="http://sodipodi.sourceforge.net/DTD/sodipodi-0.dtd"
   xmlns:inkscape="http://www.inkscape.org/namespaces/inkscape"
   width="82.25489mm"
   height="78.088875mm"
   viewBox="0 0 82.25489 78.088875"
   version="1.1"
   id="svg8"
   inkscape:version="0.92.1 r15371"
   sodipodi:docname="CRT monitor.svg">
  <defs
     id="defs2">
    <linearGradient
       inkscape:collect="always"
       id="linearGradient16015">
      <stop
         style="stop-color:#5599ff;stop-opacity:1"
         offset="0"
         id="stop16011" />
      <stop
         style="stop-color:#0044aa;stop-opacity:1"
         offset="1"
         id="stop16013" />
    </linearGradient>
    <linearGradient
       inkscape:collect="always"
       id="linearGradient16009">
      <stop
         style="stop-color:#4d4d4d;stop-opacity:1"
         offset="0"
         id="stop16003" />
      <stop
         id="stop16005"
         offset="0.58076614"
         style="stop-color:#999999;stop-opacity:1" />
      <stop
         style="stop-color:#4d4d4d;stop-opacity:1"
         offset="1"
         id="stop16007" />
    </linearGradient>
    <linearGradient
       id="linearGradient15997"
       inkscape:collect="always">
      <stop
         id="stop15993"
         offset="0"
         style="stop-color:#4d4d4d;stop-opacity:1" />
      <stop
         style="stop-color:#cccccc;stop-opacity:1"
         offset="0.58076614"
         id="stop15999" />
      <stop
         id="stop15995"
         offset="1"
         style="stop-color:#4d4d4d;stop-opacity:1" />
    </linearGradient>
    <linearGradient
       id="linearGradient15971"
       inkscape:collect="always">
      <stop
         id="stop15967"
         offset="0"
         style="stop-color:#b3b3b3;stop-opacity:1" />
      <stop
         id="stop15969"
         offset="1"
         style="stop-color:#999999;stop-opacity:1" />
    </linearGradient>
    <linearGradient
       id="linearGradient15918"
       inkscape:collect="always">
      <stop
         id="stop15914"
         offset="0"
         style="stop-color:#b3b3b3;stop-opacity:1" />
      <stop
         id="stop15916"
         offset="1"
         style="stop-color:#808080;stop-opacity:1" />
    </linearGradient>
    <linearGradient
       inkscape:collect="always"
       id="linearGradient15902">
      <stop
         style="stop-color:#b3b3b3;stop-opacity:1"
         offset="0"
         id="stop15898" />
      <stop
         style="stop-color:#4d4d4d;stop-opacity:1"
         offset="1"
         id="stop15900" />
    </linearGradient>
    <radialGradient
       inkscape:collect="always"
       xlink:href="#linearGradient15902"
       id="radialGradient15904"
       cx="332.52475"
       cy="546.72943"
       fx="322.77719"
       fy="523.21948"
       r="93.700081"
       gradientTransform="matrix(1.7772753,0,0,1.1880384,-254.7523,-100.0981)"
       gradientUnits="userSpaceOnUse" />
    <linearGradient
       inkscape:collect="always"
       xlink:href="#linearGradient15918"
       id="linearGradient15912"
       x1="473.75357"
       y1="495.87219"
       x2="463.31271"
       y2="676.12451"
       gradientUnits="userSpaceOnUse" />
    <linearGradient
       inkscape:collect="always"
       xlink:href="#linearGradient15918"
       id="linearGradient15941"
       x1="469.9668"
       y1="582.87793"
       x2="499.75"
       y2="582.87793"
       gradientUnits="userSpaceOnUse" />
    <linearGradient
       inkscape:collect="always"
       xlink:href="#linearGradient15918"
       id="linearGradient15949"
       x1="445.37134"
       y1="641.79224"
       x2="493.83398"
       y2="641.94238"
       gradientUnits="userSpaceOnUse" />
    <radialGradient
       inkscape:collect="always"
       xlink:href="#linearGradient15902"
       id="radialGradient15961"
       cx="80.72876"
       cy="172.16507"
       fx="80.72876"
       fy="172.16507"
       r="0.51449382"
       gradientUnits="userSpaceOnUse" />
    <radialGradient
       inkscape:collect="always"
       xlink:href="#linearGradient15971"
       id="radialGradient15963"
       cx="78.904648"
       cy="171.97798"
       fx="78.904648"
       fy="171.97798"
       r="0.51449382"
       gradientUnits="userSpaceOnUse"
       gradientTransform="translate(-0.57780247,-0.27779579)" />
    <radialGradient
       inkscape:collect="always"
       xlink:href="#linearGradient15971"
       id="radialGradient15975"
       gradientUnits="userSpaceOnUse"
       cx="78.904648"
       cy="171.97798"
       fx="78.904648"
       fy="171.97798"
       r="0.51449382"
       gradientTransform="translate(-2.4036626,-0.51214342)" />
    <radialGradient
       inkscape:collect="always"
       xlink:href="#linearGradient15971"
       id="radialGradient15979"
       gradientUnits="userSpaceOnUse"
       gradientTransform="translate(1.2577444,-0.08620787)"
       cx="78.904648"
       cy="171.97798"
       fx="78.904648"
       fy="171.97798"
       r="0.51449382" />
    <radialGradient
       inkscape:collect="always"
       xlink:href="#linearGradient15971"
       id="radialGradient15983"
       gradientUnits="userSpaceOnUse"
       gradientTransform="translate(3.1429006,0.08199386)"
       cx="78.904648"
       cy="171.97798"
       fx="78.904648"
       fy="171.97798"
       r="0.51449382" />
    <radialGradient
       inkscape:collect="always"
       xlink:href="#linearGradient15971"
       id="radialGradient15987"
       gradientUnits="userSpaceOnUse"
       gradientTransform="matrix(2.5427785,0,0,2.5427785,-91.072832,-264.38675)"
       cx="78.904648"
       cy="171.97798"
       fx="78.904648"
       fy="171.97798"
       r="0.51449382" />
    <linearGradient
       inkscape:collect="always"
       xlink:href="#linearGradient15902"
       id="linearGradient15989"
       x1="315.71875"
       y1="667.8623"
       x2="441.90234"
       y2="670.8623"
       gradientUnits="userSpaceOnUse" />
    <linearGradient
       inkscape:collect="always"
       xlink:href="#linearGradient15997"
       id="linearGradient15991"
       x1="116.92992"
       y1="180.55768"
       x2="83.674477"
       y2="179.26042"
       gradientUnits="userSpaceOnUse" />
    <linearGradient
       inkscape:collect="always"
       xlink:href="#linearGradient16009"
       id="linearGradient16001"
       x1="84.53437"
       y1="182.94804"
       x2="117.34271"
       y2="182.94804"
       gradientUnits="userSpaceOnUse" />
    <radialGradient
       inkscape:collect="always"
       xlink:href="#linearGradient16015"
       id="radialGradient16019"
       cx="87.323631"
       cy="147.80409"
       fx="87.323631"
       fy="147.80409"
       r="20.345892"
       gradientTransform="matrix(1.847343,0,0,1.6307579,-73.993071,-92.955279)"
       gradientUnits="userSpaceOnUse" />
    <linearGradient
       inkscape:collect="always"
       xlink:href="#linearGradient15918"
       id="linearGradient16021"
       gradientUnits="userSpaceOnUse"
       x1="473.75357"
       y1="495.87219"
       x2="463.31271"
       y2="676.12451" />
  </defs>
  <sodipodi:namedview
     id="base"
     pagecolor="#ffffff"
     bordercolor="#666666"
     borderopacity="1.0"
     inkscape:pageopacity="0.0"
     inkscape:pageshadow="2"
     inkscape:zoom="2"
     inkscape:cx="144.53335"
     inkscape:cy="145.35695"
     inkscape:document-units="mm"
     inkscape:current-layer="layer1"
     showgrid="false"
     inkscape:object-nodes="false"
     inkscape:object-paths="true"
     fit-margin-top="10"
     fit-margin-left="10"
     fit-margin-right="10"
     fit-margin-bottom="10"
     inkscape:window-width="1440"
     inkscape:window-height="837"
     inkscape:window-x="-8"
     inkscape:window-y="-8"
     inkscape:window-maximized="1">
    <inkscape:grid
       type="xygrid"
       id="grid3680"
       originx="-59.970629"
       originy="-102.01797" />
  </sodipodi:namedview>
  <metadata
     id="metadata5">
    <rdf:RDF>
      <cc:Work
         rdf:about="">
        <dc:format>image/svg+xml</dc:format>
        <dc:type
           rdf:resource="http://purl.org/dc/dcmitype/StillImage" />
        <dc:title></dc:title>
      </cc:Work>
    </rdf:RDF>
  </metadata>
  <g
     inkscape:label="Layer 1"
     inkscape:groupmode="layer"
     id="layer1"
     transform="translate(-59.970627,-116.89316)">
    <path
       style="fill:url(#radialGradient15904);fill-opacity:1;stroke:none;stroke-width:0.99999994px;stroke-linecap:butt;stroke-linejoin:miter;stroke-opacity:1"
       d="m 444.77539,479.99023 c -21.73959,-1.1652 -60.71681,0.58385 -86.625,1.00586 C 329.74669,481.45875 273,484.51953 273,484.51953 c -1.37002,0.17677 -2.26608,0.85212 -2.53125,2.66406 0,0 -2.24361,51.14418 -3.18164,76.72266 -1.08462,29.57579 -2.83008,88.74023 -2.83008,88.74023 -0.0312,1.06251 0.60156,1.44155 1.03906,1.50391 0,0 52.45975,7.36357 78.86524,9.10352 31.75536,2.09246 63.64409,2.36285 95.45898,1.59179 0.8588,-0.0208 2.04661,-0.13949 3.11133,-0.19336 0.0407,-0.031 0.10481,-0.0486 0.14453,-0.0801 0.49924,-0.39493 0.91686,-0.81959 1.21289,-1.27539 0.29603,-0.45581 0.46949,-0.94176 0.48047,-1.45704 0.27797,-13.04226 0.87339,-27.78392 1.54688,-42.94922 0.67348,-15.16529 1.42514,-30.7554 2.01953,-45.49609 0.58412,-14.4864 1.51866,-34.02297 2.27734,-51.03515 0.75868,-17.01219 1.34258,-31.4996 1.22852,-35.88282 -0.0208,-0.79822 -0.29598,-1.54464 -0.76172,-2.24218 -0.46574,-0.69755 -1.12343,-1.34623 -1.90625,-1.94336 -1.20755,-0.92112 -2.82321,-1.61784 -4.39844,-2.30079 z"
       id="path3710"
       transform="scale(0.26458333)"
       inkscape:connector-curvature="0" />
    <path
       style="fill:url(#linearGradient16021);fill-opacity:1;stroke:none;stroke-width:0.99999994px;stroke-linecap:butt;stroke-linejoin:miter;stroke-opacity:1"
       d="m 444.77539,479.99023 c 1.57523,0.68295 3.19089,1.37967 4.39844,2.30079 0.78282,0.59713 1.44051,1.24581 1.90625,1.94336 0.46574,0.69753 0.74093,1.44396 0.76172,2.24218 0.11406,4.38322 -0.46984,18.87063 -1.22852,35.88282 -0.75868,17.01217 -1.69322,36.54875 -2.27734,51.03515 -0.59439,14.74069 -1.34605,30.33081 -2.01953,45.49609 -0.67349,15.1653 -1.26891,29.90696 -1.54688,42.94922 -0.011,0.51528 -0.18444,1.00123 -0.48047,1.45704 -0.29603,0.45579 -0.71365,0.88046 -1.21289,1.27539 -0.0397,0.0314 -0.1038,0.049 -0.14453,0.0801 5.10065,-0.5163 22.07282,-2.40639 25.88086,-3.51953 0.41738,-1.3117 4.94066,-152.79859 4.97636,-168.42426 0.0111,-0.41432 -0.18542,-1.42829 -0.85927,-2.04156 -4.75204,-4.26352 -11.19828,-8.69243 -17.0565,-9.56347 -2.79137,-0.51965 -6.61091,-0.8728 -11.09766,-1.11329 z"
       transform="scale(0.26458333)"
       id="path3705"
       inkscape:connector-curvature="0"
       sodipodi:nodetypes="ccccscscccccccccc" />
    <path
       style="fill:url(#linearGradient15941);fill-opacity:1;stroke:none;stroke-width:0.99999994px;stroke-linecap:butt;stroke-linejoin:miter;stroke-opacity:1"
       d="m 472.76758,535.82227 c -0.81821,29.92766 -1.93861,67.5024 -2.80078,94.11132 l 27.7832,-7.66406 2,-77.75 z"
       transform="scale(0.26458333)"
       id="path3725"
       inkscape:connector-curvature="0" />
    <path
       style="fill:url(#linearGradient15949);fill-opacity:1;stroke:none;stroke-width:0.99999994px;stroke-linecap:butt;stroke-linejoin:miter;stroke-opacity:1"
       d="m 470.19727,622.47656 c -0.6798,21.3481 -1.25301,38.24216 -1.38477,38.65625 -0.0538,0.0949 -0.15427,0.18561 -0.26953,0.27539 l 21.95703,-5.38867 3.33398,-32.66992 -23.86718,6.58398 c 0.0702,-2.16569 0.15717,-5.15608 0.23047,-7.45703 z"
       transform="scale(0.26458333)"
       id="path3727"
       inkscape:connector-curvature="0" />
    <circle
       r="0.51449382"
       cy="171.70018"
       cx="78.326851"
       id="circle3742"
       style="fill:url(#radialGradient15963);fill-opacity:1;stroke:none;stroke-width:0.26458332" />
    <path
       style="fill:url(#radialGradient15961);fill-opacity:1;stroke:none;stroke-width:0.26458332"
       id="circle3744"
       r="0.51449382"
       cy="172.16507"
       cx="80.72876"
       d=""
       inkscape:connector-curvature="0" />
    <path
       style="fill:url(#linearGradient15989);stroke:none;stroke-width:0.99999994px;stroke-linecap:butt;stroke-linejoin:miter;stroke-opacity:1"
       d="m 342.71875,663.13281 c 3.85761,3.45938 8.35937,7.54492 8.35937,7.54492 l 60.45704,1.41407 6.36718,-6.89649 c -24.52953,0.194 -49.07505,-0.32926 -73.54101,-1.9414 -0.51768,-0.0341 -1.10547,-0.0828 -1.64258,-0.1211 z"
       transform="scale(0.26458333)"
       id="path3750"
       inkscape:connector-curvature="0" />
    <path
       id="ellipse3756"
       style="fill:url(#linearGradient16001);stroke:none;stroke-width:0.26458332"
       d="m 84.534373,181.9724 c 1.6e-5,1.66217 7.344407,3.00963 16.404167,3.00963 9.05976,0 16.40415,-1.34746 16.40417,-3.00963 v -1.05832 c -2e-5,1.66217 -7.34441,3.00963 -16.40417,3.00963 -9.05976,0 -16.404151,-1.34746 -16.404167,-3.00963 v 1.05832"
       inkscape:connector-curvature="0"
       sodipodi:nodetypes="csccscc" />
    <path
       style="fill:url(#linearGradient15991);fill-opacity:1;stroke:none;stroke-width:0.26458332px;stroke-linecap:butt;stroke-linejoin:miter;stroke-opacity:1"
       d="m 92.889418,177.45015 c 0,0 -8.264094,2.23191 -8.355044,3.46387 1.6e-5,1.66217 7.344407,3.00964 16.404166,3.00964 9.05976,0 16.51584,-1.35122 16.40417,-3.00964 -0.0478,-0.70926 -8.45737,-3.08973 -8.45737,-3.08973 z"
       id="path3765"
       inkscape:connector-curvature="0"
       sodipodi:nodetypes="ccsscc" />
    <path
       style="fill:url(#radialGradient16019);fill-opacity:1;stroke:none;stroke-width:0.26458332px;stroke-linecap:butt;stroke-linejoin:miter;stroke-opacity:1"
       d="m 74.087113,132.73615 -0.935445,33.67596 39.475712,1.68379 1.21607,-35.92102 z"
       id="path3738"
       inkscape:connector-curvature="0" />
    <circle
       style="fill:url(#radialGradient15975);fill-opacity:1;stroke:none;stroke-width:0.26458332"
       id="circle15973"
       cx="76.500992"
       cy="171.46584"
       r="0.51449382" />
    <circle
       r="0.51449382"
       cy="171.89177"
       cx="80.162392"
       id="circle15977"
       style="fill:url(#radialGradient15979);fill-opacity:1;stroke:none;stroke-width:0.26458332" />
    <circle
       style="fill:url(#radialGradient15983);fill-opacity:1;stroke:none;stroke-width:0.26458332"
       id="circle15981"
       cx="82.047554"
       cy="172.05998"
       r="0.51449382" />
    <circle
       r="1.3082439"
       cy="172.91518"
       cx="109.56422"
       id="circle15985"
       style="fill:url(#radialGradient15987);fill-opacity:1;stroke:none;stroke-width:0.67277676" />
  </g>
</svg>
