<svg xmlns="http://www.w3.org/2000/svg" viewBox="0 0 80.219 67.082"><path d="M34.095 42.008h77.81M39.214 26.784h64.223l8.644 15.215.04 9.597H33.909l-.013-9.385z" style="fill:#cccccf" transform="translate(-32.906 14.489)"/><path d="M54.62 51.793v-9.804l1.8-15.806-17.405.4-5.002 15.807.2 9.203z" style="fill:#666" transform="translate(-32.906 14.489)"/><path d="M54.625 49.625v-4.094zm0-4.094v4.094h3.844c1.081.073 1.912-1.03 1.875-2.063.001-.903-.59-1.9-1.531-2.03-1.399-.002-4.188 0-4.188 0z" style="fill:#666" transform="translate(-32.906 14.489)"/><path d="M54.625 48.402v-1.689zm0-1.689v1.689h55.202c.556 0 .906-.375.906-.85 0-.487-.386-.839-.98-.839H54.624z" style="fill:#666" transform="translate(-32.906 14.489)"/><path d="M49.281 45.531c-.864.149-1.524 1.053-1.531 1.938-.085 1.044.748 2.18 1.844 2.156h5.03V45.53h-4.937a1.696 1.696 0 0 0-.406 0z" style="fill:#0197fd" transform="translate(-32.906 14.489)"/><path d="M86.521 28.719h5.25c.536 0 1.017-.093 1.375-.031.358.061.604.258.75.844l2.063 8.406c.292 1.185.288 1.222-.75 1.375h-7.5m-1.167-10.594H50.875c-.536 0-1.017-.093-1.375-.032-.358.062-.604.259-.75.844l-2.063 8.406c-.292 1.186-.288 1.223.75 1.375H87.9" style="stroke:#666;fill:none" transform="translate(-32.906 14.489)"/><path d="M49.5 28.688c-.358.061-.604.258-.75.844l-2.063 8.406c-.292 1.185-.288 1.223.75 1.375h7.5l1.188-10.594h-5.25c-.536 0-1.017-.093-1.375-.031z" style="fill:#0197fd" transform="translate(-32.906 14.489)"/><path d="M43.419-14.458h-.075c-.574-.168-.842.403-1.216.721v8.528c-.156 2.586-.483 5.163-.705 7.746-.037 8.032-.005 16.067-.016 24.101h2.163-.151c.45-.058 1.13.115 1.442-.082-.01-8.006.021-16.014-.016-24.018-.222-2.583-.548-5.16-.705-7.747v-8.528l-.721-.72M99.702-14.458h-.075c-.574-.168-.842.403-1.216.721v8.528c-.156 2.586-.483 5.163-.705 7.746-.037 8.032-.005 16.067-.016 24.101h2.163-.151c.45-.058 1.13.115 1.442-.082-.01-8.006.021-16.014-.016-24.018-.222-2.583-.548-5.16-.705-7.747v-8.528l-.721-.72" style="fill:#000" transform="translate(-32.906 14.489)"/><path d="M34.095 42.008h77.81M39.214 26.784h64.223l8.644 15.215.04 9.597H33.909l-.013-9.385z" style="stroke:#000;stroke-width:2;fill:none" transform="translate(-32.906 14.489)"/></svg>