<svg xmlns="http://www.w3.org/2000/svg" xmlns:xlink="http://www.w3.org/1999/xlink" version="1.0" viewBox="0 0 698 653.36"><defs><linearGradient id="g"><stop offset="0" style="stop-color:#676767"/><stop offset="1" style="stop-color:#c4c4c4"/></linearGradient><linearGradient id="f"><stop offset="0" style="stop-color:#8dc560"/><stop offset="1" style="stop-color:#fff"/></linearGradient><linearGradient id="e"><stop offset="0" style="stop-color:#e2edd9"/><stop offset="1" style="stop-color:#6e9a4c"/></linearGradient><linearGradient id="b"><stop offset="0" style="stop-color:#757575"/><stop offset="1" style="stop-color:#fff"/></linearGradient><linearGradient id="d"><stop offset="0" style="stop-color:#ff0"/><stop offset="1" style="stop-color:#757500;stop-opacity:.47959"/></linearGradient><linearGradient id="c"><stop offset="0" style="stop-color:#757575"/><stop offset="1" style="stop-color:#ffffc7"/></linearGradient><linearGradient id="a"><stop offset="0" style="stop-color:#e8ff00"/><stop offset="1" style="stop-color:#e8ff00;stop-opacity:0"/></linearGradient><linearGradient xlink:href="#b" id="l" x1="142.53" x2="165.71" y1="333.36" y2="333.36" gradientTransform="matrix(1 0 0 .99323 0 4.228)" gradientUnits="userSpaceOnUse"/><linearGradient xlink:href="#c" id="m" x1="114.45" x2="145.58" y1="350.22" y2="350.22" gradientUnits="userSpaceOnUse"/><linearGradient xlink:href="#d" id="j" x1="145.21" x2="244.79" y1="539.51" y2="539.51" gradientUnits="userSpaceOnUse"/><linearGradient xlink:href="#e" id="s" x1="122.76" x2="145.79" y1="852.25" y2="779.02" gradientUnits="userSpaceOnUse"/><linearGradient xlink:href="#f" id="t" x1="145.5" x2="208.41" y1="854.74" y2="933.34" gradientUnits="userSpaceOnUse"/><linearGradient xlink:href="#g" id="w" x1="165.26" x2="165.26" y1="706.02" y2="952.5" gradientTransform="matrix(-1 0 0 1 766.29 .543)" gradientUnits="userSpaceOnUse"/><linearGradient xlink:href="#g" id="v" x1="165.26" x2="165.26" y1="706.02" y2="946.44" gradientUnits="userSpaceOnUse"/><linearGradient id="p" x1="35.004" x2="1104.7" y1="706.39" y2="698.5" gradientTransform="translate(-1.004 -25.051)" gradientUnits="userSpaceOnUse"><stop offset="0" style="stop-color:#7e7e7e"/><stop offset="1" style="stop-color:#e3e3e3"/></linearGradient><linearGradient id="n" x1="36.014" x2="729.99" y1="602.72" y2="602.72" gradientUnits="userSpaceOnUse"><stop offset="0" style="stop-color:#8e8e8e"/><stop offset="1" style="stop-color:#ccccdb"/></linearGradient><linearGradient xlink:href="#b" id="u" x1="142.53" x2="165.71" y1="333.36" y2="333.36" gradientTransform="matrix(1 0 0 .99323 -1.528 7.016)" gradientUnits="userSpaceOnUse"/><linearGradient xlink:href="#f" id="r" x1="145.5" x2="208.41" y1="854.74" y2="933.34" gradientTransform="translate(33.89 -289.98)" gradientUnits="userSpaceOnUse"/><linearGradient xlink:href="#e" id="q" x1="122.76" x2="145.79" y1="852.25" y2="779.02" gradientTransform="translate(33.89 -289.98)" gradientUnits="userSpaceOnUse"/><radialGradient xlink:href="#a" id="h" cx="348.57" cy="323.79" r="34.786" gradientTransform="matrix(1 0 0 1.0821 0 -26.595)" gradientUnits="userSpaceOnUse"/><radialGradient id="o" cx="213.93" cy="154.51" r="43.772" gradientTransform="matrix(1 0 0 .40417 0 92.059)" gradientUnits="userSpaceOnUse"><stop offset="0" style="stop-color:#fff26f"/><stop offset="1" style="stop-color:#d9d9d9;stop-opacity:0"/></radialGradient><marker id="i" orient="auto" refX="0" refY="0" style="overflow:visible"><path d="M8.719 4.034-2.207.016 8.719-4.002c-1.746 2.372-1.736 5.618 0 8.036z" style="stroke-linejoin:round;stroke-width:.625;fill-rule:evenodd" transform="matrix(-.6 0 0 -.6 3 0)"/></marker><marker id="k" orient="auto" refX="0" refY="0" style="overflow:visible"><path d="M8.719 4.034-2.207.016 8.719-4.002c-1.746 2.372-1.736 5.618 0 8.036z" style="stroke-linejoin:round;stroke-width:.625;fill-rule:evenodd" transform="matrix(-1.1 0 0 -1.1 5.5 0)"/></marker></defs><path d="M382.86 323.79a34.286 37.143 0 1 1-68.57 0 34.286 37.143 0 1 1 68.57 0z" style="fill-rule:evenodd;stroke:url(#h);fill:url(#radialGradient7790)" transform="matrix(.59599 0 0 .63559 -26.487 -126.88)"/><path d="M382.86 323.79a34.286 37.143 0 1 1-68.57 0 34.286 37.143 0 1 1 68.57 0z" style="fill-rule:evenodd;stroke:url(#h);fill:url(#radialGradient7790)" transform="matrix(.61962 0 0 .52933 282.49 -92.34)"/><g transform="translate(-34 -257.36)"><path d="M126 331.9c-40 2.17-63.146 401.45-43.173 492.94 19.743 90.44 17-244.22 17-244.22.041-21.99 11.123-25.35 11.123-25.35" style="stroke:#000;stroke-width:1.0414px;fill:none"/><path d="M-147.48 521.5a6.06 7.576 0 1 1-12.12-.16" style="fill-rule:evenodd;stroke:#000;stroke-width:2.518;fill:#000" transform="rotate(90 -35.935 675.295)"/><path d="M626.52 333.88c40 2.17 63.15 401.45 43.17 492.94-19.74 90.44-17-244.22-17-244.22-.04-21.99-11.12-25.35-11.12-25.35" style="stroke:#000;stroke-width:1.0414px;fill:none"/><path d="M382.86 323.79a34.286 37.143 0 1 1-68.57 0 34.286 37.143 0 1 1 68.57 0z" style="stroke:url(#h);fill:url(#radialGradient7790);fill-rule:evenodd" transform="translate(24.621 13.643)"/><path d="M324.45 337.52c-16.42-51.18-30.75 2.11-30.75 2.11M293.77 339.64c-16.42 51.17-30.75-2.11-30.75-2.11" style="stroke:#000;stroke-width:2.2685;fill:none"/><path d="m262.83 338.23-16.7-.96" style="marker-end:url(#i);stroke:#000;stroke-width:2.2685;fill:none"/><path d="M244.29 539.51a49.286 55.714 0 1 1-98.58 0 49.286 55.714 0 1 1 98.58 0z" style="fill-rule:evenodd;stroke:#000;fill:url(#j)" transform="matrix(-.1607 0 0 .16265 246.31 248.47)"/><path d="M244.29 539.51a49.286 55.714 0 1 1-98.58 0 49.286 55.714 0 1 1 98.58 0z" style="fill-rule:evenodd;stroke:#000;fill:url(#j)" transform="matrix(.1607 0 0 .16265 502.12 249.18)"/><path fill="none" d="M208.85 594.79c-4.02 39.38-17.32 60.97-29.7 48.2-12.37-12.78-19.16-55.11-15.14-94.49 4.01-39.38 17.32-60.97 29.69-48.19 5.49 5.66 9.62 15.9 12.69 31.43" style="marker-end:url(#k);fill-opacity:0;stroke:#000;stroke-width:2.8857" transform="matrix(-.5745 0 0 -.48996 642.29 616.02)"/><path fill="none" d="M208.85 594.79c-4.02 39.38-17.32 60.97-29.7 48.2-12.37-12.78-19.16-55.11-15.14-94.49 4.01-39.38 17.32-60.97 29.69-48.19 5.49 5.66 9.62 15.9 12.69 31.43" style="marker-end:url(#k);fill-opacity:0;stroke:#000;stroke-width:2.8857" transform="matrix(.5745 0 0 .48996 105.77 55.755)"/><g transform="matrix(-.81293 0 0 .75861 733.915 82.284)"><rect width="45.372" height="158.09" x="143.03" y="256.29" rx="21" ry="101.78" style="fill-rule:evenodd;stroke:#000;fill:url(#l)"/><path d="M145.17 350.22a13.023 79.286 0 1 1-26.05 0 13.023 79.286 0 1 1 26.05 0z" style="fill-rule:evenodd;stroke:#000;fill:url(#m)" transform="matrix(1.4781 0 0 1 -25.464 -14.751)"/></g><g transform="matrix(-1 0 0 1 744.708 1.787)"><rect width="45.372" height="158.09" x="143.03" y="256.29" rx="17.071" ry="77.214" style="fill-rule:evenodd;stroke:#000;fill:url(#l)"/><path d="M145.17 350.22a13.023 79.286 0 1 1-26.05 0 13.023 79.286 0 1 1 26.05 0z" style="fill-rule:evenodd;stroke:#000;fill:url(#m)" transform="matrix(1.4781 0 0 1 -25.464 -14.751)"/></g><path d="M324.45 337.52c-16.42-51.18-30.75 2.11-30.75 2.11M293.77 339.64c-16.42 51.17-30.75-2.11-30.75-2.11" style="stroke:#000;stroke-width:2.2685;fill:none" transform="matrix(-1 0 0 1 745.59 .19)"/><path d="m262.83 338.23-16.7-.96" style="marker-end:url(#i);stroke:#000;stroke-width:2.2685;fill:none" transform="matrix(-1 0 0 1 745.59 .19)"/><path d="m140.24 542.72 473.58-.72 114.22 121.43H37.96l102.28-120.71z" style="fill-rule:evenodd;stroke:#000;stroke-width:3.89;fill:url(#n)"/><path d="M256.44 159.57a43.571 16.429 0 1 1-4.55-13.81" style="fill-rule:evenodd;fill:url(#o)" transform="translate(159.56 438.43)"/><path d="M35.26 665.62h695.48v31.429H35.26z" style="fill-rule:evenodd;stroke:#000;stroke-width:2.5207;fill:url(#p)"/><path d="m164.73 483.59 55.87-.51c18.2 0 38.92 6.57 38.92 24.78v92.66c0 9.12-21.73 32.36-42.96 40.94h-52.84c-18.21 0-31.35-21.22-31.35-39.42l-12.62-77.52c2.02-17.19 39.4-40.93 44.98-40.93z" style="fill-rule:evenodd;stroke:#000;stroke-width:2.9671;fill:url(#q)"/><rect width="123" height="142.25" x="117.89" y="499.7" rx="32.857" ry="32.857" style="fill-rule:evenodd;stroke:#000;stroke-width:2.8252;fill:url(#r)"/><rect width="99.798" height="60.695" x="127.31" y="512.03" rx="23.766" ry="32.857" style="fill-rule:evenodd;stroke:#000;stroke-width:1.4301;fill:#fff"/><path d="M309.61 841.18a19.951 15.152 0 1 1-39.89-.32" style="fill-rule:evenodd;stroke:#000;stroke-width:2.518;fill:#000" transform="matrix(.63346 0 0 -.71194 -9.116 1170.9)"/><path d="m171.89 562.87-28-43.94" style="stroke:#000;stroke-width:1px;fill:none"/><path d="M139.63 520.86v3.26h3.26v1h-3.26v3.26h-.99v-3.26h-3.26v-1h3.26v-3.26h.99" style="fill:#000"/><path d="M131.52 816.37h4.94v1.5h-4.94v-1.5" style="fill:#000" transform="scale(1.5618 .64027)"/><g transform="matrix(-1 0 0 1 726.59 -289.22)"><path d="m130.84 773.57 55.87-.51c18.2 0 38.92 6.58 38.92 24.78v92.67c0 9.11-21.73 32.35-42.96 40.93h-52.84c-18.21 0-31.346-21.22-31.346-39.42l-12.627-77.51c2.02-17.2 39.403-40.94 44.983-40.94z" style="fill-rule:evenodd;stroke:#000;stroke-width:2.9671;fill:url(#s)"/><rect width="123" height="142.25" x="84" y="789.68" rx="32.857" ry="32.857" style="fill-rule:evenodd;stroke:#000;stroke-width:2.8252;fill:url(#t)"/><rect width="99.798" height="60.695" x="93.418" y="802.01" rx="23.766" ry="32.857" style="fill-rule:evenodd;stroke:#000;stroke-width:1.4301;fill:#fff"/></g><path d="M309.61 841.18a19.951 15.152 0 1 1-39.89-.32" style="fill-rule:evenodd;stroke:#000;stroke-width:2.518;fill:#000" transform="matrix(-.63346 0 0 -.71194 769.59 1171.7)"/><path d="m588.59 563.64 28-43.94" style="stroke:#000;stroke-width:1px;fill:none"/><path d="M-547.1 520.47v3.26h3.26v1h-3.26v3.26h-.99v-3.26h-3.26v-1h3.26v-3.26h.99" style="fill:#000" transform="scale(-1 1)"/><path d="M-400.21 817.57h4.93v1.5h-4.93v-1.5" style="fill:#000" transform="scale(-1.5618 .64027)"/><g transform="matrix(.81293 0 0 .75861 9.265 83.284)"><rect width="45.372" height="158.09" x="143.03" y="256.29" rx="21" ry="101.78" style="fill-rule:evenodd;stroke:#000;fill:url(#l)"/><path d="M145.17 350.22a13.023 79.286 0 1 1-26.05 0 13.023 79.286 0 1 1 26.05 0z" style="fill-rule:evenodd;stroke:#000;fill:url(#m)" transform="matrix(1.4781 0 0 1 -25.464 -14.751)"/></g><rect width="45.372" height="158.09" x="141.5" y="259.07" rx="17.071" ry="77.214" style="fill-rule:evenodd;stroke:#000;fill:url(#u)"/><path d="M145.17 350.22a13.023 79.286 0 1 1-26.05 0 13.023 79.286 0 1 1 26.05 0z" style="fill-rule:evenodd;stroke:#000;fill:url(#m)" transform="matrix(1.4781 0 0 1 -26.992 -11.964)"/><path d="M-147.48 521.5a6.06 7.576 0 1 1-12.12-.16" style="fill-rule:evenodd;stroke:#000;stroke-width:2.518;fill:#000" transform="rotate(90 78.425 568.655)"/><path d="M-147.48 521.5a6.06 7.576 0 1 1-12.12-.16" style="fill-rule:evenodd;stroke:#000;stroke-width:2.518;fill:#000" transform="matrix(0 1 1 0 96.92 486.23)"/><path d="M-147.48 521.5a6.06 7.576 0 1 1-12.12-.16" style="fill-rule:evenodd;stroke:#000;stroke-width:2.518;fill:#000" transform="matrix(0 1 .68076 0 287.95 714.59)"/><path d="M147.48 697.08h35.55L180 908.92h-26.46l-6.06-211.84z" style="fill-rule:evenodd;stroke:#000;stroke-width:2.518;fill:url(#v)"/><path d="M618.81 697.62h-35.55l3.03 211.84h26.46l6.06-211.84z" style="fill-rule:evenodd;stroke:#000;stroke-width:2.518;fill:url(#w)"/></g></svg>