<svg xmlns="http://www.w3.org/2000/svg" viewBox="0 0 402.28 183.25"><path d="M102.84 215.22v40.562c5.795.218 10.438 4.996 10.438 10.844 0 5.848-4.643 10.595-10.438 10.812v121.03h244.25v-18.063a2.653 2.653 0 0 1 2.656-2.593 2.663 2.663 0 0 1 2.656 2.656v18h152.72v-121.03c-5.843-.164-10.53-4.93-10.53-10.812 0-5.883 4.687-10.68 10.53-10.844V215.22h-402.28zm8.75 156.44c1.902 0 3.438 1.535 3.438 3.437s-1.536 3.438-3.438 3.438-3.438-1.535-3.438-3.438 1.536-3.437 3.438-3.437zm385 0c1.902 0 3.438 1.535 3.438 3.437s-1.536 3.438-3.438 3.438-3.437-1.535-3.437-3.438 1.535-3.437 3.437-3.437z" style="fill-rule:evenodd;fill:#003000" transform="translate(-102.84 -215.22)"/><path d="M-794.04 252.77h52.203v97.415h-52.203z" style="fill-rule:evenodd;stroke:#000;stroke-width:.80228px;fill:#000" transform="matrix(1 0 0 .87604 1119.77 -167.16)"/><text xml:space="preserve" x="185.609" y="1049.905" style="stroke-width:.1;font-size:8.2472px;letter-spacing:0;word-spacing:0;stroke:#fff;font-family:Arial;line-height:125%;fill:#fff" transform="matrix(0 1.21822 -.71913 0 1119.77 -167.16)">
              <tspan x="185.609" y="1049.905" style="font-size:12px;font-family:Calibri;stroke-width:.1;font-style:oblique">Hyutech</tspan>
            </text><text xml:space="preserve" x="197.451" y="1015.996" style="stroke-width:.096101;font-size:4px;letter-spacing:0;word-spacing:0;stroke:#fff;font-family:Times New Roman;line-height:125%;fill:#fff" transform="matrix(0 1.16925 -.74925 0 1119.77 -167.16)">
              <tspan x="197.451" y="1015.996" style="stroke-width:.096101;font-size:4px;stroke:#fff;font-family:Arial">2GSR-256J23-163</tspan>
            </text><text xml:space="preserve" x="209.966" y="1025.741" style="stroke-width:.096101;font-size:4px;letter-spacing:0;word-spacing:0;stroke:#fff;font-family:Times New Roman;line-height:125%;fill:#fff" transform="matrix(0 1.16925 -.74925 0 1119.77 -167.16)">
              <tspan x="209.966" y="1025.741" style="stroke-width:.096101;font-size:4px;stroke:#fff;font-family:Arial">A#7C-2011</tspan>
            </text><path d="M268.39 780.45a1.512 1.512 0 1 1-3.024 0 1.512 1.512 0 0 1 3.024 0z" style="fill-rule:evenodd;stroke:#1a1a1a;stroke-width:1px;fill:#1a1a1a" transform="matrix(0 .87604 -1 0 1108.77 -177.672)"/><path d="M-794.04 252.77h52.203v97.415h-52.203z" style="fill-rule:evenodd;stroke:#000;stroke-width:.80228px;fill:#000" transform="matrix(1 0 0 .87604 1027.15 -167.16)"/><text xml:space="preserve" x="185.609" y="1049.905" style="stroke-width:.1;font-size:8.2472px;letter-spacing:0;word-spacing:0;stroke:#fff;font-family:Arial;line-height:125%;fill:#fff" transform="matrix(0 1.21822 -.71913 0 1027.15 -167.16)">
              <tspan x="185.609" y="1049.905" style="font-size:12px;font-family:Calibri;stroke-width:.1;font-style:oblique">Hyutech</tspan>
            </text><text xml:space="preserve" x="197.451" y="1015.996" style="stroke-width:.096101;font-size:4px;letter-spacing:0;word-spacing:0;stroke:#fff;font-family:Times New Roman;line-height:125%;fill:#fff" transform="matrix(0 1.16925 -.74925 0 1027.15 -167.16)">
              <tspan x="197.451" y="1015.996" style="stroke-width:.096101;font-size:4px;stroke:#fff;font-family:Arial">2GSR-256J23-163</tspan>
            </text><text xml:space="preserve" x="209.966" y="1025.741" style="stroke-width:.096101;font-size:4px;letter-spacing:0;word-spacing:0;stroke:#fff;font-family:Times New Roman;line-height:125%;fill:#fff" transform="matrix(0 1.16925 -.74925 0 1027.15 -167.16)">
              <tspan x="209.966" y="1025.741" style="stroke-width:.096101;font-size:4px;stroke:#fff;font-family:Arial">A#7C-2011</tspan>
            </text><path d="M268.39 780.45a1.512 1.512 0 1 1-3.024 0 1.512 1.512 0 0 1 3.024 0z" style="fill-rule:evenodd;stroke:#1a1a1a;stroke-width:1px;fill:#1a1a1a" transform="matrix(0 .87604 -1 0 1016.15 -177.672)"/><path d="M-794.04 252.77h52.203v97.415h-52.203z" style="fill-rule:evenodd;stroke:#000;stroke-width:.80228px;fill:#000" transform="matrix(1 0 0 .87604 909.53 -167.16)"/><text xml:space="preserve" x="185.609" y="1049.905" style="stroke-width:.1;font-size:8.2472px;letter-spacing:0;word-spacing:0;stroke:#fff;font-family:Arial;line-height:125%;fill:#fff" transform="matrix(0 1.21822 -.71913 0 909.53 -167.16)">
              <tspan x="185.609" y="1049.905" style="font-size:12px;font-family:Calibri;stroke-width:.1;font-style:oblique">Hyutech</tspan>
            </text><text xml:space="preserve" x="197.451" y="1015.996" style="stroke-width:.096101;font-size:4px;letter-spacing:0;word-spacing:0;stroke:#fff;font-family:Times New Roman;line-height:125%;fill:#fff" transform="matrix(0 1.16925 -.74925 0 909.53 -167.16)">
              <tspan x="197.451" y="1015.996" style="stroke-width:.096101;font-size:4px;stroke:#fff;font-family:Arial">2GSR-256J23-163</tspan>
            </text><text xml:space="preserve" x="209.966" y="1025.741" style="stroke-width:.096101;font-size:4px;letter-spacing:0;word-spacing:0;stroke:#fff;font-family:Times New Roman;line-height:125%;fill:#fff" transform="matrix(0 1.16925 -.74925 0 909.53 -167.16)">
              <tspan x="209.966" y="1025.741" style="stroke-width:.096101;font-size:4px;stroke:#fff;font-family:Arial">A#7C-2011</tspan>
            </text><path d="M268.39 780.45a1.512 1.512 0 1 1-3.024 0 1.512 1.512 0 0 1 3.024 0z" style="fill-rule:evenodd;stroke:#1a1a1a;stroke-width:1px;fill:#1a1a1a" transform="matrix(0 .87604 -1 0 898.53 -177.672)"/><path d="M-794.04 252.77h52.203v97.415h-52.203z" style="fill-rule:evenodd;stroke:#000;stroke-width:.80228px;fill:#000" transform="matrix(1 0 0 .87604 816.908 -167.16)"/><text xml:space="preserve" x="185.609" y="1049.905" style="stroke-width:.1;font-size:8.2472px;letter-spacing:0;word-spacing:0;stroke:#fff;font-family:Arial;line-height:125%;fill:#fff" transform="matrix(0 1.21822 -.71913 0 816.908 -167.16)">
              <tspan x="185.609" y="1049.905" style="font-size:12px;font-family:Calibri;stroke-width:.1;font-style:oblique">Hyutech</tspan>
            </text><text xml:space="preserve" x="197.451" y="1015.996" style="stroke-width:.096101;font-size:4px;letter-spacing:0;word-spacing:0;stroke:#fff;font-family:Times New Roman;line-height:125%;fill:#fff" transform="matrix(0 1.16925 -.74925 0 816.908 -167.16)">
              <tspan x="197.451" y="1015.996" style="stroke-width:.096101;font-size:4px;stroke:#fff;font-family:Arial">2GSR-256J23-163</tspan>
            </text><text xml:space="preserve" x="209.966" y="1025.741" style="stroke-width:.096101;font-size:4px;letter-spacing:0;word-spacing:0;stroke:#fff;font-family:Times New Roman;line-height:125%;fill:#fff" transform="matrix(0 1.16925 -.74925 0 816.908 -167.16)">
              <tspan x="209.966" y="1025.741" style="stroke-width:.096101;font-size:4px;stroke:#fff;font-family:Arial">A#7C-2011</tspan>
            </text><path d="M268.39 780.45a1.512 1.512 0 1 1-3.024 0 1.512 1.512 0 0 1 3.024 0z" style="fill-rule:evenodd;stroke:#1a1a1a;stroke-width:1px;fill:#1a1a1a" transform="matrix(0 .87604 -1 0 805.908 -177.672)"/><g transform="translate(-102.84 -215.22)"><g transform="matrix(-1 0 0 1 285.76 -28.379)"><rect width="2.603" height="16.392" x="159.48" y="409.98" ry="0" style="fill-rule:evenodd;fill:#f0e060"/><rect width="2.603" height="16.5" x="138" y="409.91" ry="0" style="fill-rule:evenodd;fill:#f0e060"/><rect width="2.603" height="11.41" x="134.89" y="414.98" ry="0" style="fill-rule:evenodd;fill:#f0e060"/><rect width="2.603" height="11.41" x="131.91" y="414.96" ry="0" style="fill-rule:evenodd;fill:#f0e060"/><rect width="2.603" height="11.446" x="128.82" y="414.92" ry="0" style="fill-rule:evenodd;fill:#f0e060"/><rect width="2.603" height="11.446" x="125.71" y="414.91" ry="0" style="fill-rule:evenodd;fill:#f0e060"/><rect width="2.603" height="11.446" x="122.69" y="414.89" ry="0" style="fill-rule:evenodd;fill:#f0e060"/><rect width="2.603" height="11.446" x="119.63" y="414.96" ry="0" style="fill-rule:evenodd;fill:#f0e060"/><rect width="2.603" height="11.41" x="156.41" y="414.94" ry="0" style="fill-rule:evenodd;fill:#f0e060"/><rect width="2.603" height="11.482" x="153.43" y="414.89" ry="0" style="fill-rule:evenodd;fill:#f0e060"/><rect width="2.603" height="11.337" x="150.34" y="414.96" ry="0" style="fill-rule:evenodd;fill:#f0e060"/><rect width="2.603" height="11.41" x="147.23" y="414.98" ry="0" style="fill-rule:evenodd;fill:#f0e060"/><rect width="2.603" height="11.374" x="144.25" y="414.96" ry="0" style="fill-rule:evenodd;fill:#f0e060"/><rect width="2.603" height="11.374" x="141.15" y="415" ry="0" style="fill-rule:evenodd;fill:#f0e060"/></g><g transform="matrix(-1 0 0 1 328.64 -28.379)"><rect width="2.603" height="16.392" x="159.48" y="409.98" ry="0" style="fill-rule:evenodd;fill:#f0e060"/><rect width="2.603" height="16.5" x="138" y="409.91" ry="0" style="fill-rule:evenodd;fill:#f0e060"/><rect width="2.603" height="11.41" x="134.89" y="414.98" ry="0" style="fill-rule:evenodd;fill:#f0e060"/><rect width="2.603" height="11.41" x="131.91" y="414.96" ry="0" style="fill-rule:evenodd;fill:#f0e060"/><rect width="2.603" height="11.446" x="128.82" y="414.92" ry="0" style="fill-rule:evenodd;fill:#f0e060"/><rect width="2.603" height="11.446" x="125.71" y="414.91" ry="0" style="fill-rule:evenodd;fill:#f0e060"/><rect width="2.603" height="11.446" x="122.69" y="414.89" ry="0" style="fill-rule:evenodd;fill:#f0e060"/><rect width="2.603" height="11.446" x="119.63" y="414.96" ry="0" style="fill-rule:evenodd;fill:#f0e060"/><rect width="2.603" height="11.41" x="156.41" y="414.94" ry="0" style="fill-rule:evenodd;fill:#f0e060"/><rect width="2.603" height="11.482" x="153.43" y="414.89" ry="0" style="fill-rule:evenodd;fill:#f0e060"/><rect width="2.603" height="11.337" x="150.34" y="414.96" ry="0" style="fill-rule:evenodd;fill:#f0e060"/><rect width="2.603" height="11.41" x="147.23" y="414.98" ry="0" style="fill-rule:evenodd;fill:#f0e060"/><rect width="2.603" height="11.374" x="144.25" y="414.96" ry="0" style="fill-rule:evenodd;fill:#f0e060"/><rect width="2.603" height="11.374" x="141.15" y="415" ry="0" style="fill-rule:evenodd;fill:#f0e060"/></g><g transform="matrix(-1 0 0 1 371.58 -28.457)"><rect width="2.603" height="16.392" x="159.48" y="409.98" ry="0" style="fill-rule:evenodd;fill:#f0e060"/><rect width="2.603" height="16.5" x="138" y="409.91" ry="0" style="fill-rule:evenodd;fill:#f0e060"/><rect width="2.603" height="11.41" x="134.89" y="414.98" ry="0" style="fill-rule:evenodd;fill:#f0e060"/><rect width="2.603" height="11.41" x="131.91" y="414.96" ry="0" style="fill-rule:evenodd;fill:#f0e060"/><rect width="2.603" height="11.446" x="128.82" y="414.92" ry="0" style="fill-rule:evenodd;fill:#f0e060"/><rect width="2.603" height="11.446" x="125.71" y="414.91" ry="0" style="fill-rule:evenodd;fill:#f0e060"/><rect width="2.603" height="11.446" x="122.69" y="414.89" ry="0" style="fill-rule:evenodd;fill:#f0e060"/><rect width="2.603" height="11.446" x="119.63" y="414.96" ry="0" style="fill-rule:evenodd;fill:#f0e060"/><rect width="2.603" height="11.41" x="156.41" y="414.94" ry="0" style="fill-rule:evenodd;fill:#f0e060"/><rect width="2.603" height="11.482" x="153.43" y="414.89" ry="0" style="fill-rule:evenodd;fill:#f0e060"/><rect width="2.603" height="11.337" x="150.34" y="414.96" ry="0" style="fill-rule:evenodd;fill:#f0e060"/><rect width="2.603" height="11.41" x="147.23" y="414.98" ry="0" style="fill-rule:evenodd;fill:#f0e060"/><rect width="2.603" height="11.374" x="144.25" y="414.96" ry="0" style="fill-rule:evenodd;fill:#f0e060"/><rect width="2.603" height="11.374" x="141.15" y="415" ry="0" style="fill-rule:evenodd;fill:#f0e060"/></g><g transform="matrix(-1 0 0 1 414.46 -28.363)"><rect width="2.603" height="16.392" x="159.48" y="409.98" ry="0" style="fill-rule:evenodd;fill:#f0e060"/><rect width="2.603" height="16.5" x="138" y="409.91" ry="0" style="fill-rule:evenodd;fill:#f0e060"/><rect width="2.603" height="11.41" x="134.89" y="414.98" ry="0" style="fill-rule:evenodd;fill:#f0e060"/><rect width="2.603" height="11.41" x="131.91" y="414.96" ry="0" style="fill-rule:evenodd;fill:#f0e060"/><rect width="2.603" height="11.446" x="128.82" y="414.92" ry="0" style="fill-rule:evenodd;fill:#f0e060"/><rect width="2.603" height="11.446" x="125.71" y="414.91" ry="0" style="fill-rule:evenodd;fill:#f0e060"/><rect width="2.603" height="11.446" x="122.69" y="414.89" ry="0" style="fill-rule:evenodd;fill:#f0e060"/><rect width="2.603" height="11.446" x="119.63" y="414.96" ry="0" style="fill-rule:evenodd;fill:#f0e060"/><rect width="2.603" height="11.41" x="156.41" y="414.94" ry="0" style="fill-rule:evenodd;fill:#f0e060"/><rect width="2.603" height="11.482" x="153.43" y="414.89" ry="0" style="fill-rule:evenodd;fill:#f0e060"/><rect width="2.603" height="11.337" x="150.34" y="414.96" ry="0" style="fill-rule:evenodd;fill:#f0e060"/><rect width="2.603" height="11.41" x="147.23" y="414.98" ry="0" style="fill-rule:evenodd;fill:#f0e060"/><rect width="2.603" height="11.374" x="144.25" y="414.96" ry="0" style="fill-rule:evenodd;fill:#f0e060"/><rect width="2.603" height="11.374" x="141.15" y="415" ry="0" style="fill-rule:evenodd;fill:#f0e060"/></g><g transform="matrix(-1 0 0 1 505.93 -28.363)"><rect width="2.603" height="16.5" x="138" y="409.91" ry="0" style="fill-rule:evenodd;fill:#f0e060"/><rect width="2.603" height="11.41" x="134.89" y="414.98" ry="0" style="fill-rule:evenodd;fill:#f0e060"/><rect width="2.603" height="11.41" x="131.91" y="414.96" ry="0" style="fill-rule:evenodd;fill:#f0e060"/><rect width="2.603" height="11.446" x="128.82" y="414.92" ry="0" style="fill-rule:evenodd;fill:#f0e060"/><rect width="2.603" height="11.446" x="125.71" y="414.91" ry="0" style="fill-rule:evenodd;fill:#f0e060"/><rect width="2.603" height="11.446" x="122.69" y="414.89" ry="0" style="fill-rule:evenodd;fill:#f0e060"/><rect width="2.603" height="11.446" x="119.63" y="414.96" ry="0" style="fill-rule:evenodd;fill:#f0e060"/><rect width="2.603" height="11.337" x="150.34" y="414.96" ry="0" style="fill-rule:evenodd;fill:#f0e060"/><rect width="2.603" height="11.41" x="147.23" y="414.98" ry="0" style="fill-rule:evenodd;fill:#f0e060"/><rect width="2.603" height="11.374" x="144.25" y="414.96" ry="0" style="fill-rule:evenodd;fill:#f0e060"/><rect width="2.603" height="11.374" x="141.15" y="415" ry="0" style="fill-rule:evenodd;fill:#f0e060"/></g><g transform="matrix(-1 0 0 1 548.81 -28.268)"><rect width="2.603" height="16.392" x="159.48" y="409.98" ry="0" style="fill-rule:evenodd;fill:#f0e060"/><rect width="2.603" height="16.5" x="138" y="409.91" ry="0" style="fill-rule:evenodd;fill:#f0e060"/><rect width="2.603" height="11.41" x="134.89" y="414.98" ry="0" style="fill-rule:evenodd;fill:#f0e060"/><rect width="2.603" height="11.41" x="131.91" y="414.96" ry="0" style="fill-rule:evenodd;fill:#f0e060"/><rect width="2.603" height="11.446" x="128.82" y="414.92" ry="0" style="fill-rule:evenodd;fill:#f0e060"/><rect width="2.603" height="11.446" x="125.71" y="414.91" ry="0" style="fill-rule:evenodd;fill:#f0e060"/><rect width="2.603" height="11.446" x="122.69" y="414.89" ry="0" style="fill-rule:evenodd;fill:#f0e060"/><rect width="2.603" height="11.446" x="119.63" y="414.96" ry="0" style="fill-rule:evenodd;fill:#f0e060"/><rect width="2.603" height="11.41" x="156.41" y="414.94" ry="0" style="fill-rule:evenodd;fill:#f0e060"/><rect width="2.603" height="11.482" x="153.43" y="414.89" ry="0" style="fill-rule:evenodd;fill:#f0e060"/><rect width="2.603" height="11.337" x="150.34" y="414.96" ry="0" style="fill-rule:evenodd;fill:#f0e060"/><rect width="2.603" height="11.41" x="147.23" y="414.98" ry="0" style="fill-rule:evenodd;fill:#f0e060"/><rect width="2.603" height="11.374" x="144.25" y="414.96" ry="0" style="fill-rule:evenodd;fill:#f0e060"/><rect width="2.603" height="11.374" x="141.15" y="415" ry="0" style="fill-rule:evenodd;fill:#f0e060"/></g><g transform="matrix(-1 0 0 1 26.147 -19.948)"><rect width="2.603" height="16.392" x="-271.67" y="401.66" ry="0" style="fill-rule:evenodd;fill:#f0e060"/><rect width="2.603" height="16.5" x="-293.15" y="401.59" ry="0" style="fill-rule:evenodd;fill:#f0e060"/><rect width="2.603" height="11.41" x="-296.26" y="406.66" ry="0" style="fill-rule:evenodd;fill:#f0e060"/><rect width="2.603" height="11.41" x="-299.24" y="406.64" ry="0" style="fill-rule:evenodd;fill:#f0e060"/><rect width="2.603" height="11.446" x="-302.33" y="406.6" ry="0" style="fill-rule:evenodd;fill:#f0e060"/><rect width="2.603" height="11.446" x="-305.44" y="406.59" ry="0" style="fill-rule:evenodd;fill:#f0e060"/><rect width="2.603" height="11.446" x="-308.46" y="406.57" ry="0" style="fill-rule:evenodd;fill:#f0e060"/><rect width="2.603" height="11.446" x="-311.52" y="406.64" ry="0" style="fill-rule:evenodd;fill:#f0e060"/><rect width="2.603" height="11.41" x="-274.74" y="406.62" ry="0" style="fill-rule:evenodd;fill:#f0e060"/><rect width="2.603" height="11.482" x="-277.72" y="406.57" ry="0" style="fill-rule:evenodd;fill:#f0e060"/><rect width="2.603" height="11.337" x="-280.81" y="406.64" ry="0" style="fill-rule:evenodd;fill:#f0e060"/><rect width="2.603" height="11.41" x="-283.92" y="406.66" ry="0" style="fill-rule:evenodd;fill:#f0e060"/><rect width="2.603" height="11.374" x="-286.91" y="406.64" ry="0" style="fill-rule:evenodd;fill:#f0e060"/><rect width="2.603" height="11.374" x="-290" y="406.68" ry="0" style="fill-rule:evenodd;fill:#f0e060"/></g><rect width="2.603" height="16.392" x="-340.69" y="381.73" ry="0" style="fill-rule:evenodd;fill:#f0e060" transform="scale(-1 1)"/><rect width="2.603" height="11.41" x="-343.76" y="386.7" ry="0" style="fill-rule:evenodd;fill:#f0e060" transform="scale(-1 1)"/><rect width="2.603" height="11.482" x="-346.74" y="386.64" ry="0" style="fill-rule:evenodd;fill:#f0e060" transform="scale(-1 1)"/><g transform="matrix(-1 0 0 1 591.92 -28.256)"><rect width="2.603" height="16.392" x="159.48" y="409.98" ry="0" style="fill-rule:evenodd;fill:#f0e060"/><rect width="2.603" height="16.5" x="138" y="409.91" ry="0" style="fill-rule:evenodd;fill:#f0e060"/><rect width="2.603" height="11.41" x="134.89" y="414.98" ry="0" style="fill-rule:evenodd;fill:#f0e060"/><rect width="2.603" height="11.41" x="131.91" y="414.96" ry="0" style="fill-rule:evenodd;fill:#f0e060"/><rect width="2.603" height="11.446" x="128.82" y="414.92" ry="0" style="fill-rule:evenodd;fill:#f0e060"/><rect width="2.603" height="11.446" x="125.71" y="414.91" ry="0" style="fill-rule:evenodd;fill:#f0e060"/><rect width="2.603" height="11.446" x="122.69" y="414.89" ry="0" style="fill-rule:evenodd;fill:#f0e060"/><rect width="2.603" height="11.446" x="119.63" y="414.96" ry="0" style="fill-rule:evenodd;fill:#f0e060"/><rect width="2.603" height="11.41" x="156.41" y="414.94" ry="0" style="fill-rule:evenodd;fill:#f0e060"/><rect width="2.603" height="11.482" x="153.43" y="414.89" ry="0" style="fill-rule:evenodd;fill:#f0e060"/><rect width="2.603" height="11.337" x="150.34" y="414.96" ry="0" style="fill-rule:evenodd;fill:#f0e060"/><rect width="2.603" height="11.41" x="147.23" y="414.98" ry="0" style="fill-rule:evenodd;fill:#f0e060"/><rect width="2.603" height="11.374" x="144.25" y="414.96" ry="0" style="fill-rule:evenodd;fill:#f0e060"/><rect width="2.603" height="11.374" x="141.15" y="415" ry="0" style="fill-rule:evenodd;fill:#f0e060"/></g><g transform="matrix(-1 0 0 1 634.76 -28.128)"><rect width="2.603" height="16.392" x="159.48" y="409.98" ry="0" style="fill-rule:evenodd;fill:#f0e060"/><rect width="2.603" height="11.41" x="156.41" y="414.94" ry="0" style="fill-rule:evenodd;fill:#f0e060"/><rect width="2.603" height="11.482" x="153.43" y="414.89" ry="0" style="fill-rule:evenodd;fill:#f0e060"/></g></g><path d="M366.7 680.6h6.612v8.324H366.7zM366.7 662.42h6.612v8.324H366.7zM366.7 644.24h6.612v8.324H366.7zM366.7 626.06h6.612v8.324H366.7zM366.7 607.89h6.612v8.324H366.7zM366.7 589.71h6.612v8.324H366.7zM366.7 571.53h6.612v8.324H366.7zM366.7 553.35h6.612v8.324H366.7zM366.7 535.18h6.612v8.324H366.7zM366.7 517h6.612v8.324H366.7zM366.7 498.82h6.612v8.324H366.7zM366.7 480.64h6.612v8.324H366.7zM366.7 462.46h6.612v8.324H366.7zM366.7 444.29h6.612v8.324H366.7zM366.7 426.11h6.612v8.324H366.7zM366.7 407.93h6.612v8.324H366.7zM366.7 389.75h6.612v8.324H366.7zM366.7 371.58h6.612v8.324H366.7zM366.7 353.4h6.612v8.324H366.7z" style="fill-rule:evenodd;stroke:#000;stroke-width:.083462px;fill:#000" transform="matrix(0 .87604 -1 0 718.29 -166.302)"/></svg>