<?xml version="1.0" encoding="UTF-8" standalone="no"?>
<svg id="svg44604" xmlns:rdf="http://www.w3.org/1999/02/22-rdf-syntax-ns#" xmlns="http://www.w3.org/2000/svg" height="895.46" viewBox="0 0 1146.8135 895.46185" width="1146.8" version="1.1" xmlns:cc="http://creativecommons.org/ns#" xmlns:dc="http://purl.org/dc/elements/1.1/">
<path id="path44616" d="m149.01 893.98c-2.5375-4.1058 1.3349-5.4885 27.991-9.9943 23.374-3.951 35.126-4.7104 62.451-4.0356 4.6482 0.1148 10.181-0.717 12.295-1.8484 20.442-10.94 91.987-19.07 99.724-11.332 3.7962 3.7962-3.3724 5.642-17.639 4.5418-21.208-1.6355-53.915 4.4935-90.272 16.916-10.648 3.6384-11.783 3.6843-16.394 0.66278-4.3185-2.8296-7.2133-2.9617-22.56-1.0295-23.866 3.0046-42.527 5.7744-48.872 7.2536-3.1433 0.73286-5.8541 0.27542-6.7257-1.1349zm223.65 0.37854c-12.336-0.89796-17.205-10.19-7.2011-13.742 1.9499-0.69226 4.8954-2.3898 6.5454-3.7723s4.8-2.9264 7-3.4308-0.05-0.49822-5 0.014c-4.95 0.51196-9.45 1.5687-10 2.3483-1.6735 2.3721-14.045 6.8117-15.349 5.5079-2.2477-2.2477 3.4233-6.8862 9.9204-8.1141 7.5183-1.421 19.429-8.2553 19.429-11.148 0-1.2697-5.3918-1.5481-14.715-0.75998-16.064 1.3579-18.249 0.244-16.125-8.2204 0.83514-3.3275 3.1234-5.5573 6.5612-6.3938 2.9034-0.70644 10.229-3.5367 16.279-6.2895s15.5-6.5915 21-8.5305c11.329-3.9941 12.989-8.0708 9.2378-22.698-1.1512-4.4894-2.6711-16.487-3.3777-26.662l-1.2847-18.5h-5.7877c-3.8113-0.00026-5.7877-1.0247-5.7877-3.0003 0-1.65 1.178-3 2.6177-3 6.664 0 10.411-5.3416 7.5263-10.731-2.2475-4.1995-2.2783-5.6976-0.1696-8.2386 2.1329-2.57 1.9844-3.761-0.86126-6.9055-3.2661-3.609-3.2183-4.0202 0.95146-8.19 4.1795-4.1795 4.5988-20.007 0.69724-26.32-4.108-6.6469-65.616 1.9365-89.762 12.526-7.7 3.377-18.5 8.0373-24 10.356-5.5 2.3191-15.529 6.7558-22.286 9.8594-6.7573 3.1036-14.168 5.643-16.468 5.643s-12.521 3.5979-22.714 7.9953-19.987 7.9974-21.766 8c-1.7783 0.002-7.6283 1.7133-13 3.8016-9.2686 3.6032-18.853 5.835-41.933 9.7646-14.328 2.4396-42.118-0.77926-48.993-5.6748-6.7041-4.7737-9.6675-4.8883-12.878-0.49776-2.2964 3.1406-2.8411 3.151-7.434 0.1416-3.0894-2.0242-8.5199-3.1123-14.419-2.8889-12.67 0.47982-18.003-5.3573-15.993-17.505 1.9656-11.876 4.1172-14.812 11.929-16.278 3.8488-0.72204 7.493-2.1141 8.0983-3.0934 0.60527-0.97934 3.2953-1.2298 5.9779-0.55646 4.3152 1.083 4.8797 0.56514 4.897-4.4927 0.0508-14.865 27.898-51.399 53.999-70.845 6.0397-4.4997 13.553-10.137 16.696-12.526 3.143-2.3898 12.143-7.7934 20-12.008 8.8404-4.7422 11.998-7.1654 8.2854-6.3573-18.683 4.0658-18.839 4.0329-25.568-5.3819-2.5116-3.514-5.3396-3.1644-45.565 5.633-3.5433 0.77492-9.0831-0.94564-17.883-5.554-10.515-5.5068-15.047-6.7025-25.866-6.8237-24.711-0.27686-26.42-0.57806-27.538-4.853-1.2389-4.7377-0.47653-4.6868-15.58-1.04-15.348 3.706-15 3.725-15-0.81808 0-4.1667 16.042-10.131 27.308-10.153 20.042-0.0392 24.354-6.4195 14.086-20.841-8.805-12.365-4.6222-42.57 8.4344-60.906 3.6442-5.1178 3.6496-5.4509 0.15792-9.7629-8.201-10.128-4.9634-12.4 26.258-18.431 16.828-3.2502 24.833-5.7888 29-9.197 6.6627-5.4488 2.0273-7.0455-5.8141-2.0027-9.6172 6.1849-47.628-6.2386-49.026-16.024-1.266-8.8604 4.2162-9.648 21.3-3.0599 8.7268 3.3654 19.789 6.712 24.582 7.4369 4.7932 0.72486 10.515 2.9152 12.715 4.8675 7.1722 6.3645 21.458-0.61854 23.784-11.626 1.3084-6.1919 2.7584-8.4437 5.4372-8.4437 2.5264 0 3.3449 1.0795 2.654 3.5-0.5495 1.925 0.0748 1.456 1.3872-1.0422 2.0096-3.8251 1.8046-4.9677-1.2986-7.2367-3.5435-2.5911-3.5226-2.7813 0.54404-4.9577 11.245-6.0183 13.744-1.9282 8.6518 14.16-2.1897 6.9173-4.6964 16.109-5.5705 20.425-1.7898 8.838-4.668 10.788-9.2143 6.2412-5.4206-5.4205-6.975-3.3901-6.975 9.1107 0 6.71-0.99 13.19-2.2 14.4-2.8749 2.8749-2.8172 8.7825 0.1034 10.588 1.2669 0.78296 3.2953 0.067 4.5077-1.5909 1.2123-1.658 4.0008-3.6413 6.1966-4.4074 10.251-3.5764 16.953-21.332 12.074-31.989-1.5067-3.2911-1.0934-3.6413 3.0895-2.6176 9.7196 2.3787 12.265-2.4462 7.7734-14.735-4.6209-12.642-5.0711-21.542-1.1656-23.04 1.5842-0.6079 2.3518-2.7001 1.7853-4.8661-1.3001-4.9716 17.383-13.813 32.481-15.371 30.668-3.1652 42.805 11.009 34.07 39.789-9.5748 31.55-72.44 92.979-105.12 102.71-2.75 0.8193-11.224 4.5128-18.831 8.2077-14.709 7.1445-19.121 7.955-25.301 4.6477-5.5823-2.9875-4.8111-6.242 3.3261-14.037 3.9571-3.7908 11.236-12.517 16.176-19.392 5.636-7.8443 10.405-12.5 12.805-12.5 4.1363 0 5.1314-2.9562 1.7074-5.0724-1.2144-0.75058-1.5731-3.7854-0.84109-7.118 2.3454-10.678-7.8507-3.5245-11.99 8.4126-2.6074 7.519-32.574 37.778-37.413 37.778-6.3914 0-3.9288-4.9566 6.3616-12.804 5.5-4.1943 10-8.4293 10-9.411 0-2.8048-1.7802-2.1561-8.8222 3.2151-7.4955 5.7171-9.1778 6.1259-9.1778 2.23 0-1.5235 2.175-4.1951 4.8333-5.9369 24.229-15.875 38.199-36.734 30.128-44.983-2.1289-2.1758-12.451 2.2977-12.222 5.2965 0.18146 2.3679-2.6354 4.3546-9.3185 6.5724-11.412 3.7869-11.424 3.7985-19.018 17.969-16.051 29.952-9.6224 65.852 11.791 65.852 12.497 0 58.201-18.032 74.193-29.273 5.264-3.7 10.326-6.7272 11.248-6.7272 3.1087 0 39.302-31.215 46.364-39.987 3.85-4.7821 10.26-12.661 14.245-17.508 3.9845-4.8473 8.4521-11.219 9.9279-14.159 1.4758-2.9401 4.3097-7.7613 6.2975-10.714 26.774-39.766 6.3963-67.684-43.534-59.642-10.544 1.6983-40.914 14.974-40.95 17.901-0.0294 2.3894-13.895 10.401-15.879 9.1751-4.6011-2.8436-1.5929-7.3224 8.8928-13.24 12.585-7.1025 13.011-8.734 6.2941-24.077-6.8103-15.555-16.662-69.1-13.612-73.983 3.7798-6.0525-3.5022-51.014-14.053-86.766-11.533-39.08-13.678-44.834-26.574-71.267-20.457-41.932-36.706-66.805-59.274-90.733-16.975-17.997-15.701-37 2.4805-37 14.04 0 52.485 56.737 81.31 120 14.085 30.913 33.225 100.68 35.526 129.49l1.3168 16.491 5.7847-3.4171c6.4431-3.8061 16.658-14.24 23.443-23.946 5.2764-7.5476 10.62-9.6891 16.424-6.5826 12.383 6.6271 37.933 10.115 37.933 5.1783 0-3.3084-4.8596-5.5261-8.7977-4.0149-18.012 6.912 0.97494-9.3086 44.798-38.27 18.15-11.995 34.625-23.299 36.61-25.12 4.4181-4.0523 18.851-6.2374 23.779-3.6001 4.3592 2.333 4.3596 2.3222 0.62388-15.208-7.9213-37.172-18.525-68.122-33.518-97.83-15.53-30.773-31.385-54.02-41.813-61.307-9.5302-6.6598-10.012-8.0983-4.443-13.26 3.7344-3.4609 7.2979-4.5946 14.364-4.5696l9.36 0.013603 12.08 17.466c6.6446 9.6067 13.356 20.167 14.914 23.467 1.5579 3.3 3.9108 7.35 5.2286 9 3.9479 4.9431 23.654 53.421 31.3 77 11.13 34.32 25.476 101.76 25.476 119.75 0 8.26 0.4811 9.2481 4.5 9.2421 4.5771-0.006 38.903-6.6457 46.872-9.0653 4.7683-1.4479 4.9898-0.78398 7.6426 22.912 1.0767 9.6175 2.4316 15.514 8.9984 39.16 0.91646 3.3 3.1367 11.4 4.9339 18s4.037 14.7 4.9774 18c0.94038 3.3 2.2862 10.201 2.9908 15.336 1.6717 12.184 4.5676 14.55 14.449 11.806 44.285-12.297 76.762 25.809 65.555 76.917-1.6812 7.6671-3.625 17.09-4.3196 20.94-0.69454 3.85-2.3972 7.9-3.7838 9-1.3865 1.1-4.4215 5.7166-6.7445 10.259-5.3434 10.449-10.955 15.597-15.219 13.961-2.1811-0.83698-2.9576-0.41138-2.2939 1.2574 0.55178 1.3875 2.6124 6.5727 4.5791 11.523 10.375 26.113 13.461 23.813 25.055-18.68 1.9082-6.9939 2.3952-7.4137 5.4517-4.6992 1.846 1.6394 6.7977 4.4022 11.004 6.1395 8.4472 3.4891 8.6533 6.8058 1.09 17.548-6.7943 9.6504-2.384 10.47 12.563 2.3344 12.862-7.0003 16.748-4.4032 13.357 8.9261-2.7753 10.909-9.6584 15.626-9.6584 6.6192 0-8.4336-2.0459-8.8323-15.285-2.9788-25.427 11.242-14.19 15.271 23.925 8.5779 13.158-2.3105 17.36-0.50558 17.36 7.4574 0 7.3718 3.6156 5.61 5.9004-2.8751 1.13-4.1966 4.195-9.641 6.811-12.099 3.6728-3.4504 5.0611-7.4423 6.0938-17.522 0.83712-8.1707 3.0388-15.803 5.8855-20.401 6.1734-9.9728 19.309-38.138 19.309-41.401 0-17.627 21.796-18.664 25.715-1.224 1.0584 4.7104 3.2073 10.075 4.7753 11.921 1.5681 1.8463 4.0145 6.2964 5.4365 9.8892 2.7051 6.8346 8.0471 5.9917 8.0946-1.2773 0.012-1.7903 3.1617-6.3065 7-10.036s6.9787-7.4349 6.9787-8.2342c0-2.7366 16.351-12.278 19.18-11.192 9.9242 3.8083 9.9676 18.491 0.0644 21.793-1.4474 0.48246-1.1821 2.1207 0.78362 4.8401 21.927 30.333 28.05 40.11 29.039 46.366 0.62648 3.9649 1.8834 10.53 2.7932 14.59 3.8502 17.18-6.5028 33.444-21.36 33.555-9.2758 0.0694-10.348 1.2066-5 5.3051 5.2364 4.0133-0.0412 6.6903-13.264 6.7279-9.7335 0.0276-11.409 0.71432-17.5 7.173-9.0252 9.5695-9.2561 15.528-0.48306 12.47 6.5546-2.285 57.559-0.87804 80.747 2.2273 6.6 0.8839 12.848 1.1217 13.884 0.52844 9.0911-5.2047 75.509-2.707 84.616 3.1821 13.648 8.8258 2.7942 12.219-30.806 9.6305-15.972-1.2304-32.966-1.4832-39-0.58008-5.8815 0.88024-16.994 1.1024-24.694 0.49368-37.781-2.9867-95-3.4502-95.296-0.77188-0.1628 1.4728-0.38786 4.0278-0.5 5.6778-0.1122 1.65-1.9519 8.1358-4.0884 14.413-3.3466 9.8323-3.5154 12.103-1.2189 16.394 2.1418 4.002 2.2076 7.309 0.33512 16.827-1.6298 8.2843-1.7144 13.467-0.2811 17.236 1.1272 2.9647 2.0494 10.679 2.0494 17.142 0 11.766 2.3306 16.611 5.3771 11.177 4.7236-8.4248 24.73-28.11 32.123-31.608 4.675-2.2119 8.5-5.1675 8.5-6.5681 0-2.6544 6.0258-4.9388 13.151-4.9857 2.2832-0.016 6.1604-2.1658 8.6158-4.7795 2.7384-2.9149 7.6789-5.1833 12.778-5.8673 4.5727-0.61332 9.4045-2.6065 10.737-4.4292 1.7287-2.3641 3.7552-2.8796 7.0702-1.7983 9.6945 3.1622 21.597 0.8628 27.498-5.3123 6.6958-7.0065 9.6513-7.3835 10.509-1.3406 1.0654 7.5017 11.126 7.304 17.105-0.33618 7.6092-9.7227 12.885-8.5118 7.5835 1.7405-5.5462 10.725 8.9194 11.767 15.216 1.0957 2.2716-3.85 5.3912-7 6.9326-7 3.7232 0 3.5877 6.8585-0.1976 10-3.4557 2.868-4.015 8-0.87184 8 2.4643 0 20.32 8.5439 28.359 13.57 11.794 7.3731 29.968-8.5347 22.048-19.298-14.246-19.359-29.009-59.321-25.732-69.656 0.8539-2.6931-0.75614-4.6371-6.3075-7.6161-19.391-10.406-25.742-45.3-10.375-57 18.641-14.193 27.37-24.122 30.804-35.041 4.0924-13.011 5.4271-14.131 11.833-9.9338 6.6096 4.3308 9.0757 0.1844 3.4512-5.8025-5.5117-5.8669-5.3124-9.5428 0.80568-14.862 8.6548-7.5253 18.985-4.7804 18.985 5.0445 0 2.8124 3.026 7.339 7.773 11.628 9.4831 8.5674 13.087 25.304 7.3386 34.078-1.8445 2.815-2.295 4.8896-1.0618 4.8896 2.3544 0 11.786-10.024 11.887-12.633 0.0348-0.8984 2.5382-4.9455 5.5632-8.9935 16.646-22.276 42.836-29.543 39.836-11.055-0.83248 5.1299 0.0362 9.5297 3.0461 15.429 12.9 25.282 9.8093 66.151-6.7868 89.753-2.1271 3.025-5.5086 5.5-7.5144 5.5-2.1848 0-4.1315 1.9305-4.8555 4.8149-0.89642 3.5716-2.2198 4.5505-5.125 3.7907-3.9615-1.036-4.0812 10.714-0.167 16.394 0.75794 1.1 2.8917 6.1027 4.7416 11.117 4.0318 10.928 15.865 23.718 31.132 33.646 27.336 17.778 30.074 21.457 25.143 33.78-2.6077 6.5173-12.752 15.225-23.832 20.456-24.874 11.745-26.765 18.613-9.9205 36.034 7.9275 8.1993 18.803 29.799 18.803 37.345 0 3.3892 3.5432 3.3101 13.798-0.30792 16.374-5.7771 63.848-7.5084 88.104-3.213 22.13 3.9188 38.744 28.368 22.213 32.691-5.3549 1.4003-6.3633-0.196-4.9347-7.8111 1.295-6.9032-8.5352-16.119-14.712-13.793-1.3923 0.52426-9.3618-0.45936-17.71-2.1858-10.996-2.2741-15.782-2.5356-17.369-0.94926-1.2044 1.2044-8.2104 2.1898-15.569 2.1898-14.268 0-44.779 5.0625-49.798 8.2627-2.0789 1.3256-0.5245 1.5486 4.977 0.71422 4.4-0.66738 11.6-1.549 16-1.9591 4.4-0.41012 14.413-1.3781 22.251-2.151 17.102-1.6864 28.494 0.1018 30.219 4.7435 3.0997 8.34 9.3928 14.39 14.969 14.39 6.7601 0 9.2758 4.7157 5.1077 9.5745-1.6162 1.884-3.5438 5.1222-4.2836 7.196-1.2168 3.4111-2.6282 3.6202-14.804 2.1935-36.044-4.2233-110.66 1.0546-116.64 8.2497-2.8956 3.489-7.753 3.4705-12.39-0.0472-5.3181-4.0342-24.114 0.36472-25.107 5.876-1.1091 6.1529-2.1615 6.6164-22.352 9.8445-10.435 1.6684-26.173 4.3725-34.973 6.0091-32.488 6.0418-38.375 7.0054-56 9.1649-31.061 3.8058-55.983 3.4789-60.708-0.79644-2.2222-2.011-5.0303-3.0446-6.2404-2.2968-1.21 0.74784-10.042 1.6485-19.626 2.0014-9.5843 0.35294-29.347 1.2855-43.917 2.0724-21.879 1.1817-27.284 0.91054-31.051-1.5576-2.5084-1.6436-12.188-3.6606-21.509-4.4823-9.3218-0.8217-18.564-2.6211-20.538-3.9986-3.8463-2.6841-16.749-0.92934-42.7 5.8069-15.423 4.0035-15.391 4.0053-14.132-0.8101 1.3918-5.3224-1.4486-5.0428-12.083 1.1891-6.6963 3.9243-10.445 4.8907-15.379 3.965-4.4244-0.83002-9.3563 0.0606-15.321 2.767-10.545 4.7842-15.797 5.1429-15.797 1.0789 0-4.2148-4.4624-3.7299-9.5837 1.0414-3.5888 3.3434-4.9998 3.6281-8.1702 1.6481-3.2327-2.0188-4.8451-1.541-10.306 3.0539-7.4577 6.2753-12.661 6.1742-13.579-0.26384-0.85806-6.0143-4.9647-5.6752-19.361 1.5987-21.188 10.706-44.163 14.511-74.344 12.314zm53.344-13.351c12.62-3.6967 18.744-6.3769 26.471-11.585 3.9959-2.6934 6.4165-3.1585 8.9777-1.7252 2.592 1.4506 5.8599 0.72158 12.529-2.7949 26.002-13.711 35.457-16.736 37.299-11.936 1.5075 3.9285 10.636 3.8389 16.345-0.1604 2.4816-1.7382 10.487-4.0064 17.789-5.0406 7.3023-1.0341 14.489-2.8862 15.971-4.1157 2.0375-1.691 3.6477-1.3719 6.6112 1.3099 3.1001 2.8056 5.7006 3.2481 12.462 2.1209 4.6997-0.78346 9.8949-1.3611 11.545-1.2837 7.9535 0.37336 13.234 1.3462 15.626 2.8786 1.6378 1.0494 4.0158 0.42494 6.3189-1.6594 3.4582-3.1296 3.8254-3.1103 5.779 0.30408 1.8992 3.3193 2.6454 2.974 8.3267-3.8539 3.4323-4.125 7.1752-7.5 8.3175-7.5 1.3125 0 1.5681 2.7605 0.69446 7.5l-1.3825 7.5 6.7551-6.5c8.1042-7.7981 10.424-8.1961 8.7434-1.5-0.72366 2.8833-0.39212 5 0.78318 5 1.121 0 2.0381-0.9 2.0381-2s1.8-2 4-2 4 0.95658 4 2.1257 1.575 1.8847 3.5 1.5902c1.925-0.29452 5.75 0.70436 8.5 2.2197 2.75 1.5154 7.25 3.0128 10 3.3276 2.75 0.31478 9.1914 1.167 14.314 1.8937 6.7126 0.9523 11.11 0.4256 15.743-1.8857 3.5358-1.7639 7.32-2.6562 8.4094-1.9829 1.8158 1.1222 5.4303-2.5352 5.5028-5.5681 0.016-0.70386-4.0194-3.1835-8.9694-5.5103-8.7655-4.1203-11.958-10.146-7-13.21 1.1-0.67984 2.0045-2.758 2.0099-4.618 0.006-1.8601 2.1829-6.082 4.8388-9.382l4.8289-6 7.0517 3.756c8.3747 4.4606 13.271 3.1884 13.271-3.4483 0-9.5776 5.0725-10.731 24.745-5.6278 11.325 2.9381 12.337 4.7027 8.3743 14.606-3.9534 9.8804-1.397 13.714 9.1454 13.714 7.8324 0 8.734 2.9747 4.5936 15.156-4.1544 12.222-3.5829 13.782 3.995 10.9 2.9742-1.1308 8.8388-2.056 13.032-2.056 4.3228 0 8.6984-1.2935 10.104-2.9868 1.8227-2.1962 5.4315-2.7766 13.634-2.1926 9.3064 0.6625 12.334-0.008 18.266-4.0417 6.6719-4.5376 7.2682-4.6206 9.6679-1.3466 2.3776 3.2439 2.8698 3.1211 7-1.7468 6.5544-7.7251 29.443-12.816 29.443-6.5492 0 2.5545 1.1828 2.2939 6.3775-1.405 3.5076-2.4976 8.6115-4.3563 11.342-4.1303 2.7305 0.22598 7.0101-0.9294 9.5101-2.5675 2.8456-1.8645 6.7748-2.5326 10.506-1.7863 3.7797 0.75594 7.5266 0.0954 10.24-1.8055 3.3392-2.3389 5.5184-2.53 9.9166-0.86992 4.7311 1.7858 7.394 1.268 16.571-3.222 6.0139-2.9424 11.847-5.3497 12.963-5.3497 5.6047 0 16.776-22.54 16.936-34.172 0.1874-13.578-1.2992-15.311-14.439-16.836-12.97-1.5053-13.973-2.5173-7.9248-7.9913 4.7784-4.3244 5.1348-7 0.93254-7-1.6871 0-4.9519 3.1939-7.2551 7.0975-4.6435 7.8701-10.779 8.6759-10.523 1.3821 0.1152-3.2801-0.47548-3.8729-2.3274-2.336-1.7712 1.47-3.5331 0.97708-6.1543-1.7218-2.0199-2.0798-5.1285-4.3016-6.908-4.9374-12.376-4.4216 10.541-33.484 26.404-33.484 2.2394 0 8.1971-3.15 13.239-7 8.4908-6.4832 8.7872-7 4.0148-7-7.2033 0-9.6406-7.7033-3.6878-11.656 8.1511-5.4121 1.0386-9.359-7.3853-4.0983-2.794 1.7449-5.1307 1.4526-10.473-1.3099-3.782-1.9558-7.2532-3.6415-7.7137-3.746-0.46048-0.1046-2.3272 2.5099-4.1482 5.8099-2.7314 4.9497-5.263 6.3906-14.462 8.2316-22.934 4.5895-61.704 41.54-41.052 39.125 7.1248-0.83312 7.0057-0.3398-2.5982 10.757-8.4113 9.7185-9.2486 13.011-2.1875 8.6008 6.6858-4.1753 7.2777-0.36074 1.2857 8.2857-5.3968 7.7876-6.2063 13.273-1.0401 7.0483 7.0219-8.4609 10.123-1.8902 3.877 8.2156-2.2897 3.7048-3.2428 6.7361-2.118 6.7361s2.6013-0.9 3.2812-2c2.0883-3.379 7.3175-2.2179 8.3843 1.8617 0.55542 2.1239 2.2712 4.3457 3.8128 4.9372 1.5416 0.59156 2.8029 2.4005 2.8029 4.0197 0 2.574 0.69148 2.5835 5.5 0.0752 17.528-9.1435 22.226-2.0524 8.4363 12.732-9.6825 10.381-16.369 12.656-11.732 3.9926 2.1199-3.9612 2.0232-4.0045-2.2527-1.0096-4.3865 3.0724-22.498-1.408-25.933-6.4152-0.56038-0.81698-2.6872-2.1024-4.7264-2.8564-2.4236-0.8962-3.2698-2.5117-2.4435-4.665 0.76258-1.9873-0.42834-5.0955-3.002-7.8351-2.3463-2.4976-3.6913-5.471-2.9888-6.6077s0.172-3.8366-1.179-5.9999c-1.9423-3.1102-1.9409-5.0644 0.008-9.3398 4.1522-9.1131 0.803-7.9362-5.1059 1.7942-6.4743 10.662-11.604 12.531-9.6223 3.5065 0.74752-3.4034 0.37376-6.3672-0.90246-7.156-1.3186-0.81494-1.6717-4.0477-0.8945-8.1904 0.8739-4.6583 0.52844-6.844-1.0818-6.844-1.3277 0-2.0942-2.0719-1.7469-4.7219 0.34032-2.5971-0.33768-5.9721-1.5067-7.5s-3.2237-6.618-4.5659-11.311c-1.3422-4.6932-5.0998-11.562-8.3502-15.264-3.2512-3.7021-5.9106-7.7371-5.9106-8.9669 0-3.2723 7.1004-2.7298 10 0.76404 1.3694 1.65 4.2019 3 6.2944 3 2.177 0 4.5863 2.0559 5.6317 4.8057 1.0049 2.6431 2.7826 5.3963 3.9505 6.118 1.1678 0.72176 2.1234 3.0145 2.1234 5.0949s1.2781 4.5023 2.8402 5.382c1.5621 0.87966 3.1371 4.6801 3.5 8.4454 0.91112 9.4541 5.6598 10.661 5.6598 1.4387 0-3.8767-0.90442-7.6076-2.0098-8.2908-1.1054-0.68318-1.8279-5.0113-1.6056-9.618 0.22236-4.6067 0.002-9.7259-0.49016-11.376-0.6649-2.2301 0.49082-2.8564 4.5033-2.4403 14.114 1.4635 11.152-11.765-4.8657-21.729-22.392-13.929-29.525-16.687-56.532-21.864-12.987-2.4892-50.098 0.33088-53.86 4.0928-1.0669 1.0669-4.7704 1.9399-8.2299 1.9399-3.75 0-7.7518 1.6152-9.91 4-1.991 2.2-5.5584 4-7.9277 4s-6.0548 1.3214-8.19 2.9364-5.0363 2.965-6.4468 3c-4.356 0.108-28.969 17.341-38.075 26.659-10.78 11.031-6.5584 20.443 5.7883 12.905 3.4429-2.1021 4.5083-1.9429 6.6934 1 2.7894 3.7568 9.1577 4.7999 9.1577 1.5 0-1.1 1.35-2 3-2 1.6667 0 3 1.7778 3 4 0 4.2182 2.9098 5.3821 5 2 3.0204-4.8871 7.3221-2.0193 6 4-1.6036 7.3011 1.6495 7.966 8.3189 1.7004 7.7445-7.2755 8.5052 0.65134 0.78656 8.1965-7.74 7.5661-9.4044 7.5783-18.433 0.1358-8.2814-6.8261-15.664-10.033-23.1-10.033-4.3574 0-3.6313 0.80702 4.6302 5.1467 15.447 8.1142 24.672 22.669 23.992 37.853-0.48972 10.929-5.9375 11.124-6.8296 0.24492-1.0647-12.983-13.831-29.575-24.864-32.313-7.3528-1.8249-6.9567-0.3881 2.5 9.0686 11.621 11.621 10.606 51-1.3141 51-4.0187 0-4.0572-1.1952-0.48938-15.21 2.3177-9.1044 1.0402-27.79-1.9-27.79-0.8021 0-1.5561 4.9836-1.6755 11.075-0.24712 12.603-7.602 32.925-11.916 32.925-4.5383 0-5.2552-5.1345-1.6819-12.045 6.2831-12.15 6.4085-27.389 0.24844-30.196-6.3408-2.889-6.4003-3.7843-1.1681-17.551 4.7272-12.437 4.036-16.209-2.9702-16.209-6.5359 0-9.1266-5.1948-9.1604-18.369-0.043-16.759-1.3398-19.658-8.1819-18.29-7.4428 1.4886-7.6707-2.394-0.74006-12.607 6.1508-9.0637 8.4874-17.222 5.2423-18.304-6.1354-2.0451-6.3068-8.1402-0.64276-22.85 3.8715-10.054 5.375-17.052 4.7725-22.212-0.72148-6.1799 0.44532-9.5295 6.4918-18.636 6.7735-10.202 7.1165-11.384 4.2284-14.575-5.6357-6.2274-4.063-10.748 3.357-9.6499 35.336 5.2301 33.309-21.785-2.4431-32.566-2.7813-0.83876-6.6319-2.165-8.5569-2.9473-2.1405-0.86982-3.5-0.52016-3.5 0.90016 0 1.2774-2.7525 5.1986-6.1167 8.714-6.0014 6.271-6.0937 6.6744-4.8991 21.392 3.3476 41.24-2.06 68.647-14.567 73.827-11.665 4.8318-19.984 26.173-10.203 26.173 4.2895 0 5.1813 5.5901 1.1392 7.1412-5.8064 2.2281-2.9617 15.267 3.0692 14.068 7.2295-1.4374 8.4158 1.1858 3.4125 7.5464-2.5685 3.2654-3.644 6.6955-2.8669 9.1439 0.72056 2.2703-0.23168 6.1698-2.2641 9.2718-3.4616 5.283-3.4498 5.3351 0.89416 3.9564 4.884-1.5501 5.6608 0.7832 2.3315 7.0039-1.6374 3.0595-1.4151 3.8685 1.0628 3.8685 5.4505 0 6.0372 6.2062 0.94948 10.044-4.5403 3.4247-4.6025 3.8654-2.0491 14.509 2.8398 11.837 1.9526 15.447-3.7969 15.447-5.2877 0-6.2672 4.4802-3.7354 17.087 2.1732 10.821 2.3734 11.07 7.9345 9.8483 6.925-1.521 7.7877 2.56 1.705 8.0648-2.2 1.991-4.001 4.6055-4.0022 5.81-0.001 1.2045-4.4363 5.4831-9.8559 9.508-11.092 8.2379-12.142 7.5912-12.142-7.4815 0-6.5213-0.786-8.8364-3-8.8364-2.2776 0-3.0153 2.5283-3.0636 10.5-0.0568 9.3861-3.1433 17.5-6.6569 17.5-6.1005 0 3.1107-53.541 10.221-59.412 2.9386-2.4263 4.8314-4.9231 4.2061-5.5483-0.62526-0.62526-2.2753 0.2349-3.6667 1.9115s-3.6765 3.0483-5.0778 3.0483c-2.4303 0-11.715 9.6937-15.962 16.666-1.6516 2.711-6.2278 3.3596-26.271 3.7233l-24.271 0.44038-1.1617 9.0854c-3.6439 28.498-16.961 43.758-31.429 36.015-5.0726-2.7148-4.929-8.3052 0.2973-11.569 18.169-11.347 18.269-44.387 0.1824-60.245l-11.348-9.9497-0.67584-23.235c-0.89864-30.895 1.4819-38.98 14.233-48.34 16.927-12.426 27.786-36.591 16.443-36.591-1.65 0-3 1.35-3 3 0 3.9729-5.2417 3.8608-6.7789-0.1448-0.66374-1.7297-0.31002-4.8205 0.78604-6.8685 3.3169-6.1977 2.4881-6.5897-11.007-5.2071-13.363 1.3691-16.872-0.56662-8.8287-4.8712 6.0011-3.2117 3.646-4.2462-6.1137-2.6856l-8.4764 1.3554 1.2879 8.0544c0.75984 4.7518 3.3059 9.9246 6.2094 12.615 7.0591 6.5422 5.5716 27.436-2.6452 37.154-1.8327 2.1677-3.3405 10.506-4.155 22.978-1.0226 15.66-1.916 19.697-4.4659 20.184-3.2209 0.61492-7.1905-44.031-4.8515-54.564 1.986-8.9436 2.4164-21.149 0.78148-22.159-2.8035-1.7326-2.0036-6.4902 1.2095-7.1941 2.4503-0.53676 2.5352-1.4629 0.5-5.4503-4.108-8.0485-8.4986-9.6219-15.428-5.5287-3.3395 1.9727-7.7663 3.0489-9.8373 2.3916-21.163-6.717-43.989 29.082-37.151 58.265 1.9891 8.4886 2.7189 16.996 1.924 22.429-0.70436 4.8142-1.1748 13.814-1.0455 20 0.75616 36.166 1.9423 56.402 3.8243 65.247 1.1703 5.5 2.7392 14.05 3.4864 19 0.74724 4.95 3.0273 11.389 5.0668 14.309 2.0395 2.9198 3.7082 6.6606 3.7082 8.3128 0 2.0926 1.3094 2.6616 4.3159 1.8754 3.558-0.93042 4.132-0.42568 3.2691 2.8742-1.2348 4.722 3.9212 8.6289 11.388 8.6289 7.8909 0 5.9954 5.2006-3.4729 9.5285-29.3 13.393-40.822 16.802-38.777 11.472 1.4794-3.8552-1.5262-3.788-12.156 0.27172-20.06 7.6611 16.055 9.2041 41.433 1.7702zm36-37.007c0-1.264 0.85764-3.9006 1.9059-5.8593 3.1745-5.9317 32.068-35.36 32.081-32.676 0.008 1.375-0.88716 2.5-1.9872 2.5s-2 0.94298-2 2.0955-2.25 4.1807-5 6.7293-5 5.4471-5 6.4412c0 2.1862-15.659 21.46-18.2 22.401-0.99022 0.36668-1.8004-0.3675-1.8004-1.6315zm-2.8354-11.769c-1.3014-2.1057 25.78-35.561 31.084-38.399 6.3996-3.4249 4.4634 0.018-11.266 20.032-13.822 17.587-17.941 21.404-19.817 18.367zm-7.1646-4.077c0-0.99592 3.095-5.5153 6.8778-10.043s9.5751-12.938 12.872-18.689c7.2646-12.674 21.588-27.343 19.278-19.743-0.78798 2.5926-2.6323 6.1926-4.0986 8s-9.5339 12.061-17.928 22.786c-15.051 19.231-17.001 21.259-17.001 17.689zm379.1-8.0197c-0.69752-1.1286 0.1838-4.8597 1.9582-8.2913 1.7745-3.4316 2.6052-7.733 1.8459-9.5587-0.75928-1.8257-1.6674-5.1195-2.018-7.3195-0.35066-2.2-1.9042-8.692-3.4522-14.427-2.5812-9.562-2.5099-10.889 0.86016-16 5.7238-8.6807 5.1193-12.243-6.4037-37.739-4.6295-10.243-20.205-30.994-25.82-34.4-2.3266-1.411-3.6922-3.436-3.0346-4.5 6.4258-10.397 32.467 19.991 44.097 51.457 1.9532 5.2848 4.2587 10.556 5.1232 11.713 0.86456 1.1572 1.0424 4.1288 0.3953 6.6034-1.0536 4.0289-0.62662 4.3613 4.0837 3.1791 6.9208-1.737 7.0284 2.7052 0.26032 10.749-6.0528 7.1934-6.0998 7.833-0.8853 12.055 4.1106 3.3285 4.1086 3.3387-1.9564 10.132-5.6193 6.294-5.8139 6.9935-2.6147 9.3995 3.2498 2.4441 3.2002 3.053-0.82988 10.189-4.3248 7.6574-9.2731 10.538-11.609 6.7586zm-393.98-7.9312c-3.5353-6.8365-14.198-16.238-18.416-16.238-5.9077 0-2.2387-8.9392 3.9604-9.649 10.147-1.1619 25.627 19.342 21.912 29.022-1.6061 4.1854-4.245 3.076-7.4568-3.135zm502.16 2.3741c-4.3506-4.3506 7.7329-20.612 15.316-20.612 5.2842 0 4.0558 3.0287-3.5952 8.8644-3.85 2.9365-7 6.5902-7 8.1193 0 3.2572-2.8793 5.4702-4.721 3.6286zm-486.62-4.6123c2.1728-8.7126-10.089-29.694-18.254-31.236-8.5914-1.6224-8.1944-7.9784 0.4591-7.3487 6.7327 0.48994 14.312 7.0115 16.01 13.775 1.7602 7.013 5.8252 5.9097 12.219-3.3162 4.6061-6.6467 6.4842-7.9126 10.313-6.9516 2.5747 0.64622 6.4629 0.2215 8.6403-0.94382 6.4615-3.4581 4.6397-0.28118-8.041 14.022-6.6 7.4444-12 14.383-12 15.419s-2.3833 4.0656-5.2963 6.7323l-5.2963 4.8486zm14.203-19.143c2.8487-2.8487 4.3948-8.8571 2.279-8.8571-0.47508 0-2.7864 2.7-5.1362 6-4.4836 6.2966-2.5329 8.2472 2.8571 2.8571zm325.87 10.143c-1.1684-3.0449-0.81774-4.1001 4.3201-13 2.5257-4.3751 2.5159-5.2775-0.0784-7.2205-3.6182-2.7097-3.8547-9.0774-0.46492-12.514 2.003-2.0308 1.8042-3.0487-1-5.1205-4.2929-3.1717-4.5016-7.8238-0.5-11.145 3.5176-2.9193 3.9939-8 0.75-8-1.4178 0-1.8195-2.1523-1.0862-5.8191 0.8086-4.043 0.2851-6.1563-1.7152-6.9239-1.9846-0.76156-2.5241-2.8797-1.7364-6.8178 1.4526-7.263-7.423-20.954-21.371-32.966-10.792-9.294-11.893-11.474-5.7968-11.474 4.5896 0 20.475 13.876 25.368 22.16 1.7866 3.0246 5.4496 6.5021 8.1399 7.7279 3.7582 1.7123 4.6732 3.3707 3.9492 7.1577-0.5543 2.8996 0.26352 5.9297 1.9863 7.3595 4.1239 3.4225 7.1727 11.64 6.6666 17.969-0.2364 2.9559 0.62398 7.3434 1.9119 9.75 1.8134 3.3884 1.7682 5.4472-0.2004 9.1256-2.071 3.8698-2.0473 5.6746 0.1282 9.7395 2.3681 4.4248 2.0916 6.1791-2.443 15.5-2.8123 5.7808-5.6336 12.085-6.2696 14.01-1.4137 4.2793-8.971 4.6372-10.559 0.5zm-331.95-37.87c-9.6511-6.7599-20.095-37.12-12.77-37.12 0.95672 0 1.2283-3.15 0.60354-7-0.90922-5.6029-0.48494-7 2.1257-7 1.7939 0 3.2617 1.4357 3.2617 3.1904 0 4.864 11.549 25.004 18.491 32.246 5.3875 5.6202 5.7322 6.6038 2.7198 7.7598-4.1313 1.5853-13.455-6.6578-18.037-15.947-3.066-6.2151-3.0827-6.2206-3.128-1.03-0.0288 3.2987 2.9487 8.6201 8.0939 14.465 9.6786 10.996 8.8217 17.569-1.3606 10.437zm297.8-48.245c-4.1681-3.995-9.6034-8.6299-12.078-10.3-5.8436-3.9424-5.7226-6.5759 0.30226-6.5759 4.4856 0 23.198 16.303 23.198 20.211 0 4.491-4.6823 3.1234-11.422-3.336zm-340.55-45.84c-2.9688-3.5772 6.4813-17.037 11.962-17.037 10.185 0 7.6523 10.978-3.9127 16.959-4.9164 2.5423-5.9953 2.5529-8.0489 0.0784zm-8.0309 188.46c0-0.825-3.6-1.5-8-1.5s-8 0.675-8 1.5 3.6 1.5 8 1.5 8-0.675 8-1.5zm368.74 0.74844c3.0355-1.1928 2.2366-1.9214-4.232-3.8594-12.669-3.7958-16.643-3.1866-10.51 1.611 5.286 4.1348 8.6399 4.6463 14.742 2.2484zm-390.47-7.0989c5.6278-2.3838 6.1377-3.081 3.1147-4.2581-1.9882-0.77416-3.1415-2.6414-2.5628-4.1495 1.5471-4.0318-0.85114-3.4248-13.467 3.4083-15.193 8.2288-4.4901 12.372 12.915 4.9993zm366.52-6.0096c0.6709-2.6731 2.3783-6.0481 3.7942-7.5 4.1646-4.2705 11.886-23.978 10.079-25.725-6.2972-6.0861-16.232-4.2702-18.616 3.403-2.3866 7.6786-6.0221 16.553-11.261 27.489-1.53 3.194-2.7819 6.119-2.7819 6.5 0 3.9557 17.735 0.0214 18.786-4.1674zm28.006-2.3203c1.8664-4.8639-0.36826-6.8195-7.7925-6.8195-7.2378 0-10.038 2.4111-8.24 7.0958 1.5661 4.0812 14.446 3.8593 16.033-0.27626zm-46.951-12.27c2.2076-4.8451 1.9966-5.8443-1.9005-9-5.8876-4.7675-7.6848-4.4832-9.9902 1.5804-2.8098 7.3903-2.4806 8.7856 2.5495 10.807 6.5163 2.6192 6.6216 2.581 9.3412-3.3879zm-203.16-51.53c5.6693-1.6415 17.14-3.2999 25.49-3.6855 23.255-1.0737 28.716-8.0003 22.554-28.605-2.2781-7.6174-3.5467-18.765-3.6212-31.823l-0.1148-20.098-7.5-8.762c-10.518-12.288-10.326-28.883 0.47008-40.471 11.657-12.512-3.064-14.177-30.329-3.4297-14.167 5.5839-17.659 12.719-6.9716 14.241 2.382 0.33932 4.3309 1.9669 4.3309 3.6169 0 1.9632-1.5552 2.7837-4.5 2.3743-5.0327-0.69978-6.1576 2.5617-1.5 4.349 6.2744 2.4077 3.3939 7.2548-3.5 5.8894-5.9317-1.1748-6.2565-0.9913-3.715 2.0983 3.4167 4.1535 1.5618 6.289-5.4627 6.289-4.7754 0-5.2701 0.66788-4.8147 6.5 0.55554 7.1138-0.68052 7.7024-8.599 4.0945-17.028-7.7585-20.954 51.381-4.1038 61.814 11.037 6.8335 16.857 13.755 18.376 21.854 0.69512 3.7053 1.7002 6.737 2.2335 6.737 0.53328 0 5.6081-1.343 11.277-2.9845zm85.817-24.516c-0.51548-1.375-1.7409-2.5-2.7232-2.5-2.1267 0-2.4086 8.7107-0.34868 10.771 1.8192 1.8192 4.3251-4.9277 3.0719-8.2707zm-457.51 0.36224c9.9-1.7187 20.613-4.4159 23.807-5.9936 3.194-1.5778 7.3748-2.8686 9.2906-2.8686 7.6688 0 63.015-25.636 79.949-37.032 18.134-12.203 35.668-26.666 39.357-32.463 1.9268-3.0278 4.0549-5.9551 4.7292-6.5051 4.3162-3.5207 13.866-19.339 13.866-22.967 0-8.4369-2.728-6.9038-10.344 5.8133-8.0344 13.415-35.086 40.338-46.334 46.113-3.4769 1.785-11.272 6.3458-17.322 10.135s-12.522 6.8932-14.382 6.8977c-1.8601 0.004-3.8976 0.84262-4.5279 1.8624-0.63024 1.0198-4.5084 2.9434-8.618 4.2748-4.1097 1.3314-11.072 3.9643-15.472 5.8509-25.736 11.035-63.554 19.577-94.496 21.345-21.947 1.2535-28.115 3.362-17.004 5.8125 3.025 0.66718 6.4 1.5133 7.5 1.8802 5.5172 1.8404 34.077 0.60964 50-2.1548zm800-13.8c5.4916-4.5014 5.6382-4.9242 1.73-4.9901-2.4032-0.0404-5.7023 2.114-7.5461 4.9281-4.1566 6.3438-1.8772 6.3681 5.8161 0.062zm-804-3.9077c19.585-3.3794 32.917-6.9081 35.9-9.5021 1.045-0.90874 3.5298-1.6522 5.5218-1.6522s7.437-1.7374 12.1-3.8609 15.098-6.6237 23.189-10.001c8.091-3.3769 18.711-8.8395 23.6-12.139 4.8892-3.2997 9.3894-5.9994 10-5.9994 0.61106 0 3.5555-2.025 6.5432-4.5s8.4721-6.75 12.188-9.5c6.6929-4.9538 8.4903-6.6632 17.722-16.854 35.404-39.082 21.847-65.578-33.764-65.991-21.903-0.1624-48.294 4.1463-63 10.285-30.131 12.578-54.751 25.455-65.067 34.031-1.6129 1.3409-8.9952 6.9127-16.405 12.382-42.328 31.242-57.259 73.051-30.528 85.483 7.3288 3.4084 35.305 2.4236 62-2.1827zm-53.761-3.2231c-27.137-8.1251-10.921-45.87 31.888-74.224 5.5696-3.689 17.72-11.719 27-17.844 40.773-26.911 72.257-37.498 112.24-37.744 21.019-0.1294 29.63 1.9285 29.63 7.0813 0 2.622-1.2711 3.0453-6.1904 2.0614-5.0724-1.0145-6.3776-0.5222-7.2269 2.7258-1.9835 7.5848-40.583 23.766-40.583 17.012 0-4.4891-1.8496-3.753-11.933 4.7495-9.6597 8.1452-19.455 9.0455-31.067 2.8555-2.4269-1.2937-5.7698-1.464-8.5-0.43304-6.6275 2.5026-5.4721 5.462 2 5.123 10.329-0.46864 8.5721 5.4285-2.0397 6.8448-8.8444 1.1804-16.614 5.8603-9.7288 5.8603 1.9423 0 5.0958-0.8372 7.0078-1.8604 8.9894-4.811 8.0646 1.6281-0.95815 6.671l-9.5774 5.3529-5.5209-4.0817c-3.0365-2.245-6.3822-4.0817-7.435-4.0817s-3.7159-2.4734-5.918-5.4963c-2.2021-3.023-4.7522-4.7455-5.6668-3.8278-0.91466 0.91768 0.18076 3.166 2.4342 4.9963 2.2535 1.8303 4.7002 4.9028 5.4372 6.8278 1.8802 4.911-4.5713 4.6199-11.08-0.5-8.2289-6.4728-14.394-3.4981-35.996 17.368-11.384 10.996-11.008 13.192 0.9008 5.2701 10.177-6.7704 22.577-12.638 26.708-12.638 4.1282 0 3.6638 5.8986-0.56785 7.2113-9.8783 3.0644-15.602 6.53-11 6.6608 2.475 0.0703 4.5-0.7721 4.5-1.8721 0-2.6062 9.3912-2.603 11.002 0.004 0.68112 1.1021-1.2274 2.9412-4.2412 4.0871-3.0138 1.1458-12.541 5.6441-21.172 9.9963-16.875 8.5086-21.689 9.8533-17.589 4.9127 2.1045-2.5358 1.6854-3-2.709-3-11.706 0-15.507 20.484-4.753 25.613 8.5654 4.0851 53.838-1.0998 69.462-7.9552 29.103-12.769 27.936-12.04 25.759-16.108-1.7431-3.257-3.3479-3.6303-10.41-2.4214-4.592 0.78608-9.8972 1.5287-11.789 1.6503-1.892 0.1216-6.0792 3.3711-9.3049 7.2211s-6.5677 6.31-7.4266 5.4667c-0.85897-0.84332-0.49676-2.5983 0.8049-3.9 3.2219-3.2219 2.9745-5.5667-0.58722-5.5667-1.6246 0-4.4282 2.25-6.23 5-1.8019 2.75-4.691 5-6.4203 5-2.3963 0-1.9424-1.3083 1.9082-5.5 9.3657-10.195 13.537-17.675 12.362-22.168-0.91632-3.504-0.26437-4.3322 3.4103-4.3322 4.4212 0 4.4457-0.1078 0.91219-4.0123-4.8513-5.3606-3.198-6.4696 10.461-7.0166 11.762-0.47102 26.308-6.7107 35.839-15.374 6.2249-5.6578 8.3624-0.61326 2.4205 5.7123-6.2156 6.6171-30.848 18.648-38.59 18.848-3.366 0.0868-4.995 0.61184-3.62 1.1667 1.375 0.55482 2.5 2.5962 2.5 4.5365 0 5.0008 7.7141 8.0097 14.5 5.6556 3.9441-1.3682 5.5-3.2671 5.5-6.7123 0-2.9372 1.1659-4.8043 3-4.8043 1.65 0 3-0.9 3-2 0-4.1207 6.1728-1.8059 8 3 3.1317 8.2369 14 2.2852 14-7.6667 0-6.9768 1.5127-7.4001 11.36-3.179 11.41 4.8907 23.734 6.9296 25.418 4.2051 1.392-2.2524-0.67386-3.0932-15.696-6.3883-5.455-1.1966-11.07-3.1315-12.478-4.3-4.0339-3.3478-0.79574-6.0312 5.5866-4.6294 6.4563 1.418 6.934 0.7044 3.3597-5.019-1.5803-2.5305-1.7578-4.5589-0.5-5.7146 3.1774-2.9196 12.605-4.4849 13.945-2.3155 0.68234 1.104 2.1977 2.0073 3.3675 2.0073 1.4069 0 1.3389-0.94942-0.20096-2.8049-2.4548-2.9578 0.67716-5.0467 31.311-20.883 12.685-6.5575 18.836 5.0988 6.5271 12.37-3.3 1.9494-6 4.3403-6 5.3132 0 3.2384 4.1365 4.3814 7.0639 1.9519 2.3121-1.9189 3.1602-1.69 4.2488 1.1469 1.3592 3.542-12.259 18.068-26.163 27.906-3.1091 2.2-8.0147 5.8909-10.901 8.202-11.146 8.9238-44.772 25.415-84.249 41.319-2.75 1.1079-6.8 2.7421-9 3.6315-4.8008 1.9409-51.325 9.92-56.417 9.6757-1.9709-0.0946-6.1761-0.94818-9.3449-1.8969zm104.76-35.549c0-0.88976-1.3214-3.3648-2.9364-5.5-2.9978-3.9634-4.0361-1.7436-1.8496 3.9542 1.254 3.2678 4.786 4.4086 4.786 1.5458zm66-34.382c4.903-4.2524 2.3623-5.405-4.1875-1.8997-2.1585 1.1552-3.3962 2.9552-2.7505 4 1.562 2.5274 1.6237 2.5087 6.938-2.1003zm-85.192-20.542c1.8737-9.3683-1.2185-10.559-11.609-4.4693-10.751 6.3007-10.395 5.2428-4.699 13.933l4.5 6.8663 5.2833-5.0609c2.9058-2.7835 5.8421-7.8547 6.525-11.269zm48.828-22.458c2.175-4.7735 1.9857-4.9986-4.179-4.9694-9.7998 0.0464-13.482 3.0223-8.4474 6.8268 5.8467 4.4183 10.049 3.8001 12.626-1.8574zm660.36 85.818c0-1.5715-1.2489-2.2131-3-1.5411-1.65 0.63318-3 2.9651-3 5.1821 0 3.3563 0.5021 3.6142 3 1.5411 1.65-1.3694 3-3.7013 3-5.1821zm120.7-23.764c1.3342-3.4768-7.8022-15.054-11.88-15.054-3.2516 0-3.7738 3.1758-0.8222 5 1.1 0.67984 2 2.983 2 5.118 0 2.1351-0.9 3.882-2 3.882s-2 0.9-2 2c0 3.2404 13.428 2.3766 14.702-0.94584zm-657.7-4.8809c24.362-3.8502 34.765-8.3703 37.224-16.173 5.019-15.928 23.575-31.925 37.15-32.027 8.982-0.0676 12.709-2.3845 12.164-7.5613-0.5773-5.4793-3.2259-4.4965 44.462-16.498 5.1872-1.3054 3.1155-1.519-8-0.82462-21.236 1.3265-10.818-3.0694 19-8.0168 12.1-2.0076 22.762-4.0773 23.694-4.5992 0.93174-0.52192 8.5817-1.3104 17-1.7521 8.4183-0.44174 17.276-1.238 19.683-1.7694 5.5888-1.2336 8.264 2.9019 3.9281 6.0724-1.8181 1.3294-3.3056 3.7847-3.3056 5.4562 0 2.243-3.0126 3.3181-11.5 4.1042-6.325 0.5858-17.021 1.5768-23.77 2.2023-6.7483 0.62546-14.682 2.0544-17.63 3.1753-2.9484 1.121-8.0614 2.0381-11.362 2.0381-9.0932 0-41.738 8.2132-41.738 10.501 0 2.4405 13.879 0.98798 32-3.3489 7.15-1.7112 17.95-4.0163 24-5.1224s13.25-2.5148 16-3.1304c13.583-3.0408 28.529-3.4867 27.642-0.82482-0.58422 1.7527-9.1449 3.8947-24.767 6.1972-13.131 1.9353-27.924 4.8768-32.874 6.5366l-9 3.0179 11-0.68964c6.05-0.3793 16.85-2.1086 24-3.8428 14.571-3.5342 31.169-4.2563 32.915-1.4319 1.5791 2.555-2.6816 4.8831-9.8967 5.4078-29.756 2.1639-33.899 3.5635-28.004 9.459 3.6721 3.6721 9.3226 4.2082 14.513 1.3771 6.4883-3.5392 26.604-10.106 31.048-10.135 8.1042-0.054 14.189-4.6576 15.849-11.991 4.5333-20.025 5.0271-24.798 3.2362-31.284-3.1608-11.448-7.5405-12.02-49.661-6.4942-23.599 3.0962-27.812 3.7042-47.842 6.9049-12.516 2.0001-19.511 2.3418-20.834 1.018-3.0155-3.0155 10.033-6.0733 42.676-10.001 51.732-6.2241 69.823-9.0633 67.179-10.543-3.097-1.7332-51.883 3.2198-62.179 6.3127-3.3 0.99132-13.2 2.4168-22 3.1677-8.8 0.75086-18.43 2.6194-21.401 4.1523-6.1014 3.1487-19.599 3.772-19.599 0.9051 0-2.9485 2.62-3.925 16.269-6.0637 7.0019-1.0971 17.231-2.9426 22.731-4.101 5.5-1.1585 19-3.4959 30-5.1943 21.624-3.3387 37.654-6.0847 44-7.5374 2.2-0.5036 5.125-0.9845 6.5-1.0687s2.5-1.503 2.5-3.153c0-4.226-7.819-3.8013-20.254 1.1001-5.7212 2.2551-12.28 3.9213-14.574 3.7026-2.2945-0.21862-5.7857 0.2975-7.7582 1.1469-1.9724 0.84946-4.0418 1.0889-4.5986 0.53212-0.55678-0.55678-4.793-0.1356-9.4137 0.9361-7.3384 1.7019-36.93 5.3993-71.105 8.8843-6.2763 0.64006-11.566 0.22866-12.789-0.99468-2.68-2.68 1.2413-3.4932 30.436-6.312 12.619-1.2184 23.262-2.5336 23.651-2.9228 1.488-1.488-7.7687-3.2869-11.242-2.1846-2.0063 0.63678-16.36 1.2944-31.897 1.4614l-28.249 0.3036-1.4074 11.173c-0.79602 6.3196-0.31268 20.171 1.1127 31.886 2.2335 18.357 2.1627 21.07-0.6222 23.855-3.8669 3.8669-4.5898 2.2732-6.1549-13.568-0.59774-6.05-1.6523-16.625-2.3436-23.5-1.4856-14.776-0.77408-14.531-13.606-4.6853-19.816 15.205-51.123 29.139-54.218 24.132-0.69786-1.1292-2.326-1.9225-3.618-1.763-5.8754 0.72532-7.7959-0.73724-11.403-8.6839-6.9488-15.309-3.7247-23.304 4.99-12.375 2.7975 3.5084 5.1868 4.7025 7.5751 3.786 6.4453-2.4733 3.58-6.1861-13.011-16.86-9.075-5.8384-18.975-12.907-22-15.707-8.003-7.4092-7.0203-1.3049 1.5194 9.4379 16.29 20.492 5.3064 24.308-15.019 5.2185-12.53-11.768-16-14.43-16-12.275 0 0.39874 2.475 3.955 5.5 7.9028s8.2 10.908 11.5 15.466c4.2417 5.8593 9.6181 9.9333 18.346 13.902 13.052 5.9348 24.611 18.479 24.698 26.804 0.0242 2.31 1.8242 8.1232 4 12.918 6.0662 13.369 3.9561 23.411-7.8338 37.282-10.395 12.23-10.684 11.714 5.8007 10.329 8.2441-0.69272 20.389-2.1129 26.989-3.156zm99-79.973c0-0.98958 6.975-3.2399 15.5-5.0006 46.298-9.5625 48.066-9.8691 70.5-12.228 6.05-0.63612 13.025-1.5822 15.5-2.1025 6.1836-1.2998 14.847 1.1141 13.885 3.869-0.43422 1.2437-2.9108 2.1697-5.5035 2.0578-11.574-0.49972-84.435 10.289-90.152 13.349-4.4447 2.3787-19.729 2.4218-19.729 0.0556zm537.95 73.885c3.1945-5.9689 2.5926-7.3375-6.0084-13.663-13.333-9.8049-33.946-43.615-33.946-55.679 0-1.4115-2.25-5.8819-5-9.9343-5.1102-7.5303-6.5848-14.81-3-14.81 1.1 0 2-2.07 2-4.6s1.08-5.68 2.4-7 1.5336-2.4 0.4747-2.4-3.615 2.25-5.6801 5c-2.0652 2.75-4.5288 5-5.4747 5-3.3138 0-1.6777-6.7871 2.7801-11.533 8.7952-9.3638 1.3952-34.242-11.677-39.258-3.7248-1.4293-8.8225 4.1171-8.8225 9.5991 0 3.0254-2.4822 6.1356-7.5 9.3975-5.2169 3.3913-7.5418 6.3852-7.6372 9.8351-0.0754 2.7278-0.8781 6.6165-1.7837 8.6414-2.3354 5.2221 3.6837 16.026 22.461 40.318 4.2515 5.5 8.9814 14.05 10.511 19 3.2483 10.513 5.8169 12.945 9.0302 8.5504 1.2948-1.7707 3.3677-2.5088 4.7122-1.6779 1.5262 0.94326 1.7259 2.3293 0.5482 3.8056-4.6138 5.7835-4.9251 11.777-0.53934 10.385 3.1299-0.99338 4.1974-0.47492 4.1974 2.0385 0 1.8539 2.7 6.4459 6 10.204 3.3 3.7585 6.007 7.9273 6.0156 9.264 0.016 2.5267 8.8483 7.4304 13.383 7.4304 1.451 0 2.6013 2.2421 2.6013 5.0704 0 5.8961 6.1955 4.0383 9.9542-2.9847zm-67.27-99.22c-1.5645-4.0771 3.8164-13.621 8.1878-14.522 3.9918-0.8229 4.0847 4.3702 0.1368 7.6466-1.65 1.3694-3 3.6765-3 5.1269 0 4.1876-3.8976 5.4673-5.3247 1.7483zm-453.03 87.791c-0.9731-5.0175-5.6466-5.7065-5.6466-0.8324 0 2.4567 1.2914 4.1667 3.1466 4.1667 1.8625 0 2.8828-1.3607 2.5-3.3343zm457.83-30.166c-3.2302-9.625-8.4831-20.822-11.673-24.883-3.1899-4.0605-5.7999-8.2253-5.7999-9.2551s-1.35-2.9928-3-4.3622c-2.4876-2.0646-3-1.8408-3 1.3101 0 5.0427 5.4919 12.69 9.1134 12.69 3.4483 0 3.6954 2.7591 0.67966 7.5882-1.7626 2.8224-1.0038 5.5744 3.7686 13.668 3.2865 5.574 6.572 12.014 7.3009 14.31 0.72894 2.2967 2.8581 4.5793 4.7314 5.0724s3.4839 1.001 3.579 1.1286c0.0952 0.1276-2.4699-7.643-5.7001-17.268zm-304.97-4.1484c2.4663-2.0939 3.5-5.9108 3.5-12.923v-9.9517l-7.1785 1.1649c-9.9964 1.6222-12.445 4.2827-13.826 15.022-0.66028 5.1351-2.0544 10.899-3.098 12.809-3.8007 6.9561-1.7013 7.5837 7.6025 2.2731 5.225-2.9825 11.075-6.7599 13-8.3943zm-33.129-0.70024c4.2217-3.966 6.2752-9.6514 3.486-9.6514-1.7947 0-5.9972 4.6562-8.6116 9.5413-3.0293 5.6603-0.83256 5.7075 5.1256 0.11zm16.138-44.809c-0.714-0.714-3.7991 0.669-6.8557 3.0733-3.6306 2.8559-5.8278 3.5605-6.3373 2.0322-1.1925-3.5774 17.89-21.948 22.799-21.948 6.864 0 16.01-13.833 11.137-16.845-2.0763-1.2832-19.027 10.915-24.551 17.669-5.661 6.9199-9.4914 1.0841-3.9295-5.9867 5.5935-7.111 4.0086-8.3766-3.6555-2.9193-3.3633 2.3949-6.1152 3.4073-6.1152 2.2497 0-2.835 9.5223-13.047 17.375-18.633 3.5062-2.4942 11.831-8.3935 18.5-13.11 9.847-6.9636 16.847-14.917 10.625-12.073-5.1766 2.3665-22.253 13.662-28.947 19.148-4.3625 3.575-8.6242 6.5-9.4705 6.5-0.84632 0-3.9975 3.5479-7.0026 7.8843-5.8724 8.4739-5.7607 5.9431-1.8503 41.888l1.1719 10.773 9.2026-9.2026c5.0614-5.0614 8.6184-9.7868 7.9044-10.501zm22.391-7.9625c-3.3989-4.0954-9.2716-0.2556-12.903 8.4367-4.5788 10.959-3.9792 12.383 5.5033 13.069l8.5 0.615 0.61014-9.6624c0.33576-5.3169-0.4333-10.92-1.71-12.458zm-382.15 17.142c8.7856-0.0286 7.8974-6.0905-3.6862-25.158-4.4351-7.3003-8.0838-13.856-8.1082-14.569-0.0245-0.71258-1.8044-3.5456-3.9555-6.2956-4.1758-5.3385-5.293-12-2.0125-12 2.293 0 11.202 11.881 16.967 22.628 2.1752 4.0545 4.6502 7.3718 5.5 7.3718 3.2528 0 1.3635-11.544-2.4548-15-4.2949-3.8868-5.4382-11-1.768-11 2.5707 0 19.965 12.345 28.696 20.366 12.973 11.918 7.2543 1.7118-13.207-23.572-11.253-13.905-17.782-27.422-11.375-23.551 4.1197 2.4892 24.82 25.46 27.565 30.588 1.26 2.3544 3.1947 3.7222 4.2993 3.0396 1.2684-0.78394 0.92032-2.9017-0.94492-5.7484-2.6774-4.0863-13.283-23.618-27.216-50.122-6.6246-12.602-9.4987-12.56-15.915 0.23184-2.8229 5.6275-7.8325 13.428-11.133 17.335-10.001 11.84-19 24.689-19 27.129 0 1.2674-0.9 2.3043-2 2.3043-3.6382 0-2.078 8.0974 3 15.57 4.9845 7.3353 5 7.3412 5 1.8939 0-8.7704 3.8324-6.3409 9.2222 5.8462 9.5671 21.633 8.0726 32.359-1.7447 12.521-2.7677-5.5924-5.4113-9.0305-5.8747-7.6402-1.2636 3.7908-7.3846 0.64238-9.4834-4.8779-1.0013-2.6337-4.2133-6.6707-7.1376-8.971s-4.8023-5.0151-4.1733-6.0329c7.0878-11.468-5.6315-15.656-16.126-5.31-5.021 4.95-9.7035 9.0039-10.406 9.0086-0.70202 0.004-5.3264 2.742-10.276 6.0829-11.762 7.9384-38.937 20.779-57 26.934-18.33 6.2455-21 7.4464-21 9.4443 0 2.427 5.2597 1.5461 31-5.1913 41.297-10.81 48.105-11.478 62.168-6.1077 7.8596 3.0016 8.79 2.9483 17.457-1 12.424-5.6597 16.116-5.2746 22.335 2.3294 2.9241 3.575 6.6849 8.1796 8.3573 10.233 2.3697 2.9088 4.6564 3.4654 10.361 2.522 4.0263-0.6658 10.358-1.2204 14.07-1.2325zm-33.75-55.361c0-3.2001 11.794-20.661 13.956-20.661 3.3314 0 2.3288 5.5639-1.5112 8.3866-1.9554 1.4374-5.5554 5.2098-8 8.3831s-4.4447 4.9245-4.4447 3.8916zm139.1 43.469c4.5576-4.486 38.778-20.051 41.655-18.947 2.1132 0.81092 3.9089-0.45206 5.4492-3.8328 2.4625-5.4046 9.7365-8.2731 15.966-6.296 5.4624 1.7337 4.9392-3.3763-1.3689-13.369-8.7709-13.894-46.214-94.542-52.318-112.68-6.4455-19.16-10.483-34.019-10.483-38.578 0-2.3247-1.4426-9.4456-3.2059-15.824-1.7632-6.3787-3.7882-17.448-4.5-24.598-1.1502-11.554-1.7391-12.926-5.2941-12.332-5.5242 0.92208-31.391 4.0574-34.723 4.2087-3.3755 0.1534-2.7018 4.1944 7.8567 47.124 12.361 50.257 31.223 115.66 37.89 131.37 4.5401 10.701 5.0981 16.337 1.4988 15.137-2.4075-0.8025-15.89-36.41-19.881-52.508-1.091-4.4-2.7457-9.8-3.6772-12-1.591-3.7577-4.1555-12.702-14.049-49-12.009-44.056-15.384-59.166-16.529-74-0.35838-4.6397-11.33-6.6214-15.275-2.759-1.8765 1.837 6.2055 44.641 11.85 62.759 3.2555 10.45 8.634 28 11.952 39 3.3183 11 9.6383 30.35 14.044 43 4.4062 12.65 8.0183 24.125 8.0268 25.5 0.034 5.4438-3.6738 2.0408-6.5372-6-16.674-46.823-33.571-98.546-38.385-117.5-1.816-7.15-4.1478-16.254-5.1818-20.232-1.034-3.9776-1.88-11.371-1.88-16.43 0-10.207-3.1659-13.338-13.486-13.338-10.816 0-12.699 3.3222-9.6332 17 1.4792 6.6 4.1693 18.75 5.978 27 2.7652 12.613 15.535 53.043 21.162 67 3.8788 9.6205 7.3012 23 5.8834 23-6.106 0-39.795-103.28-39.881-122.26-0.0472-10.479-20.216-14.431-21.663-4.2449-0.3515 2.475 0.1378 4.5 1.0874 4.5 1.9855 0 7.6229 23.595 6.0203 25.198-1.2593 1.2593-6.7209-15.064-8.5867-25.664-1.1354-6.45-2.2898-7.735-8.4856-9.4458-9.6516-2.6649-9.7649-2.2976-4.7622 15.442 2.3993 8.5081 4.9391 19.362 5.644 24.121 1.0581 7.1427 2.56 9.4586 8.6115 13.279 7.154 4.5161 12.318 10.02 24.249 25.845 6.3327 8.3997 7.2326 15.208 3.6944 27.95-2.3178 8.3474 7.3497 41.49 14.274 48.933 1.7094 1.8377 8.3839 12.791 14.832 24.341 14.116 25.285 19.143 30.908 40.088 44.845 8.8762 5.9064 17.337 12.182 18.801 13.947 2.9293 3.5295 10.292 4.2716 13.273 1.3377zm23.394-30.535c-1.1842-1.4271-6.1695-12.945-11.079-25.595-9.0988-23.446-10.729-28.202-16.653-48.592-4.941-14.099-8.9428-28.814-12.668-41.408-11.882-37.419-21.749-88.728-17.864-92.9 3.3004-3.5446 5.7397 1.8943 7.667 17.095 1.0459 8.2491 2.8311 19.005 3.9672 23.902s4.0273 17.454 6.4251 27.904c2.3977 10.45 5.0236 20.35 5.8354 22 0.81172 1.65 3.0379 8.4 4.947 15 8.088 27.961 20.05 63.435 30.445 90.287 3.9814 10.285 3.3727 17.605-1.0233 12.308zm-248.85 15.15c12.847-7.2905 26.298-14.919 29.891-16.952 41.013-23.207 111.2-121.79 86.704-121.79-0.9694 0-2.8082 4.1524-4.0861 9.2276-9.7531 38.733-69.604 104.28-113.25 124.03-4.3444 1.9658-9.6989 5.0293-11.899 6.8077-2.2 1.7784-7.9901 4.4896-12.867 6.0249-8.0642 2.5387-8.4264 2.9145-4 4.1508 2.6768 0.74766 5.156 1.4491 5.5093 1.5588 0.35325 0.1096 11.153-5.7656 24-13.056zm765.3-14.245c8.5077-9.075 14.514-16.5 13.348-16.5-3.0097 0-36.476 33.152-34.978 34.65 2.0153 2.0153 5.3423-0.77638 21.63-18.15zm-4.7381-6.9244c7.0351-7.9334 17.133-18.733 22.44-24 5.3067-5.2666 8.7642-9.5756 7.6833-9.5756-4.5416 0-32.332 25.462-32.332 29.623 0 0.87584-3.15 4.6456-7 8.3771-3.85 3.7316-7 7.5081-7 8.3923 0 3.9998 4.3384 0.56932 16.209-12.817zm-172.51 9.7881c1.6033-1.9319 1.4685-3.6687-0.50442-6.5-1.4808-2.125-3.363-7.9137-4.1826-12.864-2.17-13.105-6.648-23.323-16.653-38-17.371-25.482-19.859-26.77-24.423-12.64-1.3572 4.202-5.0886 11.571-8.292 16.375-12.439 18.655-12.66 28.265-0.64844 28.265 6.4327 0 28.396 12.207 36.03 20.025 7.9612 8.1531 14.732 10.089 18.674 5.3387zm159.24-24.364c6.9043-7.7 15.144-17.121 18.309-20.936 3.1658-3.8146 8.456-9.4132 11.756-12.441 3.3-3.0281 4.9422-5.5321 3.6494-5.5644-2.9124-0.0726-38.649 35.902-38.649 38.907 0 1.1988-3.5745 6.197-7.9432 11.107-4.3688 4.9101-7.9388 9.8275-7.9335 10.928 0.006 1.1 1.8656-0.25 4.1339-3s9.7731-11.3 16.677-19zm10.995 3.5c9.2301-10.725 19.322-21.59 22.426-24.145 3.1044-2.5547 5.6443-5.4797 5.6443-6.5 0-3.9018-4.7294-1.5656-11.428 5.645-11.477 12.355-36.572 42.094-36.572 43.34 0 3.6319 4.9029-0.88004 19.929-18.34zm-768.66 7.4586c26.316-13.013 26.647-13.448 18.865-24.759-9.6193-13.981-14.582-14.586-6.1451-0.74842 4.7521 7.7941 5.0906 11.548 1.0412 11.548-1.6315 0-5.2466-4.5-8.0337-10-5.645-11.14-8.9761-12.797-9.047-4.5-0.0276 3.2257-4.1626 11.609-10 20.273-14.805 21.975-14.698 22.04 13.32 8.1857zm364.68 8.1161c2.5053-1.5843 2.2998-2.5551-1.3692-6.4694-7.2944-7.7821-25.745-46.189-32.155-66.935-7.5064-24.293-20.423-77.074-20.423-83.454 0-2.5921-1.4083-8.6511-3.1294-13.464-1.7212-4.8133-4.7862-16.401-6.8111-25.751-12.187-56.273-14.04-65.407-14.049-69.255-0.0258-10.711-4.9749-8.9665-19.145 6.7478-7.6259 8.4569-18.265 19.689-23.642 24.96l-9.7764 9.5842 1.071 17.481c1.1196 18.274 1.6661 21.001 12.811 63.927 5.2794 20.334 9.9732 32.583 20.309 53 7.3934 14.605 16.424 33.999 20.069 43.099 3.6443 9.0995 8.6707 19 11.17 22 2.499 3.0005 5.6733 9.0554 7.054 13.455 1.3807 4.4 3.9331 9.125 5.672 10.5 3.7731 2.9835 47.772 3.4666 52.345 0.57472zm16.757-2.5747c-0.84246-1.375-3.6869-5.65-6.321-9.5s-6.8256-11.5-9.3146-17c-15.829-34.98-13.978-30.46-27.876-68.042-2.8561-7.7233-5.1929-15.177-5.1929-16.563 0-1.3864-1.743-7.6945-3.8732-14.018-2.1303-6.3236-4.4086-15.52-5.063-20.437-2.287-17.183-32.462-136.93-34.255-135.94-0.99502 0.55-1.6865 1.45-1.5366 2 0.1498 0.55 7.2284 30.25 15.73 66 8.5017 35.75 16.254 66.563 17.227 68.473 0.97344 1.9101 1.7699 5.4057 1.7699 7.768s0.846 7.5495 1.88 11.527c1.034 3.9776 3.3852 13.082 5.225 20.232 4.3083 16.744 14.08 45.99 19.307 57.783 16.126 36.386 24.381 50.217 29.972 50.217 2.5654 0 3.3406-0.83514 2.3205-2.5zm124.01-2.8031c3.4588-2.9167 9.2137-6.5288 12.789-8.0268 6.3906-2.6779 8.1483-5.4153 4.8041-7.4821-1.3995-0.86494-22.397 12.849-29.204 19.075-4.916 4.4956 6.0424 1.1305 11.611-3.5656zm346.33-5.4059c1.6295 0.62532 2.9628 2.3906 2.9628 3.923 0 4.4923 3.167 3.2051 5.679-2.3081 6.0036-13.176 0.97786-37.762-9.0642-44.342-2.633-1.7252-6.0211-5.4828-7.529-8.3502l-2.7417-5.2135-1.3953 5.5255c-0.7674 3.0391-2.4441 6.1891-3.7259 7-1.2819 0.81096-5.4435 5.5245-9.248 10.474-3.8045 4.95-8.1728 10.307-9.7074 11.904-2.3995 2.4976-2.1919 3.1711 1.4832 4.8109 2.3503 1.0487 7.4413 6.6796 11.313 12.513 4.3248 6.5156 8.0775 10.208 9.73 9.5741 1.4794-0.56772 3.371 0.5945 4.2034 2.5827 1.2559 2.9998 1.8167 2.5219 3.2953-2.808 1.244-4.4842 2.6762-6.0798 4.7446-5.286zm-453.57 0.84606c5.2432-9.1829 11.259-26.073 9.8048-27.527-2.729-2.729-10.263 8.9336-12.171 18.84-0.4504 2.3388-2.2366 6.4161-3.9694 9.0606-2.8221 4.3071-2.5229 7.516 0.69692 7.4735 0.64166-0.008 3.179-3.5399 5.6386-7.8475zm342.33-4.8127c2.2692-3.6716 10.443-12.29 18.163-19.151 7.7206-6.8616 14.037-13.308 14.037-14.324 0-4.0538-4.4207-1.341-14.913 9.1513-6.05 6.05-12.68 11-14.734 11-4.6124 0-9.4146 5.3041-11.048 12.203-2.3256 9.8199 2.7078 10.484 8.4945 1.1213zm-245.8-5.1287c0-0.99234 6.8098-6.6173 15.133-12.5 26.339-18.616 29.485-21.696 22.165-21.696-5.8806 0-44.072 31.129-42.102 34.317 1.3851 2.2412 4.8041 2.155 4.8041-0.1212zm3.0257-17.696c4.6602-4.125 12.186-10.476 16.724-14.113 8.3614-6.7018 10.37-10.387 5.6606-10.387-2.942 0-33.41 27.598-33.41 30.262 0 3.12 2.4195 1.8554 11.026-5.7624zm-125.54-12.426c2.1247-3.4022 1.9888-3.7613-1.0189-2.6916-5.7187 2.0339-6.5913 2.8045-5.3853 4.7558 1.7702 2.8643 3.7185 2.2364 6.4042-2.0642zm2.3442-22.713c13.076-29.36 15.552-51.801 7.6673-69.501-6.3902-14.345-19.501-27.698-19.501-19.86 0 1.1-1.35 2-3 2-4.7427 0-3.4448 2.5972 3.9979 8 17.854 12.961 17.213 46.529-1.4139 74-4.521 6.6676-4.6152 7.4621-1.9837 16.731l2.7626 9.7308 3.8735-6.3695c2.1304-3.5032 5.5493-10.132 7.5974-14.731zm-387.97 4.7387c0.10882-5.3414-0.398-6.3614-2.2437-4.5157-2.5917 2.5917-4.0039 14.17-2.1034 17.245 1.6801 2.7185 4.1817-4.6064 4.3472-12.729zm10.371 5.4c0.43429-16.028-2.2904-23.875-6.1321-17.659-1.0977 1.7761-0.7184 3.8245 1.0324 5.5753 1.9496 1.9497 2.4068 5.4004 1.5466 11.676-0.82685 6.0326-0.48763 8.908 1.0509 8.908 1.3033 0 2.37-3.6238 2.5022-8.5zm72.5 2.3548c3.7482-2.9483 5.2697-6.0089 5.2697-10.6 0-3.5502 0.85603-7.3109 1.9023-8.3571 13.161-13.161 12.178-35.833-1.0996-25.359-5.3915 4.2531-14.093 10.241-19.336 13.307-10.079 5.8927-16.075 12.552-14.133 15.694 0.67063 1.0851 1.698 1.1307 2.4166 0.1072 3.5032-4.9898 7.2573-1.2722 7.4483 7.3761 0.10908 4.9375 0.33407 9.6523 0.5 10.477 0.62389 3.102 11.965 1.3406 17.032-2.6452zm790.87 0.64516c-6.7133-13.779-6.6379-13.71-11.602-10.497-2.507 1.6227-2.0141 2.7561 3 6.8974 5.8607 4.8406 10.064 6.5994 8.6025 3.5995zm-349.61-5.4921c6.8982-7.3428 3.4959-8.2989-4.3017-1.2089-4.5064 4.0974-5.662 6.1029-3.5396 6.1424 1.7332 0.0322 5.2618-2.1878 7.8412-4.9335zm275.65-2.3657c-0.85888-4.4598-4.4159-4.5559-5.2659-0.1422-0.4216 2.1892 0.55934 3.5 2.6193 3.5 2.0068 0 3.0407-1.3117 2.6466-3.3578zm-420.66-32.531c4.1612-12.198 1.5002-14.034-9.9694-6.8786-9.9203 6.1891-10.322 7.9359-5.0053 21.767l2.3063 6 4.8181-6c2.65-3.3 6.1826-10 7.8503-14.889zm208.59 8.8039c-1.6962-1.6962-9.5817 5.4455-9.5817 8.6779 0 2.5796 1.2155 2.0553 5.2024-2.2444 2.8613-3.0858 4.832-5.9809 4.3793-6.4336zm-56.582-1.915c0-5.1589-3.6757-6.7608-6.1875-2.6966-1.011 1.6359 3.7687 7.6966 6.0698 7.6966 0.0648 0 0.1178-2.25 0.1178-5zm-418.36-22.57c0.5891-19.659-14.854-27.387-40.779-20.406-11.362 3.0594-7.9853 5.8034 4.3763 3.5566 14.064-2.5563 19.754-0.92596 19.754 5.6604 0 4.1881-0.66792 4.8793-3.5 3.6217-12.239-5.4346-38.535 0.4129-38.473 8.5551 0.11302 14.778 3.7979 15.403 21.08 3.5711 12.838-8.7891 18.893-11.033 18.893-7 0 1.1 1.6898 2 3.7551 2 6.2823 0 13.144 15.972 8.1794 19.04-1.064 0.65758-1.9193 2.2675-1.9008 3.5776 0.1254 8.8718 8.3169-12.214 8.6155-22.177zm247.71 3.2261c0.37802-2.5628 3.9071-6.2352 8.6391-8.9899 14.208-8.2711 13.678-7.6443 11.64-13.759-2.7589-8.2768-7.7699-10.818-11.584-5.8745-5.4728 7.0928-14.696 27.564-13.649 30.293 1.5631 4.0734 4.2407 3.1709 4.9548-1.6699zm-5.4875-30.014c3.7829-7.5831 3.7876-7.653 0.5089-7.653-5.8308 0-10.011 5.2237-8.6185 10.771 1.593 6.3469 3.8141 5.493 8.1096-3.1177zm-297.36-14.62c0.27977-0.21668-0.77606-3.0151-2.3463-6.2186-3.9723-8.1043-8.3573-52.43-5.4721-55.315 3.1295-3.1295 3.8327 0.145 5.3669 24.989 1.637 26.509 4.1304 26.096 6.1519-1.019 1.8661-25.03 5.2547-14.434 4.3238 13.52-0.31577 9.4819 0.26591 16 1.4279 16 1.1408 0 1.6913-5.239 1.3164-12.529-0.81035-15.758 1.4293-32.888 4.0851-31.247 1.0925 0.67518 1.5161 3.0255 0.94149 5.223-0.7326 2.8015 0.1118 4.2978 2.8258 5.0075 4.0032 1.0469 4.4455 3.7035 4.0865 24.546-0.13686 7.9472 0.0855 8.4259 1.9011 4.0917 4.5596-10.884 5.1631-21.289 1.9778-34.092-1.2315-4.95-4.2506-22.95-6.7091-40-4.6212-32.049-5.6223-33.96-12.159-23.207-5.6213 9.2469-11.774 15.134-15.858 15.172-1.9973 0.02-5.3191 0.93772-7.3817 2.0416-5.5364 2.963-9.9702-4.5104-10.057-16.952-0.0386-5.5302-1.446-15.905-3.1274-23.055s-3.7482-16.6-4.593-21c-1.5922-8.2933-7.7709-28.895-19.494-65-10.388-31.992-14.895-41.561-25.215-53.539-4.125-4.7874-7.5-9.3371-7.5-10.111 0-0.77342-3.6-3.6311-8-6.3505s-8-5.7818-8-6.8055-0.53675-1.3244-1.1928-0.66842c-0.65603 0.65603 1.4862 5.0866 4.7605 9.8456 3.2743 4.7591 8.6391 13.597 11.922 19.641 3.2827 6.0432 8.0402 14.588 10.572 18.988 15.332 26.641 33.751 81.077 39.927 118 0.91996 5.5 3.1081 18.046 4.8625 27.88 2.1481 12.041 2.53 18.539 1.1693 19.9-5.5785 5.5785 7.4852 71.985 16.235 82.528 1.7968 2.165 10.336 1.9944 13.253-0.2647zm48.491-5.0146c0-2.2019-3.1628-15.879-7.1756-31.029-6.8175-25.739-10.845-47.674-11.061-60.248-0.29651-17.232-1.9708-25.159-5.567-26.355-5.4173-1.8026 5.0598 70.865 14.992 103.98 1.5466 5.1567 2.8121 10.782 2.8121 12.5 0 1.7183 1.35 3.1242 3 3.1242s3-0.88708 3-1.9713zm49.19-58.288c2.0955-2.3427 6.96-6.3088 10.81-8.8137s9.7521-7.1131 13.116-10.241c3.3637-3.1275 8.5374-6.9627 11.497-8.5226 2.9596-1.56 4.9731-3.2443 4.4745-3.743-1.2391-1.2391-17.795 8.6134-25.667 15.274-15.312 12.957-21.634 16.685-26.305 15.513-2.8994-0.7277-5.5915-0.0438-7.1314 1.8117-4.3876 5.2868 14.456 4.0322 19.206-1.2788zm15.197 0.66818c3.5419-4.8672 30.873-26.409 33.507-26.409 7.3382 0-5.6701 13.321-22.704 23.25-7.7266 4.5037 2.3926 6.1561 27.793 4.5383l23.982-1.5275 16.018-17.497c8.81-9.6231 16.918-18.168 18.018-18.989 11.386-8.4969 19.633-18.028 14.661-16.944-2.9366 0.6402-12.174 2.1147-20.528 3.2766-8.3539 1.1619-21.164 3.3628-28.468 4.8908-7.3033 1.528-15.616 2.3435-18.472 1.812-7.5654-1.4076-21.454 7.3293-14.427 9.075 4.2736 1.0616 2.6709 2.8097-15.5 16.907-11.147 8.6478-20.266 16.957-20.266 18.465 0 3.8484 3.2859 3.4114 6.3866-0.84952zm21.613-3.3171c0-0.49962 4.1794-4.0996 9.2876-8 12.914-9.861 18.039-9.1873 7.2898 0.95838-6.9601 6.5696-16.577 10.655-16.577 7.0416zm34.69-8.1779c-0.65138-1.6974-0.84812-3.3088-0.43724-3.5809 0.4109-0.27204 4.1982-3.0371 8.4163-6.1446 10.939-8.0585 14.613-3.9868 5.1706 5.7302-7.423 7.6391-11.299 8.8169-13.15 3.9953zm-108.8-15.92c8.1896-8.2458 13.796-14.992 12.459-14.992-2.4401 0-30.349 26.454-30.349 28.766 0 3.2488 4.1782 0.0318 17.89-13.774zm51.343 4.4883c4.528-3.5643 11.919-8.7306 16.424-11.481 8.9437-5.4596 13.865-12.014 5.7986-7.7227-5.1543 2.7419-22.241 15.285-29.261 21.481-7.5706 6.6815-2.0897 4.9078 7.0388-2.2778zm78.767-32.894c19.25-2.8709 36.8-6.5055 39-8.0769 3.7597-2.6853 3.6395-2.79-2-1.7422-12.726 2.3645-38.767 5.2674-56 6.2426-9.9 0.56022-24.3 1.9721-32 3.1376-7.8124 1.1824-33.668 1.8391-58.501 1.4857-24.476-0.3483-44.501 0.0418-44.5 0.86674 0.00076 0.825 4.2764 1.6103 9.5014 1.7451s18.95 0.82724 30.5 1.5388c36.108 2.2245 76.619 0.37752 114-5.1974zm-51-8.3421c9.9-1.23 20.925-2.729 24.5-3.331l6.5-1.0946v-19.15c0-17.452-0.48774-19.92-5.5-27.836-6.6472-10.498-7.0612-10.589-10.089-2.2153-2.6757 7.3994-9.5967 14.638-22.993 24.049-40.583 28.508-41.13 28.954-38.585 31.501 1.4703 1.4715 27.613 0.38302 46.167-1.9222zm47.85-20.946c-3.3445-39.311-23.917-126.01-30.929-130.35-2.9603-1.8296-2.3898 1.0981 3.9816 20.432 10.112 30.685 17.56 73.5 18.373 105.62 0.43586 17.219 2.4114 22.579 6.9372 18.823 1.9406-1.6105 2.3934-5.6293 1.6366-14.525zm-81.472 1.5051c24.173-17.326 38.011-29.673 34.1-30.426-1.8219-0.35086-11.675 6.0176-21.896 14.152-10.221 8.1345-21.958 16.817-26.083 19.294s-7.5 5.3303-7.5 6.3406c0 4.1277 6.5803 1.2467 21.378-9.36zm825.52 391.51c-1.045-0.92566-8.65-3.737-16.9-6.2474s-15.9-5.2352-17-6.0551c-6.2519-4.6597-59.388-14.014-79.604-14.014-12.444 0-13.545-6.4707-1.9272-11.325 8.0046-3.3445 20.68-2.3541 60.531 4.7298 9.35 1.6621 22.85 3.7606 30 4.6633 16.187 2.0438 28.169 6.0053 30.038 9.9317 7.3865 15.513 4.2638 26.645-5.1381 18.317zm-995.78-192.23c-12.054-8.014-17.5-14.778-15.692-19.489 1.3608-3.5461 9.5106-3.2872 12.57 0.39924 1.3694 1.65 3.6605 3 5.0914 3 5.917 0 14.249 9.699 14.52 16.902 0.34226 9.104-1.7283 9.0021-16.489-0.81176z"/>
</svg>
