<?xml version="1.0" encoding="UTF-8"?>
<!DOCTYPE svg PUBLIC "-//W3C//DTD SVG 1.1//EN" "http://www.w3.org/Graphics/SVG/1.1/DTD/svg11.dtd">
<svg xmlns="http://www.w3.org/2000/svg" version="1.1" width="512px" height="512px" style="shape-rendering:geometricPrecision; text-rendering:geometricPrecision; image-rendering:optimizeQuality; fill-rule:evenodd; clip-rule:evenodd" xmlns:xlink="http://www.w3.org/1999/xlink">
<g><path style="opacity:0.959" fill="#831010" d="M 395.5,7.5 C 398.187,7.33591 400.854,7.50258 403.5,8C 405.333,8.5 406.5,9.66667 407,11.5C 412.358,42.728 406.358,71.3947 389,97.5C 381.18,107.824 371.68,116.157 360.5,122.5C 359.501,134.815 359.168,147.149 359.5,159.5C 369.168,159.221 377.334,162.554 384,169.5C 392.794,182.185 393.794,195.518 387,209.5C 378.989,220.456 368.155,225.123 354.5,223.5C 345.936,250.574 329.103,270.907 304,284.5C 303.501,288.821 303.334,293.154 303.5,297.5C 333.3,306.155 362.966,315.322 392.5,325C 413.475,334.648 426.308,350.814 431,373.5C 431.667,415.5 431.667,457.5 431,499.5C 430.5,501.333 429.333,502.5 427.5,503C 312.833,503.667 198.167,503.667 83.5,503C 81.6667,502.5 80.5,501.333 80,499.5C 79.3333,457.167 79.3333,414.833 80,372.5C 84.9013,350.177 97.7347,334.344 118.5,325C 148.046,315.365 177.713,306.198 207.5,297.5C 207.666,293.154 207.499,288.821 207,284.5C 181.897,270.907 165.064,250.574 156.5,223.5C 133.773,224.66 121.44,213.993 119.5,191.5C 119.262,186.633 120.095,181.967 122,177.5C 125.259,172.115 129.092,167.282 133.5,163C 129.314,150.755 126.147,138.255 124,125.5C 120.656,84.026 136.156,51.8593 170.5,29C 186.404,19.699 203.57,14.8656 222,14.5C 261.179,18.7235 300.345,23.0569 339.5,27.5C 360.502,26.947 379.168,20.2803 395.5,7.5 Z M 216.5,31.5 C 257.368,35.4297 298.201,39.7631 339,44.5C 357.196,44.1594 374.363,39.8261 390.5,31.5C 391.742,71.8648 373.742,99.6982 336.5,115C 332.203,116.158 327.869,117.158 323.5,118C 303.858,119.513 284.191,119.847 264.5,119C 276.508,109.664 286.342,98.4972 294,85.5C 294.684,84.2161 294.517,83.0495 293.5,82C 289.323,79.8164 285.157,77.6497 281,75.5C 274.992,84.1903 268.159,92.357 260.5,100C 244.405,114.046 225.738,122.712 204.5,126C 187.427,126.796 170.427,127.796 153.5,129C 152.874,129.75 152.374,130.584 152,131.5C 151.667,140.833 151.333,150.167 151,159.5C 144.928,144.777 141.428,129.444 140.5,113.5C 141.959,76.7432 159.625,51.2432 193.5,37C 201.135,34.4448 208.802,32.6115 216.5,31.5 Z M 342.5,130.5 C 343.862,155.017 343.695,179.684 342,204.5C 331.61,250.721 302.777,275.721 255.5,279.5C 208.223,275.721 179.39,250.721 169,204.5C 167.681,184.19 167.181,163.857 167.5,143.5C 180.504,143.667 193.504,143.5 206.5,143C 216.07,141.608 225.403,139.274 234.5,136C 264.833,135.667 295.167,135.333 325.5,135C 331.473,134.18 337.139,132.68 342.5,130.5 Z M 146.5,176.5 C 148.167,176.5 149.833,176.5 151.5,176.5C 151.384,186.917 151.55,197.25 152,207.5C 137.878,204.255 133.544,195.922 139,182.5C 141.114,179.879 143.614,177.879 146.5,176.5 Z M 359.5,176.5 C 368.827,177.16 373.827,182.16 374.5,191.5C 373.604,200.897 368.437,206.23 359,207.5C 359.45,197.25 359.616,186.917 359.5,176.5 Z M 223.5,291.5 C 244.833,296.833 266.167,296.833 287.5,291.5C 287.664,294.187 287.497,296.854 287,299.5C 276.653,310.014 266.153,320.348 255.5,330.5C 244.847,320.348 234.347,310.014 224,299.5C 223.503,296.854 223.336,294.187 223.5,291.5 Z M 210.5,313.5 C 211.552,313.351 212.552,313.517 213.5,314C 222.5,323 231.5,332 240.5,341C 231.412,345.961 222.246,350.794 213,355.5C 209.601,343.138 206.101,330.804 202.5,318.5C 202.833,317.833 203.167,317.167 203.5,316.5C 206.016,315.67 208.35,314.67 210.5,313.5 Z M 297.5,313.5 C 301.902,313.843 305.569,315.51 308.5,318.5C 304.899,330.804 301.399,343.138 298,355.5C 288.754,350.794 279.588,345.961 270.5,341C 279.702,331.965 288.702,322.798 297.5,313.5 Z M 325.5,321.5 C 346.524,328.175 367.524,335.008 388.5,342C 405.07,351.301 413.904,365.468 415,384.5C 415.5,418.832 415.667,453.165 415.5,487.5C 402.167,487.5 388.833,487.5 375.5,487.5C 375.5,463.5 375.5,439.5 375.5,415.5C 370.167,415.5 364.833,415.5 359.5,415.5C 359.5,439.5 359.5,463.5 359.5,487.5C 327.5,487.5 295.5,487.5 263.5,487.5C 263.167,444.162 263.5,400.828 264.5,357.5C 276.167,363.333 287.833,369.167 299.5,375C 305.479,376.928 309.646,375.095 312,369.5C 316.504,353.482 321.004,337.482 325.5,321.5 Z M 181.5,322.5 C 183.144,322.286 184.644,322.62 186,323.5C 190.376,340.624 195.543,357.457 201.5,374C 204.702,375.483 208.036,375.817 211.5,375C 223.167,369.167 234.833,363.333 246.5,357.5C 247.5,400.828 247.833,444.162 247.5,487.5C 215.5,487.5 183.5,487.5 151.5,487.5C 151.5,463.5 151.5,439.5 151.5,415.5C 146.167,415.5 140.833,415.5 135.5,415.5C 135.5,439.5 135.5,463.5 135.5,487.5C 122.167,487.5 108.833,487.5 95.5,487.5C 95.3333,453.165 95.5,418.832 96,384.5C 97.0963,365.468 105.93,351.301 122.5,342C 142.322,335.636 161.989,329.136 181.5,322.5 Z M 295.5,415.5 C 306.167,415.5 316.833,415.5 327.5,415.5C 327.5,424.167 327.5,432.833 327.5,441.5C 322.058,442.758 316.724,444.425 311.5,446.5C 306.276,444.425 300.942,442.758 295.5,441.5C 295.5,432.833 295.5,424.167 295.5,415.5 Z"/></g>
<g><path style="opacity:0.917" fill="#831010" d="M 202.5,159.5 C 213.63,164.898 224.63,170.565 235.5,176.5C 233,181.5 230.5,186.5 228,191.5C 217.088,185.961 206.255,180.294 195.5,174.5C 198.118,169.599 200.452,164.599 202.5,159.5 Z"/></g>
<g><path style="opacity:0.917" fill="#831010" d="M 307.5,159.5 C 310.392,164.28 313.059,169.28 315.5,174.5C 304.745,180.294 293.912,185.961 283,191.5C 280.5,186.5 278,181.5 275.5,176.5C 286.228,170.804 296.895,165.138 307.5,159.5 Z"/></g>
<g><path style="opacity:0.929" fill="#831010" d="M 54.5,183.5 C 75.8152,180.572 91.3152,188.572 101,207.5C 102.962,212.656 103.795,217.989 103.5,223.5C 97.8333,223.5 92.1667,223.5 86.5,223.5C 85.7196,209.05 78.0529,201.05 63.5,199.5C 43.8337,203.649 36.8337,215.482 42.5,235C 42,236.5 41.5,238 41,239.5C 33.9476,243.552 28.6143,249.219 25,256.5C 23.6442,263.576 24.6442,270.243 28,276.5C 31.7467,280.918 36.0801,284.584 41,287.5C 42.7975,290.802 42.7975,294.135 41,297.5C 39.046,314.592 46.546,324.592 63.5,327.5C 78.0529,325.95 85.7196,317.95 86.5,303.5C 92.1667,303.5 97.8333,303.5 103.5,303.5C 102.866,324.263 92.533,337.43 72.5,343C 39.0924,344.928 22.5924,329.094 23,295.5C 9.91156,284.957 4.91156,271.29 8,254.5C 10.2492,244.992 15.2492,237.326 23,231.5C 21.2951,207.192 31.7951,191.192 54.5,183.5 Z"/></g>
<g><path style="opacity:0.93" fill="#831010" d="M 438.5,183.5 C 471.882,182.049 488.382,198.049 488,231.5C 502.373,243.29 507.04,258.29 502,276.5C 499.228,284.266 494.561,290.599 488,295.5C 489.99,317.796 480.824,333.296 460.5,342C 437.742,347.426 420.908,339.926 410,319.5C 408.038,314.344 407.205,309.011 407.5,303.5C 413.167,303.5 418.833,303.5 424.5,303.5C 425.28,317.95 432.947,325.95 447.5,327.5C 467.184,323.312 474.184,311.479 468.5,292C 469,290.5 469.5,289 470,287.5C 477.473,283.363 482.806,277.363 486,269.5C 487.331,262.751 486.331,256.418 483,250.5C 479.253,246.082 474.92,242.416 470,239.5C 468.203,236.198 468.203,232.865 470,229.5C 471.94,212.368 464.44,202.368 447.5,199.5C 432.976,201.022 425.309,209.022 424.5,223.5C 418.833,223.5 413.167,223.5 407.5,223.5C 408.245,202.654 418.578,189.321 438.5,183.5 Z"/></g>
<g><path style="opacity:0.93" fill="#831010" d="M 247.5,223.5 C 264.359,220.849 276.859,226.849 285,241.5C 286.975,245.963 287.808,250.629 287.5,255.5C 281.833,255.5 276.167,255.5 270.5,255.5C 269.84,246.173 264.84,241.173 255.5,240.5C 246.16,241.173 241.16,246.173 240.5,255.5C 234.833,255.5 229.167,255.5 223.5,255.5C 224.261,239.28 232.261,228.613 247.5,223.5 Z"/></g>
<g><path style="opacity:0.934" fill="#831010" d="M 80.5,231.5 C 100.899,236.104 121.566,238.604 142.5,239C 144.42,244.197 145.087,249.697 144.5,255.5C 122.165,255.958 100.165,253.458 78.5,248C 77.9415,247.275 77.6082,246.442 77.5,245.5C 78.8204,240.887 79.8204,236.221 80.5,231.5 Z"/></g>
<g><path style="opacity:0.933" fill="#831010" d="M 425.5,231.5 C 427.167,231.5 428.833,231.5 430.5,231.5C 431.18,236.221 432.18,240.887 433.5,245.5C 433.392,246.442 433.059,247.275 432.5,248C 410.838,253.458 388.838,255.958 366.5,255.5C 365.913,249.697 366.58,244.197 368.5,239C 387.97,239.006 406.97,236.506 425.5,231.5 Z"/></g>
<g><path style="opacity:0.933" fill="#831010" d="M 121.5,271.5 C 129.167,271.5 136.833,271.5 144.5,271.5C 145.087,277.303 144.42,282.803 142.5,288C 121.566,288.396 100.899,290.896 80.5,295.5C 79.8204,290.779 78.8204,286.113 77.5,281.5C 77.6082,280.558 77.9415,279.725 78.5,279C 92.8234,275.614 107.157,273.114 121.5,271.5 Z"/></g>
<g><path style="opacity:0.932" fill="#831010" d="M 366.5,271.5 C 388.838,271.042 410.838,273.542 432.5,279C 433.059,279.725 433.392,280.558 433.5,281.5C 432.18,286.113 431.18,290.779 430.5,295.5C 410.101,290.896 389.434,288.396 368.5,288C 366.58,282.803 365.913,277.303 366.5,271.5 Z"/></g>
<g><path style="opacity:0.972" fill="#831010" d="M 283.5,399.5 C 302.926,399.025 322.259,399.525 341.5,401C 342.126,401.75 342.626,402.584 343,403.5C 343.167,411.5 343.333,419.5 343.5,427.5C 343.639,436.264 343.139,444.93 342,453.5C 330.815,459.344 318.982,462.51 306.5,463C 298.014,460.394 289.681,457.394 281.5,454C 280.874,453.25 280.374,452.416 280,451.5C 279.333,435.5 279.333,419.5 280,403.5C 280.69,401.65 281.856,400.316 283.5,399.5 Z M 295.5,415.5 C 295.5,424.167 295.5,432.833 295.5,441.5C 300.942,442.758 306.276,444.425 311.5,446.5C 316.724,444.425 322.058,442.758 327.5,441.5C 327.5,432.833 327.5,424.167 327.5,415.5C 316.833,415.5 306.167,415.5 295.5,415.5 Z"/></g>
</svg>
